<?xml version="1.0" encoding="utf-8"?>
<svg width="700px" height="719px" viewbox="0 0 700 719" version="1.1" xmlns:xlink="http://www.w3.org/1999/xlink" xmlns="http://www.w3.org/2000/svg">
  <g id="Logo">
    <path d="M350 0L653.109 175L653.109 525L350 700L46.8911 525L46.8911 175L350 0Z" transform="translate(0 19)" id="Polygon" fill="#091A28" fill-rule="evenodd" stroke="none" />
    <g id="R" fill="#00835C">
      <path d="M339.8 453.2Q359 470.6 375.8 490.1Q392.6 509.6 408.2 530.6Q408.8 531.8 411.5 535.1Q414.2 538.4 413 539.6Q412.4 540.2 408.5 538.7Q404.6 537.2 403.4 536Q398.6 533 392.3 528.2Q386 523.4 379.1 518Q372.2 512.6 365.6 506.9Q359 501.2 354.8 496.4Q351.8 494 340.4 484.1Q329 474.2 314.6 462.8Q300.2 451.4 285.2 441.8Q270.2 432.2 260.6 429.8Q258.8 429.2 255.5 428Q252.2 426.8 252.8 423.8Q257.6 401 264.8 379.4Q272 357.8 278.6 335Q287 306.8 294.5 277.4Q302 248 303.2 213.8Q303.2 210.8 303.8 210.8Q305.6 210.8 306.8 215Q314 231.2 312.8 257Q311.6 282.8 306.5 310.7Q301.4 338.6 293.9 364.1Q286.4 389.6 281 404.6L279.2 409.4Q301.4 394.4 325.4 379.4Q349.4 364.4 370.1 349.1Q390.8 333.8 406.1 317.3Q421.4 300.8 426.8 282.8Q430.4 270.8 425.9 258.8Q421.4 246.8 410.3 236.3Q399.2 225.8 382.4 218Q365.6 210.2 345.2 207.2Q318.2 203.6 290.6 205.4Q293 223.4 291.5 241.7Q290 260 287 273.2Q279.2 305.6 267.2 340.1Q255.2 374.6 242.6 404.6Q241.4 406.4 239 410.6Q236.6 414.8 234.8 414.2Q233.6 413.6 234.2 408.8Q234.8 404 234.8 402.2Q235.4 395 237.5 384.5Q239.6 374 241.7 362.6Q243.8 351.2 246.5 340.7Q249.2 330.2 251.6 322.4Q252.8 318.8 255.5 307.1Q258.2 295.4 261.2 279.2Q264.2 263 267.2 244.4Q270.2 225.8 272 208.4L263.6 209.6Q261.8 232.4 256.4 255.8Q251 279.2 244.1 302.9Q237.2 326.6 229.7 350.9Q222.2 375.2 216.8 398.6Q212 419.6 209.3 442.4Q206.6 465.2 207.5 487.4Q208.4 509.6 212.9 530.3Q217.4 551 227.6 567.8Q228.8 570.8 227.6 570.8Q226.4 570.8 224.6 569Q209.6 551.6 201.8 530Q194 508.4 191.9 484.7Q189.8 461 192.5 435.8Q195.2 410.6 200.6 386.6Q210.8 341.6 225.2 297.8Q239.6 254 249.2 213.2Q234.2 216.8 219.8 221.9Q205.4 227 192.8 233Q189.8 234.2 189.2 233.6Q188.6 233 189.8 231.5Q191 230 192.2 229.4Q222.2 204.8 265.4 194.6Q308.6 184.4 353.6 189.2Q377 192.2 396.5 202.4Q416 212.6 428.6 227.3Q441.2 242 445.1 260Q449 278 441.2 296Q432.2 317 412.7 335Q393.2 353 368.9 368.6Q344.6 384.2 317.6 397.4Q290.6 410.6 267.2 422Q276.8 422 287 425Q297.2 428 307.1 432.5Q317 437 325.7 442.4Q334.4 447.8 339.8 453.2ZM506 303.2Q497 334.4 478.7 356.3Q460.4 378.2 438.2 392.6Q416 407 393.2 414.5Q370.4 422 353.6 424.4Q348.8 425.6 344.9 425.3Q341 425 341.6 423.8Q340.4 422.6 344.3 421.4Q348.2 420.2 352.4 418.4Q384.8 406.4 414.8 387.2Q444.8 368 467.6 336.2Q478.4 321.2 483.8 301.4Q489.2 281.6 487.7 261.2Q486.2 240.8 477.5 221.6Q468.8 202.4 452 188.6Q432.2 171.8 408.8 162.2Q385.4 152.6 360.8 149Q336.2 145.4 311 147.5Q285.8 149.6 262.4 155.6Q258.2 156.8 257.6 157.1Q257 157.4 256.4 156.2Q256.4 155.6 261.2 152Q270.8 146 286.7 140.9Q302.6 135.8 322.7 134Q342.8 132.2 366.2 134.3Q389.6 136.4 414.2 145.4Q439.4 153.8 461.6 171.5Q483.8 189.2 497 215Q509.6 240.2 509.9 263.9Q510.2 287.6 506 303.2ZM201.2 205.4Q213.2 188 233 176.9Q252.8 165.8 276.2 160.4Q299.6 155 325.1 155.6Q350.6 156.2 374.6 161.6Q398.6 167 419.3 177.8Q440 188.6 453.8 204.2Q463.4 215.6 468.5 228.5Q473.6 241.4 473.9 254.9Q474.2 268.4 470.9 281Q467.6 293.6 461.6 304.4Q460.4 306.8 455.6 312.5Q450.8 318.2 449.6 317Q448.4 316.4 451.4 310.4Q454.4 304.4 455.6 301.4Q460.4 285.8 459.5 270.5Q458.6 255.2 453.5 242Q448.4 228.8 440 218.3Q431.6 207.8 422 201.2Q399.2 186.2 370.4 179.9Q341.6 173.6 311.9 175.1Q282.2 176.6 254 185.3Q225.8 194 205.4 208.4Q200 213.2 198.2 211.4Q197 210.8 198.5 208.7Q200 206.6 201.2 205.4ZM521 583.4Q524.6 582.8 524.6 584Q524.6 585.2 521.6 586.4Q500 594.2 479.6 594.8Q459.2 595.4 440.6 590.9Q422 586.4 405.8 578.3Q389.6 570.2 376.4 560.6Q360.8 549.2 346.7 535.1Q332.6 521 319.4 506.9Q306.2 492.8 293 479.6Q279.8 466.4 266 456.2Q255.8 489.8 247.4 515.6Q246.2 518.6 245 521Q243.8 523.4 242.6 522.8Q241.4 522.2 241.4 519.5Q241.4 516.8 241.4 513.8Q242.6 497 243.8 479.6Q245 462.2 249.2 444.8Q245 442.4 241.1 440.6Q237.2 438.8 232.4 436.4Q230.6 434.6 230.6 434Q230.6 433.4 232.1 433.4Q233.6 433.4 234.8 433.4Q258.8 435.2 278.6 448.1Q298.4 461 317 478.4Q335.6 495.8 353.6 515.3Q371.6 534.8 392 549.8Q403.4 558.2 418.1 565.1Q432.8 572 449.6 576.8Q466.4 581.6 484.7 583.7Q503 585.8 521 583.4ZM428 495.8Q444.8 510.8 460.1 529.4Q475.4 548 489.8 559.4Q494 563.6 493.4 565.4Q492.2 566.6 490.4 566Q488.6 565.4 486.2 564.8Q470 559.4 455.9 549.8Q441.8 540.2 428.6 528.2Q415.4 516.2 403.1 503Q390.8 489.8 378.2 477.2Q369.8 468.8 359.9 458.6Q350 448.4 339.2 439.7Q328.4 431 316.7 425.3Q305 419.6 292.4 419.6L315.8 409.4Q324.8 405.2 338 399.2Q351.2 393.2 363.2 387.8Q375.2 382.4 384.2 379.1Q393.2 375.8 393.8 376.4Q394.4 377.6 391.7 380.6Q389 383.6 384.5 387.2Q380 390.8 375.8 393.8Q371.6 396.8 369.8 397.4Q358.4 404 348.5 409.7Q338.6 415.4 328.4 420.2Q342.2 425.6 356.6 435.5Q371 445.4 384.2 456.8Q397.4 468.2 408.8 478.7Q420.2 489.2 428 495.8ZM233.6 533Q235.4 543.2 238.4 552.8Q241.4 562.4 245.6 569C246 569 246.3 569.3 246.5 569.9Q246.8 570.8 245.6 570.8Q244.4 570.8 242.9 569.9C241.9 569.3 241 569 240.2 569Q232.4 564.2 227.9 557.3Q223.4 550.4 220.4 533Q219.2 526.4 219.2 516.2Q219.2 506 219.8 496.7Q220.4 487.4 221.6 480.8Q222.8 474.2 225.2 474.2Q225.8 474.2 226.7 477.2Q227.6 480.2 228.2 484.1Q228.8 488 229.1 491.6Q229.4 495.2 229.4 496.4Q230.6 506.6 231.2 515.6Q231.8 524.6 233.6 533ZM496.4 570.8Q506 571.4 511.1 571.1Q516.2 570.8 524.6 569.6Q525.2 569.6 527.6 569.3C529.2 569.1 530.2 569.2 530.6 569.6Q531.2 570.8 529.1 572.6Q527 574.4 525.8 575Q516.2 578 508.1 579.2Q500 580.4 484.4 578.6Q479 578 472.4 576.2Q465.8 574.4 460.4 572.3Q455 570.2 452 568.1Q449 566 450.8 564.8Q452 564.2 458.3 565.7Q464.6 567.2 467 567.8Q475.4 569.6 482.6 570.2Q489.8 570.8 496.4 570.8Z" />
    </g>
  </g>
</svg>