<?xml version="1.0" encoding="utf-8"?>
<svg width="1920px" height="1080px" viewbox="0 0 1920 1080" version="1.1" xmlns:xlink="http://www.w3.org/1999/xlink" xmlns="http://www.w3.org/2000/svg">
  <defs>
    <rect width="1920" height="1080" id="artboard_1" />
    <clipPath id="clip_1">
      <use xlink:href="#artboard_1" clip-rule="evenodd" />
    </clipPath>
  </defs>
  <g id="Full-HD" clip-path="url(#clip_1)">
    <use xlink:href="#artboard_1" stroke="none" fill="#232946" />
    <path d="M1 0L1 78.2" transform="translate(345.5 315)" id="Line-3" fill="none" fill-rule="evenodd" stroke="#FFFFFE" stroke-width="7" stroke-linecap="square" />
    <path d="M1 0L1 78.2" transform="translate(1588.5 315)" id="Line-4" fill="none" fill-rule="evenodd" stroke="#FFFFFE" stroke-width="7" stroke-linecap="square" />
    <path d="M1 0L1 156.4" transform="translate(959 236.8)" id="Line" fill="none" fill-rule="evenodd" stroke="#FFFFFE" stroke-width="7" stroke-linecap="square" />
    <g id="sides" transform="translate(151 540)">
      <path d="M0 1L35.5 1" transform="translate(1 87)" id="Line-6" fill="none" fill-rule="evenodd" stroke="#121629" stroke-width="7" stroke-linecap="square" />
      <path d="M0 1L35.5 1" transform="translate(1 212)" id="Line-6-Copy" fill="none" fill-rule="evenodd" stroke="#121629" stroke-width="7" stroke-linecap="square" />
      <path d="M0 1L35.5 1" transform="translate(1 337)" id="Line-6-Copy-2" fill="none" fill-rule="evenodd" stroke="#121629" stroke-width="7" stroke-linecap="square" />
      <path d="M0 1L35.5 1" transform="translate(1 444)" id="Line-6-Copy-3" fill="none" fill-rule="evenodd" stroke="#121629" stroke-width="7" stroke-linecap="square" />
      <path d="M1 0L1 444" id="Line-5" fill="none" fill-rule="evenodd" stroke="#121629" stroke-width="7" stroke-linecap="square" />
    </g>
    <g id="sides-3" transform="translate(1381 540)">
      <path d="M0 1L35.5 1" transform="translate(1 87)" id="Line-6" fill="none" fill-rule="evenodd" stroke="#121629" stroke-width="7" stroke-linecap="square" />
      <path d="M0 1L35.5 1" transform="translate(1 212)" id="Line-6-Copy" fill="none" fill-rule="evenodd" stroke="#121629" stroke-width="7" stroke-linecap="square" />
      <path d="M0 1L35.5 1" transform="translate(1 337)" id="Line-6-Copy-2" fill="none" fill-rule="evenodd" stroke="#121629" stroke-width="7" stroke-linecap="square" />
      <path d="M0 1L35.5 1" transform="translate(1 444)" id="Line-6-Copy-3" fill="none" fill-rule="evenodd" stroke="#121629" stroke-width="7" stroke-linecap="square" />
      <path d="M1 0L1 444" id="Line-5" fill="none" fill-rule="evenodd" stroke="#121629" stroke-width="7" stroke-linecap="square" />
    </g>
    <g id="sides-2" transform="translate(766 540)">
      <path d="M0 1L35.5 1" transform="translate(1 87)" id="Line-6" fill="none" fill-rule="evenodd" stroke="#121629" stroke-width="7" stroke-linecap="square" />
      <path d="M0 1L35.5 1" transform="translate(1 212)" id="Line-6-Copy" fill="none" fill-rule="evenodd" stroke="#121629" stroke-width="7" stroke-linecap="square" />
      <path d="M0 1L35.5 1" transform="translate(1 337)" id="Line-6-Copy-2" fill="none" fill-rule="evenodd" stroke="#121629" stroke-width="7" stroke-linecap="square" />
      <path d="M0 1L35.5 1" transform="translate(1 444)" id="Line-6-Copy-3" fill="none" fill-rule="evenodd" stroke="#121629" stroke-width="7" stroke-linecap="square" />
      <path d="M1 0L1 444" id="Line-5" fill="none" fill-rule="evenodd" stroke="#121629" stroke-width="7" stroke-linecap="square" />
    </g>
    <g id="Primirive" transform="translate(116 393.16998)">
      <path d="M0 0L457 0L457 146.83L0 146.83L0 0Z" id="Rectangle" fill="#EEBBC3" fill-rule="evenodd" stroke="none" />
      <g id="Primitive" fill="#232946" transform="translate(36 15.501892)">
        <path d="M135.913 36.2041Q134.639 37.4346 134.639 39.3389Q134.639 41.2725 135.942 42.503Q137.246 43.7334 139.385 43.7334Q141.523 43.7334 142.827 42.503Q144.131 41.2725 144.131 39.3389Q144.131 37.4346 142.842 36.2041Q141.553 34.9737 139.385 34.9737Q137.188 34.9737 135.913 36.2041ZM203.765 36.2041Q202.49 37.4346 202.49 39.3389Q202.49 41.2725 203.794 42.503Q205.098 43.7334 207.236 43.7334Q209.375 43.7334 210.679 42.503Q211.982 41.2725 211.982 39.3389Q211.982 37.4346 210.693 36.2041Q209.404 34.9737 207.236 34.9737Q205.039 34.9737 203.765 36.2041ZM239.946 36.2041Q238.672 37.4346 238.672 39.3389Q238.672 41.2725 239.976 42.503Q241.279 43.7334 243.418 43.7334Q245.557 43.7334 246.86 42.503Q248.164 41.2725 248.164 39.3389Q248.164 37.4346 246.875 36.2041Q245.586 34.9737 243.418 34.9737Q241.221 34.9737 239.946 36.2041ZM83.457 64.212L83.457 79.2413L74.668 79.2413L74.668 36.585L91.3086 36.585Q96.1133 36.585 99.7607 38.3428Q103.408 40.1006 105.371 43.3379Q107.334 46.5752 107.334 50.7061Q107.334 56.9756 103.042 60.5938Q98.75 64.212 91.1621 64.212L83.457 64.212ZM228.594 39.7491L228.594 47.542L234.014 47.542L234.014 53.753L228.594 53.753L228.594 69.5733Q228.594 71.3311 229.268 72.0928Q229.941 72.8545 231.846 72.8545Q233.252 72.8545 234.336 72.6495L234.336 79.0655Q231.846 79.8272 229.209 79.8272Q220.303 79.8272 220.127 70.8331L220.127 53.753L215.498 53.753L215.498 47.542L220.127 47.542L220.127 39.7491L228.594 39.7491ZM83.457 57.0928L91.3086 57.0928Q94.7949 57.0928 96.626 55.4522Q98.457 53.8116 98.457 50.7647Q98.457 47.6299 96.6113 45.6963Q94.7656 43.7627 91.5137 43.7041L83.457 43.7041L83.457 57.0928ZM130.625 55.4815Q128.896 55.2471 127.578 55.2471Q122.773 55.2471 121.279 58.4991L121.279 79.2413L112.813 79.2413L112.813 47.542L120.811 47.542L121.045 51.3213Q123.594 46.9561 128.105 46.9561Q129.512 46.9561 130.742 47.337L130.625 55.4815ZM158.545 47.542L158.809 51.087Q162.178 46.9561 167.92 46.9561Q174.043 46.9561 176.328 51.7901Q179.668 46.9561 185.85 46.9561Q191.006 46.9561 193.525 49.959Q196.045 52.962 196.045 58.9971L196.045 79.2413L187.549 79.2413L187.549 59.0264Q187.549 56.3311 186.494 55.086Q185.439 53.8409 182.773 53.8409Q178.965 53.8409 177.5 57.4737L177.529 79.2413L169.063 79.2413L169.063 59.0557Q169.063 56.3018 167.979 55.0713Q166.895 53.8409 164.287 53.8409Q160.684 53.8409 159.072 56.8291L159.072 79.2413L150.605 79.2413L150.605 47.542L158.545 47.542ZM288.198 75.5499Q292.578 79.8272 299.551 79.8272Q303.506 79.8272 306.758 78.3184Q310.01 76.8096 311.914 74.1143L307.754 69.4561Q305 73.001 300.107 73.001Q296.943 73.001 294.878 71.126Q292.813 69.251 292.402 66.1456L312.588 66.1456L312.588 62.6885Q312.588 55.1592 308.853 51.0577Q305.117 46.9561 298.613 46.9561Q294.277 46.9561 290.894 48.9922Q287.51 51.0284 285.664 54.793Q283.818 58.5577 283.818 63.3331L283.818 64.1534Q283.818 71.2725 288.198 75.5499ZM135.137 47.542L135.137 79.2413L143.633 79.2413L143.633 47.542L135.137 47.542ZM202.988 47.542L202.988 79.2413L211.484 79.2413L211.484 47.542L202.988 47.542ZM239.17 47.542L239.17 79.2413L247.666 79.2413L247.666 47.542L239.17 47.542ZM266.504 68.8995L272.393 47.542L281.24 47.542L270.547 79.2413L262.461 79.2413L251.768 47.542L260.615 47.542L266.504 68.8995ZM294.497 55.489Q296.064 53.7823 298.584 53.7823Q301.279 53.7823 302.744 55.3272Q304.209 56.8722 304.268 59.697L304.268 60.3741L292.49 60.3741Q292.93 57.1958 294.497 55.489Z" />
      </g>
    </g>
    <g id="Derievd" transform="translate(731 393.19998)">
      <path d="M0 0L457 0L457 146.83L0 146.83L0 0Z" id="Rectangle" fill="#EEBBC3" fill-rule="evenodd" stroke="none" />
      <g id="Derived" fill="#232946" transform="translate(36 15.501862)">
        <path d="M266.841 51.3506Q263.516 55.7452 263.516 63.1573Q263.516 71.0088 266.899 75.418Q270.283 79.8272 275.879 79.8272Q280.859 79.8272 284.023 75.8721L284.434 79.2413L292.08 79.2413L292.08 34.2413L283.584 34.2413L283.584 50.4131Q280.566 46.9561 275.938 46.9561Q270.166 46.9561 266.841 51.3506ZM186.113 39.3389Q186.113 37.4346 187.388 36.2041Q188.662 34.9737 190.859 34.9737Q193.027 34.9737 194.316 36.2041Q195.605 37.4346 195.605 39.3389Q195.605 41.2725 194.302 42.503Q192.998 43.7334 190.859 43.7334Q188.721 43.7334 187.417 42.503Q186.113 41.2725 186.113 39.3389ZM93.418 79.2413L93.418 36.585L106.543 36.585Q112.168 36.585 116.606 39.1192Q121.045 41.6534 123.535 46.3262Q126.025 50.9991 126.025 56.9463L126.025 58.9092Q126.025 64.8565 123.579 69.4854Q121.133 74.1143 116.68 76.6631Q112.227 79.212 106.631 79.2413L93.418 79.2413ZM102.207 43.7041L102.207 72.1807L106.455 72.1807Q111.611 72.1807 114.336 68.8116Q117.061 65.4424 117.119 59.1729L117.119 56.917Q117.119 50.4131 114.424 47.0586Q111.729 43.7042 106.543 43.7041L102.207 43.7041ZM146.445 79.8272Q139.473 79.8272 135.093 75.5499Q130.713 71.2725 130.713 64.1534L130.713 63.3331Q130.713 58.5577 132.559 54.793Q134.404 51.0284 137.788 48.9922Q141.172 46.9561 145.508 46.9561Q152.012 46.9561 155.747 51.0577Q159.482 55.1592 159.482 62.6885L159.482 66.1456L139.297 66.1456Q139.707 69.251 141.772 71.126Q143.838 73.001 147.002 73.001Q151.895 73.001 154.648 69.4561L158.809 74.1143Q156.904 76.8096 153.652 78.3184Q150.4 79.8272 146.445 79.8272ZM179.053 55.2471Q180.371 55.2471 182.1 55.4815L182.217 47.337Q180.986 46.9561 179.58 46.9561Q175.068 46.9561 172.52 51.3213L172.285 47.542L164.287 47.542L164.287 79.2413L172.754 79.2413L172.754 58.4991Q174.248 55.2471 179.053 55.2471ZM246.992 79.8272Q240.02 79.8272 235.64 75.5499Q231.26 71.2725 231.26 64.1534L231.26 63.3331Q231.26 58.5577 233.105 54.793Q234.951 51.0284 238.335 48.9922Q241.719 46.9561 246.055 46.9561Q252.559 46.9561 256.294 51.0577Q260.029 55.1592 260.029 62.6885L260.029 66.1456L239.844 66.1456Q240.254 69.251 242.319 71.126Q244.385 73.001 247.549 73.001Q252.441 73.001 255.195 69.4561L259.355 74.1143Q257.451 76.8096 254.199 78.3184Q250.947 79.8272 246.992 79.8272ZM186.611 79.2413L186.611 47.542L195.107 47.542L195.107 79.2413L186.611 79.2413ZM219.834 47.542L213.945 68.8995L208.057 47.542L199.209 47.542L209.902 79.2413L217.988 79.2413L228.682 47.542L219.834 47.542ZM145.479 53.7823Q142.959 53.7823 141.392 55.489Q139.824 57.1958 139.385 60.3741L151.162 60.3741L151.162 59.697Q151.104 56.8722 149.639 55.3272Q148.174 53.7823 145.479 53.7823ZM246.025 53.7823Q243.506 53.7823 241.938 55.489Q240.371 57.1958 239.932 60.3741L251.709 60.3741L251.709 59.697Q251.65 56.8722 250.186 55.3272Q248.721 53.7823 246.025 53.7823ZM273.535 70.6243Q271.982 68.2476 271.982 63.7876Q271.982 53.8409 278.105 53.8409Q282.002 53.8409 283.584 57.1564L283.584 69.6854Q281.973 73.001 278.047 73.001Q275.088 73.001 273.535 70.6243Z" />
      </g>
    </g>
    <g id="UD" transform="translate(1346 393.19998)">
      <path d="M0 0L457 0L457 146.83L0 146.83L0 0Z" id="Rectangle" fill="#EEBBC3" fill-rule="evenodd" stroke="none" />
      <g id="User-Defined" fill="#232946" transform="translate(36 15.501862)">
        <path d="M234.951 53.753L234.951 79.2413L243.447 79.2413L243.447 53.753L249.746 53.753L249.746 47.542L243.447 47.542L243.447 44.9932Q243.447 40.5108 248.223 40.5108Q249.746 40.5108 250.801 40.7745L250.889 34.212Q248.34 33.626 246.582 33.626Q241.074 33.626 238.013 36.5704Q234.951 39.5147 234.951 44.8467L234.951 47.542L230.234 47.542L230.234 53.753L234.951 53.753ZM338.091 51.3506Q334.766 55.7452 334.766 63.1573Q334.766 71.0088 338.149 75.418Q341.533 79.8272 347.129 79.8272Q352.109 79.8272 355.273 75.8721L355.684 79.2413L363.33 79.2413L363.33 34.2413L354.834 34.2413L354.834 50.4131Q351.816 46.9561 347.188 46.9561Q341.416 46.9561 338.091 51.3506ZM254.082 39.3389Q254.082 37.4346 255.356 36.2041Q256.631 34.9737 258.828 34.9737Q260.996 34.9737 262.285 36.2041Q263.574 37.4346 263.574 39.3389Q263.574 41.2725 262.271 42.503Q260.967 43.7334 258.828 43.7334Q256.689 43.7334 255.386 42.503Q254.082 41.2725 254.082 39.3389ZM54.4531 36.585L54.4531 64.6807Q54.4531 71.6827 50.0732 75.7549Q45.6934 79.8272 38.1055 79.8272Q30.6348 79.8272 26.2402 75.8721Q21.8457 71.917 21.7578 65.003L21.7578 36.585L30.5469 36.585L30.5469 64.7393Q30.5469 68.9288 32.5537 70.8477Q34.5605 72.7666 38.1055 72.7666Q45.5176 72.7666 45.6348 64.9737L45.6348 36.585L54.4531 36.585ZM161.768 36.585L161.768 79.2413L174.98 79.2413Q180.576 79.212 185.029 76.6631Q189.482 74.1143 191.929 69.4854Q194.375 64.8565 194.375 58.9092L194.375 56.9463Q194.375 50.9991 191.885 46.3262Q189.395 41.6534 184.956 39.1192Q180.518 36.585 174.893 36.585L161.768 36.585ZM170.557 72.1807L170.557 43.7041L174.893 43.7041Q180.078 43.7042 182.773 47.0586Q185.469 50.4131 185.469 56.917L185.469 59.1729Q185.41 65.4424 182.686 68.8116Q179.961 72.1807 174.805 72.1807L170.557 72.1807ZM78.2715 70.4815Q78.2715 68.9288 76.7334 68.0352Q75.1953 67.1416 71.7969 66.4385Q60.4883 64.0655 60.4883 56.8291Q60.4883 52.6104 63.9893 49.7832Q67.4902 46.9561 73.1445 46.9561Q79.1797 46.9561 82.7979 49.7979Q86.416 52.6397 86.416 57.1807L77.9492 57.1807Q77.9492 55.3643 76.7773 54.1778Q75.6055 52.9913 73.1152 52.9913Q70.9766 52.9913 69.8047 53.9581Q68.6328 54.9249 68.6328 56.419Q68.6328 57.8252 69.9658 58.6895Q71.2988 59.5538 74.4629 60.1836Q77.627 60.8135 79.7949 61.6045Q86.5039 64.0655 86.5039 70.1299Q86.5039 74.4659 82.7832 77.1465Q79.0625 79.8272 73.1738 79.8272Q69.1895 79.8272 66.0986 78.4063Q63.0078 76.9854 61.25 74.5098Q59.4922 72.0342 59.4922 69.1631L67.5195 69.1631Q67.6367 71.419 69.1895 72.6202Q70.7422 73.8213 73.3496 73.8213Q75.7813 73.8213 77.0264 72.8985Q78.2715 71.9756 78.2715 70.4815ZM95.1904 75.5499Q99.5703 79.8272 106.543 79.8272Q110.498 79.8272 113.75 78.3184Q117.002 76.8096 118.906 74.1143L114.746 69.4561Q111.992 73.001 107.1 73.001Q103.936 73.001 101.87 71.126Q99.8047 69.251 99.3945 66.1456L119.58 66.1456L119.58 62.6885Q119.58 55.1592 115.845 51.0577Q112.109 46.9561 105.605 46.9561Q101.27 46.9561 97.8857 48.9922Q94.502 51.0284 92.6563 54.793Q90.8105 58.5577 90.8105 63.3331L90.8105 64.1534Q90.8105 71.2725 95.1904 75.5499ZM142.197 55.4815Q140.469 55.2471 139.15 55.2471Q134.346 55.2471 132.852 58.4991L132.852 79.2413L124.385 79.2413L124.385 47.542L132.383 47.542L132.617 51.3213Q135.166 46.9561 139.678 46.9561Q141.084 46.9561 142.314 47.337L142.197 55.4815ZM214.795 79.8272Q207.822 79.8272 203.442 75.5499Q199.063 71.2725 199.063 64.1534L199.063 63.3331Q199.063 58.5577 200.908 54.793Q202.754 51.0284 206.138 48.9922Q209.521 46.9561 213.857 46.9561Q220.361 46.9561 224.097 51.0577Q227.832 55.1592 227.832 62.6885L227.832 66.1456L207.646 66.1456Q208.057 69.251 210.122 71.126Q212.188 73.001 215.352 73.001Q220.244 73.001 222.998 69.4561L227.158 74.1143Q225.254 76.8096 222.002 78.3184Q218.75 79.8272 214.795 79.8272ZM278.105 51.2041L277.842 47.542L269.873 47.542L269.873 79.2413L278.34 79.2413L278.34 56.8877Q280.127 53.8409 283.701 53.8409Q286.426 53.8409 287.598 55.0567Q288.77 56.2725 288.77 58.9678L288.77 79.2413L297.236 79.2413L297.236 58.7627Q297.178 52.8741 294.717 49.9151Q292.256 46.9561 287.217 46.9561Q281.504 46.9561 278.105 51.2041ZM318.242 79.8272Q311.27 79.8272 306.89 75.5499Q302.51 71.2725 302.51 64.1534L302.51 63.3331Q302.51 58.5577 304.355 54.793Q306.201 51.0284 309.585 48.9922Q312.969 46.9561 317.305 46.9561Q323.809 46.9561 327.544 51.0577Q331.279 55.1592 331.279 62.6885L331.279 66.1456L311.094 66.1456Q311.504 69.251 313.569 71.126Q315.635 73.001 318.799 73.001Q323.691 73.001 326.445 69.4561L330.605 74.1143Q328.701 76.8096 325.449 78.3184Q322.197 79.8272 318.242 79.8272ZM254.58 79.2413L254.58 47.542L263.076 47.542L263.076 79.2413L254.58 79.2413ZM101.489 55.489Q103.057 53.7823 105.576 53.7823Q108.271 53.7823 109.736 55.3272Q111.201 56.8722 111.26 59.697L111.26 60.3741L99.4824 60.3741Q99.9219 57.1958 101.489 55.489ZM213.828 53.7823Q211.309 53.7823 209.741 55.489Q208.174 57.1958 207.734 60.3741L219.512 60.3741L219.512 59.697Q219.453 56.8722 217.988 55.3272Q216.523 53.7823 213.828 53.7823ZM317.275 53.7823Q314.756 53.7823 313.188 55.489Q311.621 57.1958 311.182 60.3741L322.959 60.3741L322.959 59.697Q322.9 56.8722 321.436 55.3272Q319.971 53.7823 317.275 53.7823ZM344.785 70.6243Q343.232 68.2476 343.232 63.7876Q343.232 53.8409 349.355 53.8409Q353.252 53.8409 354.834 57.1564L354.834 69.6854Q353.223 73.001 349.297 73.001Q346.338 73.001 344.785 70.6243Z" />
      </g>
    </g>
    <g id="Title" transform="translate(731 90)">
      <path d="M0 0L457 0L457 146.83L0 146.83L0 0Z" id="Rectangle" fill="#EEBBC3" fill-rule="evenodd" stroke="none" />
      <g id="DATA-TYPES" fill="#232946" transform="translate(36 15.501892)">
        <path d="M368.453 64.6475Q370.328 66.0694 370.328 68.7256Q370.328 71.1631 368.453 72.5225Q366.578 73.8819 363.234 73.8819Q354.234 73.8819 354.234 66.3506L344.828 66.3506Q344.828 70.7569 347.094 74.1006Q349.359 77.4444 353.672 79.3663Q357.984 81.2881 363.234 81.2881Q370.797 81.2881 375.266 77.9288Q379.734 74.5694 379.734 68.6631Q379.734 63.3506 376.078 59.7881Q372.422 56.2256 364.422 53.8194Q360.078 52.5069 357.844 51.0069Q355.609 49.5069 355.609 47.2881Q355.609 44.9131 357.516 43.46Q359.422 42.0069 362.859 42.0069Q366.422 42.0069 368.391 43.7413Q370.359 45.4756 370.359 48.6006L379.734 48.6006Q379.734 44.5069 377.625 41.2881Q375.516 38.0694 371.703 36.3038Q367.891 34.5381 363.016 34.5381Q358.172 34.5381 354.281 36.1631Q350.391 37.7881 348.313 40.6788Q346.234 43.5694 346.234 47.2569Q346.234 54.3506 353.984 58.5381Q356.828 60.0694 361.703 61.6475Q366.578 63.2256 368.453 64.6475ZM7.04688 80.6631L7.04688 35.1631L21.0469 35.1631Q27.0469 35.1631 31.7813 37.8663Q36.5156 40.5694 39.1719 45.5538Q41.8281 50.5381 41.8281 56.8819L41.8281 58.9756Q41.8281 65.3194 39.2188 70.2569Q36.6094 75.1944 31.8594 77.9131Q27.1094 80.6319 21.1406 80.6631L7.04688 80.6631ZM74.3281 71.2881L57.8906 71.2881L54.7656 80.6631L44.7969 80.6631L61.7344 35.1631L70.4219 35.1631L87.4531 80.6631L77.4844 80.6631L74.3281 71.2881ZM112.016 42.7569L125.953 42.7569L125.953 35.1631L88.8906 35.1631L88.8906 42.7569L102.641 42.7569L102.641 80.6631L112.016 80.6631L112.016 42.7569ZM156.984 71.2881L140.547 71.2881L137.422 80.6631L127.453 80.6631L144.391 35.1631L153.078 35.1631L170.109 80.6631L160.141 80.6631L156.984 71.2881ZM210.609 42.7569L224.547 42.7569L224.547 35.1631L187.484 35.1631L187.484 42.7569L201.234 42.7569L201.234 80.6631L210.609 80.6631L210.609 42.7569ZM245.578 55.6631L255.047 35.1631L265.297 35.1631L250.359 64.1631L250.359 80.6631L240.828 80.6631L240.828 64.1631L225.891 35.1631L236.172 35.1631L245.578 55.6631ZM278.828 80.6631L278.828 64.6319L287.047 64.6319Q295.141 64.6319 299.719 60.7725Q304.297 56.9131 304.297 50.2256Q304.297 45.8194 302.203 42.3663Q300.109 38.9131 296.219 37.0381Q292.328 35.1631 287.203 35.1631L269.453 35.1631L269.453 80.6631L278.828 80.6631ZM338.109 60.9444L320.109 60.9444L320.109 73.1319L341.234 73.1319L341.234 80.6631L310.734 80.6631L310.734 35.1631L341.172 35.1631L341.172 42.7569L320.109 42.7569L320.109 53.6006L338.109 53.6006L338.109 60.9444ZM16.4219 42.7569L16.4219 73.1319L20.9531 73.1319Q26.4531 73.1319 29.3594 69.5381Q32.2656 65.9444 32.3281 59.2569L32.3281 56.8506Q32.3281 49.9131 29.4531 46.335Q26.5781 42.7569 21.0469 42.7569L16.4219 42.7569ZM287.203 57.0381L278.828 57.0381L278.828 42.7569L287.422 42.7569Q290.891 42.8194 292.859 44.8819Q294.828 46.9444 294.828 50.2881Q294.828 53.5381 292.875 55.2881Q290.922 57.0381 287.203 57.0381ZM60.4219 63.6944L71.7969 63.6944L66.0781 46.6631L60.4219 63.6944ZM143.078 63.6944L154.453 63.6944L148.734 46.6631L143.078 63.6944Z" />
      </g>
    </g>
    <g id="sub-types" transform="translate(211.5 592)">
      <g id="Integer" fill="#B8C1EC">
        <path d="M13.1543 57.3281L4.36523 57.3281L4.36523 14.6719L13.1543 14.6719L13.1543 57.3281ZM64.4824 25.6289L64.4824 17.8359L56.0156 17.8359L56.0156 25.6289L51.3867 25.6289L51.3867 31.8398L56.0156 31.8398L56.0156 48.9199Q56.1914 57.9141 65.0977 57.9141Q67.7344 57.9141 70.2246 57.1523L70.2246 50.7363Q69.1406 50.9414 67.7344 50.9414Q65.8301 50.9414 65.1563 50.1797Q64.4824 49.418 64.4824 47.6602L64.4824 31.8398L69.9023 31.8398L69.9023 25.6289L64.4824 25.6289ZM28.5352 25.6289L28.7988 29.291Q32.1973 25.043 37.9102 25.043Q42.9492 25.043 45.4102 28.002Q47.8711 30.9609 47.9297 36.8496L47.9297 57.3281L39.4629 57.3281L39.4629 37.0547Q39.4629 34.3594 38.291 33.1436Q37.1191 31.9277 34.3945 31.9277Q30.8203 31.9277 29.0332 34.9746L29.0332 57.3281L20.5664 57.3281L20.5664 25.6289L28.5352 25.6289ZM89.209 57.9141Q82.2363 57.9141 77.8564 53.6367Q73.4766 49.3594 73.4766 42.2402L73.4766 41.4199Q73.4766 36.6445 75.3223 32.8799Q77.168 29.1152 80.5518 27.0791Q83.9355 25.043 88.2715 25.043Q94.7754 25.043 98.5107 29.1445Q102.246 33.2461 102.246 40.7754L102.246 44.2324L82.0605 44.2324Q82.4707 47.3379 84.5361 49.2129Q86.6016 51.0879 89.7656 51.0879Q94.6582 51.0879 97.4121 47.543L101.572 52.2012Q99.668 54.8965 96.416 56.4053Q93.1641 57.9141 89.209 57.9141ZM109.292 29.4961Q105.82 33.9492 105.82 41.2441L105.82 41.5957Q105.82 48.9785 109.351 53.4463Q112.881 57.9141 118.594 57.9141Q123.369 57.9141 126.299 54.6035L126.299 56.3027Q126.299 59.6133 124.424 61.415Q122.549 63.2168 119.18 63.2168Q114.668 63.2168 111.504 59.6719L107.754 64.8281Q109.453 67.0254 112.764 68.417Q116.074 69.8086 119.561 69.8086Q124.16 69.8086 127.588 68.1973Q131.016 66.5859 132.905 63.5098Q134.795 60.4336 134.795 56.2734L134.795 25.6289L127.119 25.6289L126.768 28.6172Q123.867 25.043 118.652 25.043Q112.764 25.043 109.292 29.4961ZM155.889 57.9141Q148.916 57.9141 144.536 53.6367Q140.156 49.3594 140.156 42.2402L140.156 41.4199Q140.156 36.6445 142.002 32.8799Q143.848 29.1152 147.231 27.0791Q150.615 25.043 154.951 25.043Q161.455 25.043 165.19 29.1445Q168.926 33.2461 168.926 40.7754L168.926 44.2324L148.74 44.2324Q149.15 47.3379 151.216 49.2129Q153.281 51.0879 156.445 51.0879Q161.338 51.0879 164.092 47.543L168.252 52.2012Q166.348 54.8965 163.096 56.4053Q159.844 57.9141 155.889 57.9141ZM188.496 33.334Q189.814 33.334 191.543 33.5684L191.66 25.4238Q190.43 25.043 189.023 25.043Q184.512 25.043 181.963 29.4082L181.729 25.6289L173.73 25.6289L173.73 57.3281L182.197 57.3281L182.197 36.5859Q183.691 33.334 188.496 33.334ZM88.2422 31.8691Q85.7227 31.8691 84.1553 33.5759Q82.5879 35.2827 82.1484 38.4609L93.9258 38.4609L93.9258 37.7839Q93.8672 34.959 92.4023 33.4141Q90.9375 31.8691 88.2422 31.8691ZM154.922 31.8691Q152.402 31.8691 150.835 33.5759Q149.268 35.2827 148.828 38.4609L160.605 38.4609L160.605 37.7839Q160.547 34.959 159.082 33.4141Q157.617 31.8691 154.922 31.8691ZM116.016 48.6379Q114.287 46.188 114.287 41.8745Q114.287 36.916 116.03 34.4219Q117.773 31.9277 120.82 31.9277Q124.6 31.9277 126.299 34.8327L126.299 48.1829Q124.629 51.0879 120.762 51.0879Q117.744 51.0879 116.016 48.6379Z" />
      </g>
      <g id="Character" fill="#B8C1EC" transform="translate(0 124)">
        <path d="M50.7715 29.0859Q54.1406 25.043 59.2383 25.043Q69.5508 25.043 69.6973 37.0254L69.6973 57.3281L61.2305 57.3281L61.2305 37.2598Q61.2305 34.5352 60.0586 33.2314Q58.8867 31.9277 56.1621 31.9277Q52.4414 31.9277 50.7715 34.7988L50.7715 57.3281L42.3047 57.3281L42.3047 12.3281L50.7715 12.3281L50.7715 29.0859ZM37.2949 43.1191Q36.7969 50.0039 32.2119 53.959Q27.627 57.9141 20.127 57.9141Q11.9238 57.9141 7.22168 52.3916Q2.51953 46.8691 2.51953 37.2305L2.51953 34.623Q2.51953 28.4707 4.6875 23.7832Q6.85547 19.0957 10.8838 16.5908Q14.9121 14.0859 20.2441 14.0859Q27.627 14.0859 32.1387 18.041Q36.6504 21.9961 37.3535 29.1445L28.5645 29.1445Q28.2422 25.0137 26.2646 23.1533Q24.2871 21.293 20.2441 21.293Q15.8496 21.293 13.667 24.4424Q11.4844 27.5918 11.4258 34.2129L11.4258 37.4355Q11.4258 44.3496 13.5205 47.543Q15.6152 50.7363 20.127 50.7363Q24.1992 50.7363 26.2061 48.876Q28.2129 47.0156 28.5059 43.1191L37.2949 43.1191ZM203.73 25.6289L203.73 17.8359L195.264 17.8359L195.264 25.6289L190.635 25.6289L190.635 31.8398L195.264 31.8398L195.264 48.9199Q195.439 57.9141 204.346 57.9141Q206.982 57.9141 209.473 57.1523L209.473 50.7363Q208.389 50.9414 206.982 50.9414Q205.078 50.9414 204.404 50.1797Q203.73 49.418 203.73 47.6602L203.73 31.8398L209.15 31.8398L209.15 25.6289L203.73 25.6289ZM93.6035 54.4863Q93.8672 56.1855 94.4531 57.3281L103.008 57.3281L103.008 56.8301Q101.777 54.5156 101.748 50.0039L101.748 36.2637Q101.748 30.9316 98.3057 27.9873Q94.8633 25.043 89.0039 25.043Q85.1367 25.043 82.0313 26.376Q78.9258 27.709 77.2266 30.0527Q75.5273 32.3965 75.5273 35.1504L83.9941 35.1504Q83.9941 33.3633 85.21 32.3379Q86.4258 31.3125 88.5645 31.3125Q90.9961 31.3125 92.124 32.6309Q93.252 33.9492 93.252 36.1465L93.252 37.9629L89.3555 37.9629Q82.2949 37.9922 78.5596 40.6875Q74.8242 43.3828 74.8242 48.4219Q74.8242 52.5234 77.8857 55.2188Q80.9473 57.9141 85.6055 57.9141Q90.5273 57.9141 93.6035 54.4863ZM126.064 33.5684Q124.336 33.334 123.018 33.334Q118.213 33.334 116.719 36.5859L116.719 57.3281L108.252 57.3281L108.252 25.6289L116.25 25.6289L116.484 29.4082Q119.033 25.043 123.545 25.043Q124.951 25.043 126.182 25.4238L126.064 33.5684ZM147.656 54.4863Q147.92 56.1855 148.506 57.3281L157.061 57.3281L157.061 56.8301Q155.83 54.5156 155.801 50.0039L155.801 36.2637Q155.801 30.9316 152.358 27.9873Q148.916 25.043 143.057 25.043Q139.189 25.043 136.084 26.376Q132.979 27.709 131.279 30.0527Q129.58 32.3965 129.58 35.1504L138.047 35.1504Q138.047 33.3633 139.263 32.3379Q140.479 31.3125 142.617 31.3125Q145.049 31.3125 146.177 32.6309Q147.305 33.9492 147.305 36.1465L147.305 37.9629L143.408 37.9629Q136.348 37.9922 132.612 40.6875Q128.877 43.3828 128.877 48.4219Q128.877 52.5234 131.938 55.2188Q135 57.9141 139.658 57.9141Q144.58 57.9141 147.656 54.4863ZM175.488 51.0879Q177.832 51.0879 179.297 49.7988Q180.762 48.5098 180.82 46.3711L188.76 46.3711Q188.73 49.5938 187.002 52.2744Q185.273 54.9551 182.271 56.4346Q179.268 57.9141 175.635 57.9141Q168.838 57.9141 164.912 53.5928Q160.986 49.2715 160.986 41.6543L160.986 41.0977Q160.986 33.7734 164.883 29.4082Q168.779 25.043 175.576 25.043Q181.523 25.043 185.112 28.4268Q188.701 31.8105 188.76 37.4355L180.82 37.4355Q180.762 34.9618 179.297 33.4155Q177.832 31.8691 175.43 31.8691Q172.471 31.8691 170.962 34.0257Q169.453 36.1822 169.453 41.0235L169.453 41.9038Q169.453 46.8041 170.947 48.946Q172.441 51.0879 175.488 51.0879ZM228.457 57.9141Q221.484 57.9141 217.104 53.6367Q212.725 49.3594 212.725 42.2402L212.725 41.4199Q212.725 36.6445 214.57 32.8799Q216.416 29.1152 219.8 27.0791Q223.184 25.043 227.52 25.043Q234.023 25.043 237.759 29.1445Q241.494 33.2461 241.494 40.7754L241.494 44.2324L221.309 44.2324Q221.719 47.3379 223.784 49.2129Q225.85 51.0879 229.014 51.0879Q233.906 51.0879 236.66 47.543L240.82 52.2012Q238.916 54.8965 235.664 56.4053Q232.412 57.9141 228.457 57.9141ZM261.064 33.334Q262.383 33.334 264.111 33.5684L264.229 25.4238Q262.998 25.043 261.592 25.043Q257.08 25.043 254.531 29.4082L254.297 25.6289L246.299 25.6289L246.299 57.3281L254.766 57.3281L254.766 36.5859Q256.26 33.334 261.064 33.334ZM227.49 31.8691Q224.971 31.8691 223.403 33.5759Q221.836 35.2827 221.396 38.4609L233.174 38.4609L233.174 37.7839Q233.115 34.959 231.65 33.4141Q230.186 31.8691 227.49 31.8691ZM90.9082 50.6045Q89.3262 51.4395 87.4512 51.4395Q85.5176 51.4395 84.4043 50.4141Q83.291 49.3887 83.291 47.8066L83.3203 47.3086Q83.7305 42.9141 90.0879 42.9141L93.252 42.9141L93.252 48.3633Q92.4902 49.7695 90.9082 50.6045ZM144.961 50.6045Q143.379 51.4395 141.504 51.4395Q139.57 51.4395 138.457 50.4141Q137.344 49.3887 137.344 47.8066L137.373 47.3086Q137.783 42.9141 144.141 42.9141L147.305 42.9141L147.305 48.3633Q146.543 49.7695 144.961 50.6045Z" />
      </g>
      <g id="Boolean" fill="#B8C1EC" transform="translate(0 248)">
        <path d="M118.33 57.3281L109.834 57.3281L109.834 12.3281L118.33 12.3281L118.33 57.3281ZM3.80859 57.3281L3.80859 14.6719L18.75 14.6719Q26.5137 14.6719 30.5273 17.6455Q34.541 20.6191 34.541 26.3613Q34.541 29.4961 32.9297 31.8838Q31.3184 34.2715 28.4473 35.3848Q31.7285 36.2051 33.6182 38.6953Q35.5078 41.1855 35.5078 44.7891Q35.5078 50.9414 31.582 54.1055Q27.6562 57.2695 20.3906 57.3281L3.80859 57.3281ZM12.5977 32.543L19.1016 32.543Q25.7519 32.4258 25.752 27.2402Q25.7519 24.3398 24.0674 23.0654Q22.3828 21.791 18.75 21.791L12.5977 21.791L12.5977 32.543ZM40.2246 41.1855Q40.2246 36.4688 42.041 32.7773Q43.8574 29.0859 47.2705 27.0645Q50.6836 25.043 55.1953 25.043Q61.6113 25.043 65.6689 28.9688Q69.7266 32.8945 70.1953 39.6328L70.2539 41.8008Q70.2539 49.0957 66.1816 53.5049Q62.1094 57.9141 55.2539 57.9141Q48.3984 57.9141 44.3115 53.5195Q40.2246 49.125 40.2246 41.5664L40.2246 41.1855ZM75.9668 32.7773Q74.1504 36.4688 74.1504 41.1855L74.1504 41.5664Q74.1504 49.125 78.2373 53.5195Q82.3242 57.9141 89.1797 57.9141Q96.0352 57.9141 100.107 53.5049Q104.18 49.0957 104.18 41.8008L104.121 39.6328Q103.652 32.8945 99.5947 28.9688Q95.5371 25.043 89.1211 25.043Q84.6094 25.043 81.1963 27.0645Q77.7832 29.0859 75.9668 32.7773ZM128.54 53.6367Q132.92 57.9141 139.893 57.9141Q143.848 57.9141 147.1 56.4053Q150.352 54.8965 152.256 52.2012L148.096 47.543Q145.342 51.0879 140.449 51.0879Q137.285 51.0879 135.22 49.2129Q133.154 47.3379 132.744 44.2324L152.93 44.2324L152.93 40.7754Q152.93 33.2461 149.194 29.1445Q145.459 25.043 138.955 25.043Q134.619 25.043 131.235 27.0791Q127.852 29.1152 126.006 32.8799Q124.16 36.6445 124.16 41.4199L124.16 42.2402Q124.16 49.3594 128.54 53.6367ZM176.104 57.3281Q175.518 56.1855 175.254 54.4863Q172.178 57.9141 167.256 57.9141Q162.598 57.9141 159.536 55.2188Q156.475 52.5234 156.475 48.4219Q156.475 43.3828 160.21 40.6875Q163.945 37.9922 171.006 37.9629L174.902 37.9629L174.902 36.1465Q174.902 33.9492 173.774 32.6309Q172.646 31.3125 170.215 31.3125Q168.076 31.3125 166.86 32.3379Q165.645 33.3633 165.645 35.1504L157.178 35.1504Q157.178 32.3965 158.877 30.0527Q160.576 27.709 163.682 26.376Q166.787 25.043 170.654 25.043Q176.514 25.043 179.956 27.9873Q183.398 30.9316 183.398 36.2637L183.398 50.0039Q183.428 54.5156 184.658 56.8301L184.658 57.3281L176.104 57.3281ZM197.959 29.291L197.695 25.6289L189.727 25.6289L189.727 57.3281L198.193 57.3281L198.193 34.9746Q199.98 31.9277 203.555 31.9277Q206.279 31.9277 207.451 33.1436Q208.623 34.3594 208.623 37.0547L208.623 57.3281L217.09 57.3281L217.09 36.8496Q217.031 30.9609 214.57 28.002Q212.109 25.043 207.07 25.043Q201.357 25.043 197.959 29.291ZM48.6914 41.7866Q48.6914 46.3052 50.3906 48.6965Q52.0898 51.0879 55.2539 51.0879Q58.3301 51.0879 60.0586 48.7258Q61.7871 46.3638 61.7871 41.1704Q61.7871 36.7397 60.0586 34.3044Q58.3301 31.8691 55.1953 31.8691Q52.0898 31.8691 50.3906 34.2898Q48.6914 36.7104 48.6914 41.7866ZM84.3164 48.6965Q82.6172 46.3052 82.6172 41.7866Q82.6172 36.7104 84.3164 34.2898Q86.0156 31.8691 89.1211 31.8691Q92.2559 31.8691 93.9844 34.3044Q95.7129 36.7397 95.7129 41.1704Q95.7129 46.3638 93.9844 48.7258Q92.2559 51.0879 89.1797 51.0879Q86.0156 51.0879 84.3164 48.6965ZM134.839 33.5759Q136.406 31.8691 138.926 31.8691Q141.621 31.8691 143.086 33.4141Q144.551 34.959 144.609 37.7839L144.609 38.4609L132.832 38.4609Q133.271 35.2827 134.839 33.5759ZM12.5977 38.7539L12.5977 50.2676L20.127 50.2676Q23.2324 50.2676 24.9756 48.7881Q26.7187 47.3086 26.7188 44.7012Q26.7187 38.8418 20.6543 38.7539L12.5977 38.7539ZM169.102 51.4395Q170.977 51.4395 172.559 50.6045Q174.141 49.7695 174.902 48.3633L174.902 42.9141L171.738 42.9141Q165.381 42.9141 164.971 47.3086L164.941 47.8066Q164.941 49.3887 166.055 50.4141Q167.168 51.4395 169.102 51.4395Z" />
      </g>
      <g id="Float" fill="#B8C1EC" transform="translate(0 356)">
        <path d="M45.0586 57.3281L36.5625 57.3281L36.5625 12.3281L45.0586 12.3281L45.0586 57.3281ZM29.4727 39.8965L12.5977 39.8965L12.5977 57.3281L3.80859 57.3281L3.80859 14.6719L31.582 14.6719L31.582 21.791L12.5977 21.791L12.5977 32.8066L29.4727 32.8066L29.4727 39.8965ZM128.262 25.6289L128.262 17.8359L119.795 17.8359L119.795 25.6289L115.166 25.6289L115.166 31.8398L119.795 31.8398L119.795 48.9199Q119.971 57.9141 128.877 57.9141Q131.514 57.9141 134.004 57.1523L134.004 50.7363Q132.92 50.9414 131.514 50.9414Q129.609 50.9414 128.936 50.1797Q128.262 49.418 128.262 47.6602L128.262 31.8398L133.682 31.8398L133.682 25.6289L128.262 25.6289ZM52.5293 32.7773Q50.7129 36.4688 50.7129 41.1855L50.7129 41.5664Q50.7129 49.125 54.7998 53.5195Q58.8867 57.9141 65.7422 57.9141Q72.5977 57.9141 76.6699 53.5049Q80.7422 49.0957 80.7422 41.8008L80.6836 39.6328Q80.2148 32.8945 76.1572 28.9688Q72.0996 25.043 65.6836 25.043Q61.1719 25.043 57.7588 27.0645Q54.3457 29.0859 52.5293 32.7773ZM104.326 57.3281Q103.74 56.1855 103.477 54.4863Q100.4 57.9141 95.4785 57.9141Q90.8203 57.9141 87.7588 55.2188Q84.6973 52.5234 84.6973 48.4219Q84.6973 43.3828 88.4326 40.6875Q92.168 37.9922 99.2285 37.9629L103.125 37.9629L103.125 36.1465Q103.125 33.9492 101.997 32.6309Q100.869 31.3125 98.4375 31.3125Q96.2988 31.3125 95.083 32.3379Q93.8672 33.3633 93.8672 35.1504L85.4004 35.1504Q85.4004 32.3965 87.0996 30.0527Q88.7988 27.709 91.9043 26.376Q95.0098 25.043 98.877 25.043Q104.736 25.043 108.179 27.9873Q111.621 30.9316 111.621 36.2637L111.621 50.0039Q111.65 54.5156 112.881 56.8301L112.881 57.3281L104.326 57.3281ZM60.8789 48.6965Q59.1797 46.3052 59.1797 41.7866Q59.1797 36.7104 60.8789 34.2898Q62.5781 31.8691 65.6836 31.8691Q68.8184 31.8691 70.5469 34.3044Q72.2754 36.7397 72.2754 41.1704Q72.2754 46.3638 70.5469 48.7258Q68.8184 51.0879 65.7422 51.0879Q62.5781 51.0879 60.8789 48.6965ZM97.3242 51.4395Q99.1992 51.4395 100.781 50.6045Q102.363 49.7695 103.125 48.3633L103.125 42.9141L99.9609 42.9141Q93.6035 42.9141 93.1934 47.3086L93.1641 47.8066Q93.1641 49.3887 94.2773 50.4141Q95.3906 51.4395 97.3242 51.4395Z" />
      </g>
      <g id="Function" fill="#B8C1EC" transform="translate(615 0)">
        <path d="M156.079 14.291Q154.805 15.5215 154.805 17.4258Q154.805 19.3594 156.108 20.5898Q157.412 21.8203 159.551 21.8203Q161.689 21.8203 162.993 20.5898Q164.297 19.3594 164.297 17.4258Q164.297 15.5215 163.008 14.291Q161.719 13.0605 159.551 13.0605Q157.354 13.0605 156.079 14.291ZM12.5977 39.8965L29.4727 39.8965L29.4727 32.8066L12.5977 32.8066L12.5977 21.791L31.582 21.791L31.582 14.6719L3.80859 14.6719L3.80859 57.3281L12.5977 57.3281L12.5977 39.8965ZM144.727 17.8359L144.727 25.6289L150.146 25.6289L150.146 31.8398L144.727 31.8398L144.727 47.6602Q144.727 49.418 145.4 50.1797Q146.074 50.9414 147.979 50.9414Q149.385 50.9414 150.469 50.7363L150.469 57.1523Q147.979 57.9141 145.342 57.9141Q136.436 57.9141 136.26 48.9199L136.26 31.8398L131.631 31.8398L131.631 25.6289L136.26 25.6289L136.26 17.8359L144.727 17.8359ZM77.4902 25.6289L77.7539 29.291Q81.1523 25.043 86.8652 25.043Q91.9043 25.043 94.3652 28.002Q96.8262 30.9609 96.8848 36.8496L96.8848 57.3281L88.418 57.3281L88.418 37.0547Q88.418 34.3594 87.2461 33.1436Q86.0742 31.9277 83.3496 31.9277Q79.7754 31.9277 77.9883 34.9746L77.9883 57.3281L69.5215 57.3281L69.5215 25.6289L77.4902 25.6289ZM120.293 49.7988Q118.828 51.0879 116.484 51.0879Q113.438 51.0879 111.943 48.946Q110.449 46.8041 110.449 41.9038L110.449 41.0235Q110.449 36.1822 111.958 34.0257Q113.467 31.8691 116.426 31.8691Q118.828 31.8691 120.293 33.4155Q121.758 34.9618 121.816 37.4355L129.756 37.4355Q129.697 31.8105 126.108 28.4268Q122.52 25.043 116.572 25.043Q109.775 25.043 105.879 29.4082Q101.982 33.7734 101.982 41.0977L101.982 41.6543Q101.982 49.2715 105.908 53.5928Q109.834 57.9141 116.631 57.9141Q120.264 57.9141 123.267 56.4346Q126.27 54.9551 127.998 52.2744Q129.727 49.5938 129.756 46.3711L121.816 46.3711Q121.758 48.5098 120.293 49.7988ZM169.453 41.1855Q169.453 36.4688 171.27 32.7773Q173.086 29.0859 176.499 27.0645Q179.912 25.043 184.424 25.043Q190.84 25.043 194.897 28.9688Q198.955 32.8945 199.424 39.6328L199.482 41.8008Q199.482 49.0957 195.41 53.5049Q191.338 57.9141 184.482 57.9141Q177.627 57.9141 173.54 53.5195Q169.453 49.125 169.453 41.5664L169.453 41.1855ZM212.754 29.291L212.49 25.6289L204.521 25.6289L204.521 57.3281L212.988 57.3281L212.988 34.9746Q214.775 31.9277 218.35 31.9277Q221.074 31.9277 222.246 33.1436Q223.418 34.3594 223.418 37.0547L223.418 57.3281L231.885 57.3281L231.885 36.8496Q231.826 30.9609 229.365 28.002Q226.904 25.043 221.865 25.043Q216.152 25.043 212.754 29.291ZM46.4355 57.9141Q51.9727 57.9141 55.1074 54.1055L55.3418 57.3281L63.3105 57.3281L63.3105 25.6289L54.8145 25.6289L54.8145 48.0959Q53.2031 51.0879 48.8965 51.0879Q44.3848 51.0879 44.3848 46.1312L44.3848 25.6289L35.918 25.6289L35.918 46.4004Q35.9766 52.0547 38.6572 54.9844Q41.3379 57.9141 46.4355 57.9141ZM155.303 25.6289L155.303 57.3281L163.799 57.3281L163.799 25.6289L155.303 25.6289ZM177.92 41.7866Q177.92 46.3052 179.619 48.6965Q181.318 51.0879 184.482 51.0879Q187.559 51.0879 189.287 48.7258Q191.016 46.3638 191.016 41.1704Q191.016 36.7397 189.287 34.3044Q187.559 31.8691 184.424 31.8691Q181.318 31.8691 179.619 34.2898Q177.92 36.7104 177.92 41.7866Z" />
      </g>
      <g id="Array" fill="#B8C1EC" transform="translate(615 124)">
        <path d="M27.8906 48.5391L12.4805 48.5391L9.55078 57.3281L0.205078 57.3281L16.084 14.6719L24.2285 14.6719L40.1953 57.3281L30.8496 57.3281L27.8906 48.5391ZM61.4355 33.5684Q59.707 33.334 58.3887 33.334Q53.584 33.334 52.0898 36.5859L52.0898 57.3281L43.623 57.3281L43.623 25.6289L51.6211 25.6289L51.8555 29.4082Q54.4043 25.043 58.916 25.043Q60.3223 25.043 61.5527 25.4238L61.4355 33.5684ZM80.2734 33.334Q81.5918 33.334 83.3203 33.5684L83.4375 25.4238Q82.207 25.043 80.8008 25.043Q76.2891 25.043 73.7402 29.4082L73.5059 25.6289L65.5078 25.6289L65.5078 57.3281L73.9746 57.3281L73.9746 36.5859Q75.4688 33.334 80.2734 33.334ZM105.762 57.3281Q105.176 56.1855 104.912 54.4863Q101.836 57.9141 96.9141 57.9141Q92.2559 57.9141 89.1943 55.2188Q86.1328 52.5234 86.1328 48.4219Q86.1328 43.3828 89.8682 40.6875Q93.6035 37.9922 100.664 37.9629L104.561 37.9629L104.561 36.1465Q104.561 33.9492 103.433 32.6309Q102.305 31.3125 99.873 31.3125Q97.7344 31.3125 96.5186 32.3379Q95.3027 33.3633 95.3027 35.1504L86.8359 35.1504Q86.8359 32.3965 88.5352 30.0527Q90.2344 27.709 93.3398 26.376Q96.4453 25.043 100.313 25.043Q106.172 25.043 109.614 27.9873Q113.057 30.9316 113.057 36.2637L113.057 50.0039Q113.086 54.5156 114.316 56.8301L114.316 57.3281L105.762 57.3281ZM14.8535 41.4199L25.5176 41.4199L20.1563 25.4531L14.8535 41.4199ZM137.256 25.6289L131.396 45.3457L125.508 25.6289L116.396 25.6289L127.5 57.416L126.504 60.0234Q125.83 61.7227 124.644 62.4551Q123.457 63.1875 121.055 63.1875L119.766 63.1582L119.766 69.5742Q121.67 70.1309 123.516 70.1309Q130.049 70.1309 132.891 63.9199L133.594 62.25L146.338 25.6289L137.256 25.6289ZM98.7598 51.4395Q100.635 51.4395 102.217 50.6045Q103.799 49.7695 104.561 48.3633L104.561 42.9141L101.396 42.9141Q95.0391 42.9141 94.6289 47.3086L94.5996 47.8066Q94.5996 49.3887 95.7129 50.4141Q96.8262 51.4395 98.7598 51.4395Z" />
      </g>
      <g id="Pointer" fill="#B8C1EC" transform="translate(615 248)">
        <path d="M77.0947 14.291Q75.8203 15.5215 75.8203 17.4258Q75.8203 19.3594 77.124 20.5898Q78.4277 21.8203 80.5664 21.8203Q82.7051 21.8203 84.0088 20.5898Q85.3125 19.3594 85.3125 17.4258Q85.3125 15.5215 84.0234 14.291Q82.7344 13.0605 80.5664 13.0605Q78.3691 13.0605 77.0947 14.291ZM12.5977 42.2988L12.5977 57.3281L3.80859 57.3281L3.80859 14.6719L20.4492 14.6719Q25.2539 14.6719 28.9014 16.4297Q32.5488 18.1875 34.5117 21.4248Q36.4746 24.6621 36.4746 28.793Q36.4746 35.0625 32.1826 38.6807Q27.8906 42.2988 20.3027 42.2988L12.5977 42.2988ZM135.527 25.6289L135.527 17.8359L127.061 17.8359L127.061 25.6289L122.432 25.6289L122.432 31.8398L127.061 31.8398L127.061 48.9199Q127.236 57.9141 136.143 57.9141Q138.779 57.9141 141.27 57.1523L141.27 50.7363Q140.186 50.9414 138.779 50.9414Q136.875 50.9414 136.201 50.1797Q135.527 49.418 135.527 47.6602L135.527 31.8398L140.947 31.8398L140.947 25.6289L135.527 25.6289ZM12.5977 35.1797L20.4492 35.1797Q23.9355 35.1797 25.7666 33.5391Q27.5977 31.8984 27.5977 28.8516Q27.5977 25.7168 25.752 23.7832Q23.9062 21.8496 20.6543 21.791L12.5977 21.791L12.5977 35.1797ZM40.6348 41.1855Q40.6348 36.4688 42.4512 32.7773Q44.2676 29.0859 47.6807 27.0645Q51.0938 25.043 55.6055 25.043Q62.0215 25.043 66.0791 28.9688Q70.1367 32.8945 70.6055 39.6328L70.6641 41.8008Q70.6641 49.0957 66.5918 53.5049Q62.5195 57.9141 55.6641 57.9141Q48.8086 57.9141 44.7217 53.5195Q40.6348 49.125 40.6348 41.5664L40.6348 41.1855ZM99.5801 25.6289L99.8438 29.291Q103.242 25.043 108.955 25.043Q113.994 25.043 116.455 28.002Q118.916 30.9609 118.975 36.8496L118.975 57.3281L110.508 57.3281L110.508 37.0547Q110.508 34.3594 109.336 33.1436Q108.164 31.9277 105.439 31.9277Q101.865 31.9277 100.078 34.9746L100.078 57.3281L91.6113 57.3281L91.6113 25.6289L99.5801 25.6289ZM160.254 57.9141Q153.281 57.9141 148.901 53.6367Q144.521 49.3594 144.521 42.2402L144.521 41.4199Q144.521 36.6445 146.367 32.8799Q148.213 29.1152 151.597 27.0791Q154.98 25.043 159.316 25.043Q165.82 25.043 169.556 29.1445Q173.291 33.2461 173.291 40.7754L173.291 44.2324L153.105 44.2324Q153.516 47.3379 155.581 49.2129Q157.646 51.0879 160.811 51.0879Q165.703 51.0879 168.457 47.543L172.617 52.2012Q170.713 54.8965 167.461 56.4053Q164.209 57.9141 160.254 57.9141ZM192.861 33.334Q194.18 33.334 195.908 33.5684L196.025 25.4238Q194.795 25.043 193.389 25.043Q188.877 25.043 186.328 29.4082L186.094 25.6289L178.096 25.6289L178.096 57.3281L186.563 57.3281L186.563 36.5859Q188.057 33.334 192.861 33.334ZM76.3184 25.6289L76.3184 57.3281L84.8145 57.3281L84.8145 25.6289L76.3184 25.6289ZM49.1016 41.7866Q49.1016 46.3052 50.8008 48.6965Q52.5 51.0879 55.6641 51.0879Q58.7402 51.0879 60.4688 48.7258Q62.1973 46.3638 62.1973 41.1704Q62.1973 36.7397 60.4688 34.3044Q58.7402 31.8691 55.6055 31.8691Q52.5 31.8691 50.8008 34.2898Q49.1016 36.7104 49.1016 41.7866ZM159.287 31.8691Q156.768 31.8691 155.2 33.5759Q153.633 35.2827 153.193 38.4609L164.971 38.4609L164.971 37.7839Q164.912 34.959 163.447 33.4141Q161.982 31.8691 159.287 31.8691Z" />
      </g>
      <g id="Reference" fill="#B8C1EC" transform="translate(615 356)">
        <path d="M76.2891 31.8398L76.2891 57.3281L84.7852 57.3281L84.7852 31.8398L91.084 31.8398L91.084 25.6289L84.7852 25.6289L84.7852 23.0801Q84.7852 18.5977 89.5605 18.5977Q91.084 18.5977 92.1387 18.8613L92.2266 12.2988Q89.6777 11.7129 87.9199 11.7129Q82.4121 11.7129 79.3506 14.6572Q76.2891 17.6016 76.2891 22.9336L76.2891 25.6289L71.5723 25.6289L71.5723 31.8398L76.2891 31.8398ZM19.5996 41.7129L12.5977 41.7129L12.5977 57.3281L3.80859 57.3281L3.80859 14.6719L19.6582 14.6719Q27.2168 14.6719 31.3184 18.041Q35.4199 21.4102 35.4199 27.5625Q35.4199 31.9277 33.5303 34.8428Q31.6406 37.7578 27.8027 39.4863L37.0313 56.918L37.0313 57.3281L27.5977 57.3281L19.5996 41.7129ZM12.5977 34.5938L19.6875 34.5938Q22.998 34.5938 24.8145 32.9092Q26.6309 31.2246 26.6309 28.2656Q26.6309 25.248 24.917 23.5195Q23.2031 21.791 19.6582 21.791L12.5977 21.791L12.5977 34.5938ZM56.1328 57.9141Q49.1602 57.9141 44.7803 53.6367Q40.4004 49.3594 40.4004 42.2402L40.4004 41.4199Q40.4004 36.6445 42.2461 32.8799Q44.0918 29.1152 47.4756 27.0791Q50.8594 25.043 55.1953 25.043Q61.6992 25.043 65.4346 29.1445Q69.1699 33.2461 69.1699 40.7754L69.1699 44.2324L48.9844 44.2324Q49.3945 47.3379 51.46 49.2129Q53.5254 51.0879 56.6895 51.0879Q61.582 51.0879 64.3359 47.543L68.4961 52.2012Q66.5918 54.8965 63.3398 56.4053Q60.0879 57.9141 56.1328 57.9141ZM110.068 57.9141Q103.096 57.9141 98.7158 53.6367Q94.3359 49.3594 94.3359 42.2402L94.3359 41.4199Q94.3359 36.6445 96.1816 32.8799Q98.0273 29.1152 101.411 27.0791Q104.795 25.043 109.131 25.043Q115.635 25.043 119.37 29.1445Q123.105 33.2461 123.105 40.7754L123.105 44.2324L102.92 44.2324Q103.33 47.3379 105.396 49.2129Q107.461 51.0879 110.625 51.0879Q115.518 51.0879 118.271 47.543L122.432 52.2012Q120.527 54.8965 117.275 56.4053Q114.023 57.9141 110.068 57.9141ZM142.676 33.334Q143.994 33.334 145.723 33.5684L145.84 25.4238Q144.609 25.043 143.203 25.043Q138.691 25.043 136.143 29.4082L135.908 25.6289L127.91 25.6289L127.91 57.3281L136.377 57.3281L136.377 36.5859Q137.871 33.334 142.676 33.334ZM164.385 57.9141Q157.412 57.9141 153.032 53.6367Q148.652 49.3594 148.652 42.2402L148.652 41.4199Q148.652 36.6445 150.498 32.8799Q152.344 29.1152 155.728 27.0791Q159.111 25.043 163.447 25.043Q169.951 25.043 173.687 29.1445Q177.422 33.2461 177.422 40.7754L177.422 44.2324L157.236 44.2324Q157.646 47.3379 159.712 49.2129Q161.777 51.0879 164.941 51.0879Q169.834 51.0879 172.588 47.543L176.748 52.2012Q174.844 54.8965 171.592 56.4053Q168.34 57.9141 164.385 57.9141ZM190.283 29.291L190.02 25.6289L182.051 25.6289L182.051 57.3281L190.518 57.3281L190.518 34.9746Q192.305 31.9277 195.879 31.9277Q198.604 31.9277 199.775 33.1436Q200.947 34.3594 200.947 37.0547L200.947 57.3281L209.414 57.3281L209.414 36.8496Q209.355 30.9609 206.895 28.002Q204.434 25.043 199.395 25.043Q193.682 25.043 190.283 29.291ZM229.014 51.0879Q231.357 51.0879 232.822 49.7988Q234.287 48.5098 234.346 46.3711L242.285 46.3711Q242.256 49.5938 240.527 52.2744Q238.799 54.9551 235.796 56.4346Q232.793 57.9141 229.16 57.9141Q222.363 57.9141 218.438 53.5928Q214.512 49.2715 214.512 41.6543L214.512 41.0977Q214.512 33.7734 218.408 29.4082Q222.305 25.043 229.102 25.043Q235.049 25.043 238.638 28.4268Q242.227 31.8105 242.285 37.4355L234.346 37.4355Q234.287 34.9618 232.822 33.4155Q231.357 31.8691 228.955 31.8691Q225.996 31.8691 224.487 34.0257Q222.979 36.1822 222.979 41.0235L222.979 41.9038Q222.979 46.8041 224.473 48.946Q225.967 51.0879 229.014 51.0879ZM250.356 53.6367Q254.736 57.9141 261.709 57.9141Q265.664 57.9141 268.916 56.4053Q272.168 54.8965 274.072 52.2012L269.912 47.543Q267.158 51.0879 262.266 51.0879Q259.102 51.0879 257.036 49.2129Q254.971 47.3379 254.561 44.2324L274.746 44.2324L274.746 40.7754Q274.746 33.2461 271.011 29.1445Q267.275 25.043 260.771 25.043Q256.436 25.043 253.052 27.0791Q249.668 29.1152 247.822 32.8799Q245.977 36.6445 245.977 41.4199L245.977 42.2402Q245.977 49.3594 250.356 53.6367ZM55.166 31.8691Q52.6465 31.8691 51.0791 33.5759Q49.5117 35.2827 49.0723 38.4609L60.8496 38.4609L60.8496 37.7839Q60.791 34.959 59.3262 33.4141Q57.8613 31.8691 55.166 31.8691ZM109.102 31.8691Q106.582 31.8691 105.015 33.5759Q103.447 35.2827 103.008 38.4609L114.785 38.4609L114.785 37.7839Q114.727 34.959 113.262 33.4141Q111.797 31.8691 109.102 31.8691ZM163.418 31.8691Q160.898 31.8691 159.331 33.5759Q157.764 35.2827 157.324 38.4609L169.102 38.4609L169.102 37.7839Q169.043 34.959 167.578 33.4141Q166.113 31.8691 163.418 31.8691ZM256.655 33.5759Q258.223 31.8691 260.742 31.8691Q263.438 31.8691 264.902 33.4141Q266.367 34.959 266.426 37.7839L266.426 38.4609L254.648 38.4609Q255.088 35.2827 256.655 33.5759Z" />
      </g>
      <g id="Class" fill="#B8C1EC" transform="translate(1225 0)">
        <path d="M51.4453 57.3281L42.9492 57.3281L42.9492 12.3281L51.4453 12.3281L51.4453 57.3281ZM37.2949 43.1191Q36.7969 50.0039 32.2119 53.959Q27.627 57.9141 20.127 57.9141Q11.9238 57.9141 7.22168 52.3916Q2.51953 46.8691 2.51953 37.2305L2.51953 34.623Q2.51953 28.4707 4.6875 23.7832Q6.85547 19.0957 10.8838 16.5908Q14.9121 14.0859 20.2441 14.0859Q27.627 14.0859 32.1387 18.041Q36.6504 21.9961 37.3535 29.1445L28.5645 29.1445Q28.2422 25.0137 26.2646 23.1533Q24.2871 21.293 20.2441 21.293Q15.8496 21.293 13.667 24.4424Q11.4844 27.5918 11.4258 34.2129L11.4258 37.4355Q11.4258 44.3496 13.5205 47.543Q15.6152 50.7363 20.127 50.7363Q24.1992 50.7363 26.2061 48.876Q28.2129 47.0156 28.5059 43.1191L37.2949 43.1191ZM75.9375 54.4863Q76.2012 56.1855 76.7871 57.3281L85.3418 57.3281L85.3418 56.8301Q84.1113 54.5156 84.082 50.0039L84.082 36.2637Q84.082 30.9316 80.6396 27.9873Q77.1973 25.043 71.3379 25.043Q67.4707 25.043 64.3652 26.376Q61.2598 27.709 59.5605 30.0527Q57.8613 32.3965 57.8613 35.1504L66.3281 35.1504Q66.3281 33.3633 67.5439 32.3379Q68.7598 31.3125 70.8984 31.3125Q73.3301 31.3125 74.458 32.6309Q75.5859 33.9492 75.5859 36.1465L75.5859 37.9629L71.6895 37.9629Q64.6289 37.9922 60.8936 40.6875Q57.1582 43.3828 57.1582 48.4219Q57.1582 52.5234 60.2197 55.2188Q63.2813 57.9141 67.9395 57.9141Q72.8613 57.9141 75.9375 54.4863ZM107.754 48.5684Q107.754 47.0156 106.216 46.1221Q104.678 45.2285 101.279 44.5254Q89.9707 42.1523 89.9707 34.916Q89.9707 30.6973 93.4717 27.8701Q96.9727 25.043 102.627 25.043Q108.662 25.043 112.28 27.8848Q115.898 30.7266 115.898 35.2676L107.432 35.2676Q107.432 33.4512 106.26 32.2646Q105.088 31.0781 102.598 31.0781Q100.459 31.0781 99.2871 32.0449Q98.1152 33.0117 98.1152 34.5059Q98.1152 35.9121 99.4482 36.7764Q100.781 37.6406 103.945 38.2705Q107.109 38.9004 109.277 39.6914Q115.986 42.1523 115.986 48.2168Q115.986 52.5527 112.266 55.2334Q108.545 57.9141 102.656 57.9141Q98.6719 57.9141 95.5811 56.4932Q92.4902 55.0723 90.7324 52.5967Q88.9746 50.1211 88.9746 47.25L97.002 47.25Q97.1191 49.5059 98.6719 50.707Q100.225 51.9082 102.832 51.9082Q105.264 51.9082 106.509 50.9854Q107.754 50.0625 107.754 48.5684ZM137.065 46.1221Q138.604 47.0156 138.604 48.5684Q138.604 50.0625 137.358 50.9854Q136.113 51.9082 133.682 51.9082Q131.074 51.9082 129.521 50.707Q127.969 49.5059 127.852 47.25L119.824 47.25Q119.824 50.1211 121.582 52.5967Q123.34 55.0723 126.431 56.4932Q129.521 57.9141 133.506 57.9141Q139.395 57.9141 143.115 55.2334Q146.836 52.5527 146.836 48.2168Q146.836 42.1523 140.127 39.6914Q137.959 38.9004 134.795 38.2705Q131.631 37.6406 130.298 36.7764Q128.965 35.9121 128.965 34.5059Q128.965 33.0117 130.137 32.0449Q131.309 31.0781 133.447 31.0781Q135.938 31.0781 137.109 32.2646Q138.281 33.4512 138.281 35.2676L146.748 35.2676Q146.748 30.7266 143.13 27.8848Q139.512 25.043 133.477 25.043Q127.822 25.043 124.321 27.8701Q120.82 30.6973 120.82 34.916Q120.82 42.1523 132.129 44.5254Q135.527 45.2285 137.065 46.1221ZM73.2422 50.6045Q71.6602 51.4395 69.7852 51.4395Q67.8516 51.4395 66.7383 50.4141Q65.625 49.3887 65.625 47.8066L65.6543 47.3086Q66.0645 42.9141 72.4219 42.9141L75.5859 42.9141L75.5859 48.3633Q74.8242 49.7695 73.2422 50.6045Z" />
      </g>
      <g id="Structure" fill="#B8C1EC" transform="translate(1225 124)">
        <path d="M25.9277 46.1367Q25.9277 43.6465 24.1699 42.3135Q22.4121 40.9805 17.8418 39.501Q13.2715 38.0215 10.6055 36.5859Q3.33984 32.6602 3.33984 26.0098Q3.33984 22.5527 5.28809 19.8428Q7.23633 17.1328 10.8838 15.6094Q14.5313 14.0859 19.0723 14.0859Q23.6426 14.0859 27.2168 15.7412Q30.791 17.3965 32.7686 20.4141Q34.7461 23.4316 34.7461 27.2695L25.957 27.2695Q25.957 24.3398 24.1113 22.7139Q22.2656 21.0879 18.9258 21.0879Q15.7031 21.0879 13.916 22.4502Q12.1289 23.8125 12.1289 26.0391Q12.1289 28.1191 14.2236 29.5254Q16.3184 30.9316 20.3906 32.1621Q27.8906 34.418 31.3184 37.7578Q34.7461 41.0977 34.7461 46.0781Q34.7461 51.6152 30.5566 54.7646Q26.3672 57.9141 19.2773 57.9141Q14.3555 57.9141 10.3125 56.1123Q6.26953 54.3105 4.14551 51.1758Q2.02148 48.041 2.02148 43.9102L10.8398 43.9102Q10.8398 50.9707 19.2773 50.9707Q22.4121 50.9707 24.1699 49.6963Q25.9277 48.4219 25.9277 46.1367ZM50.2734 17.8359L50.2734 25.6289L55.6934 25.6289L55.6934 31.8398L50.2734 31.8398L50.2734 47.6602Q50.2734 49.418 50.9473 50.1797Q51.6211 50.9414 53.5254 50.9414Q54.9316 50.9414 56.0156 50.7363L56.0156 57.1523Q53.5254 57.9141 50.8887 57.9141Q41.9824 57.9141 41.8066 48.9199L41.8066 31.8398L37.1777 31.8398L37.1777 25.6289L41.8066 25.6289L41.8066 17.8359L50.2734 17.8359ZM157.295 17.8359L157.295 25.6289L162.715 25.6289L162.715 31.8398L157.295 31.8398L157.295 47.6602Q157.295 49.418 157.969 50.1797Q158.643 50.9414 160.547 50.9414Q161.953 50.9414 163.037 50.7363L163.037 57.1523Q160.547 57.9141 157.91 57.9141Q149.004 57.9141 148.828 48.9199L148.828 31.8398L144.199 31.8398L144.199 25.6289L148.828 25.6289L148.828 17.8359L157.295 17.8359ZM75.1758 33.334Q76.4941 33.334 78.2227 33.5684L78.3398 25.4238Q77.1094 25.043 75.7031 25.043Q71.1914 25.043 68.6426 29.4082L68.4082 25.6289L60.4102 25.6289L60.4102 57.3281L68.877 57.3281L68.877 36.5859Q70.3711 33.334 75.1758 33.334ZM132.861 49.7988Q131.396 51.0879 129.053 51.0879Q126.006 51.0879 124.512 48.946Q123.018 46.8041 123.018 41.9038L123.018 41.0235Q123.018 36.1822 124.526 34.0257Q126.035 31.8691 128.994 31.8691Q131.396 31.8691 132.861 33.4155Q134.326 34.9618 134.385 37.4355L142.324 37.4355Q142.266 31.8105 138.677 28.4268Q135.088 25.043 129.141 25.043Q122.344 25.043 118.447 29.4082Q114.551 33.7734 114.551 41.0977L114.551 41.6543Q114.551 49.2715 118.477 53.5928Q122.402 57.9141 129.199 57.9141Q132.832 57.9141 135.835 56.4346Q138.838 54.9551 140.566 52.2744Q142.295 49.5938 142.324 46.3711L134.385 46.3711Q134.326 48.5098 132.861 49.7988ZM218.818 33.5684Q217.09 33.334 215.771 33.334Q210.967 33.334 209.473 36.5859L209.473 57.3281L201.006 57.3281L201.006 25.6289L209.004 25.6289L209.238 29.4082Q211.787 25.043 216.299 25.043Q217.705 25.043 218.936 25.4238L218.818 33.5684ZM226.128 53.6367Q230.508 57.9141 237.48 57.9141Q241.436 57.9141 244.688 56.4053Q247.939 54.8965 249.844 52.2012L245.684 47.543Q242.93 51.0879 238.037 51.0879Q234.873 51.0879 232.808 49.2129Q230.742 47.3379 230.332 44.2324L250.518 44.2324L250.518 40.7754Q250.518 33.2461 246.782 29.1445Q243.047 25.043 236.543 25.043Q232.207 25.043 228.823 27.0791Q225.439 29.1152 223.594 32.8799Q221.748 36.6445 221.748 41.4199L221.748 42.2402Q221.748 49.3594 226.128 53.6367ZM101.279 54.1055Q98.1445 57.9141 92.6074 57.9141Q87.5098 57.9141 84.8291 54.9844Q82.1484 52.0547 82.0898 46.4004L82.0898 25.6289L90.5566 25.6289L90.5566 46.1312Q90.5566 51.0879 95.0684 51.0879Q99.375 51.0879 100.986 48.0959L100.986 25.6289L109.482 25.6289L109.482 57.3281L101.514 57.3281L101.279 54.1055ZM177.744 57.9141Q183.281 57.9141 186.416 54.1055L186.65 57.3281L194.619 57.3281L194.619 25.6289L186.123 25.6289L186.123 48.0959Q184.512 51.0879 180.205 51.0879Q175.693 51.0879 175.693 46.1312L175.693 25.6289L167.227 25.6289L167.227 46.4004Q167.285 52.0547 169.966 54.9844Q172.646 57.9141 177.744 57.9141ZM232.427 33.5759Q233.994 31.8691 236.514 31.8691Q239.209 31.8691 240.674 33.4141Q242.139 34.959 242.197 37.7839L242.197 38.4609L230.42 38.4609Q230.859 35.2827 232.427 33.5759Z" />
      </g>
      <g id="Union" fill="#B8C1EC" transform="translate(1225 248)">
        <path d="M77.5635 14.291Q76.2891 15.5215 76.2891 17.4258Q76.2891 19.3594 77.5928 20.5898Q78.8965 21.8203 81.0352 21.8203Q83.1738 21.8203 84.4775 20.5898Q85.7813 19.3594 85.7813 17.4258Q85.7813 15.5215 84.4922 14.291Q83.2031 13.0605 81.0352 13.0605Q78.8379 13.0605 77.5635 14.291ZM36.0938 14.6719L36.0938 42.7676Q36.0938 49.7695 31.7139 53.8418Q27.334 57.9141 19.7461 57.9141Q12.2754 57.9141 7.88086 53.959Q3.48633 50.0039 3.39844 43.0898L3.39844 14.6719L12.1875 14.6719L12.1875 42.8262Q12.1875 47.0156 14.1943 48.9346Q16.2012 50.8535 19.7461 50.8535Q27.1582 50.8535 27.2754 43.0605L27.2754 14.6719L36.0938 14.6719ZM50.5371 25.6289L50.8008 29.291Q54.1992 25.043 59.9121 25.043Q64.9512 25.043 67.4121 28.002Q69.873 30.9609 69.9316 36.8496L69.9316 57.3281L61.4648 57.3281L61.4648 37.0547Q61.4648 34.3594 60.293 33.1436Q59.1211 31.9277 56.3965 31.9277Q52.8223 31.9277 51.0352 34.9746L51.0352 57.3281L42.5684 57.3281L42.5684 25.6289L50.5371 25.6289ZM90.9375 41.1855Q90.9375 36.4688 92.7539 32.7773Q94.5703 29.0859 97.9834 27.0645Q101.396 25.043 105.908 25.043Q112.324 25.043 116.382 28.9688Q120.439 32.8945 120.908 39.6328L120.967 41.8008Q120.967 49.0957 116.895 53.5049Q112.822 57.9141 105.967 57.9141Q99.1113 57.9141 95.0244 53.5195Q90.9375 49.125 90.9375 41.5664L90.9375 41.1855ZM134.238 29.291L133.975 25.6289L126.006 25.6289L126.006 57.3281L134.473 57.3281L134.473 34.9746Q136.26 31.9277 139.834 31.9277Q142.559 31.9277 143.73 33.1436Q144.902 34.3594 144.902 37.0547L144.902 57.3281L153.369 57.3281L153.369 36.8496Q153.311 30.9609 150.85 28.002Q148.389 25.043 143.35 25.043Q137.637 25.043 134.238 29.291ZM76.7871 25.6289L76.7871 57.3281L85.2832 57.3281L85.2832 25.6289L76.7871 25.6289ZM99.4043 41.7866Q99.4043 46.3052 101.104 48.6965Q102.803 51.0879 105.967 51.0879Q109.043 51.0879 110.771 48.7258Q112.5 46.3638 112.5 41.1704Q112.5 36.7397 110.771 34.3044Q109.043 31.8691 105.908 31.8691Q102.803 31.8691 101.104 34.2898Q99.4043 36.7104 99.4043 41.7866Z" />
      </g>
      <g id="Enum" fill="#B8C1EC" transform="translate(1225 356)">
        <path d="M12.5977 38.8418L29.4727 38.8418L29.4727 31.957L12.5977 31.957L12.5977 21.791L32.3438 21.791L32.3438 14.6719L3.80859 14.6719L3.80859 57.3281L32.4023 57.3281L32.4023 50.2676L12.5977 50.2676L12.5977 38.8418ZM45.0586 29.291L44.7949 25.6289L36.8262 25.6289L36.8262 57.3281L45.293 57.3281L45.293 34.9746Q47.0801 31.9277 50.6543 31.9277Q53.3789 31.9277 54.5508 33.1436Q55.7227 34.3594 55.7227 37.0547L55.7227 57.3281L64.1895 57.3281L64.1895 36.8496Q64.1309 30.9609 61.6699 28.002Q59.209 25.043 54.1699 25.043Q48.457 25.043 45.0586 29.291ZM112.383 29.1738L112.119 25.6289L104.18 25.6289L104.18 57.3281L112.646 57.3281L112.646 34.916Q114.258 31.9277 117.861 31.9277Q120.469 31.9277 121.553 33.1582Q122.637 34.3887 122.637 37.1426L122.637 57.3281L131.104 57.3281L131.074 35.5605Q132.539 31.9277 136.348 31.9277Q139.014 31.9277 140.068 33.1729Q141.123 34.418 141.123 37.1133L141.123 57.3281L149.619 57.3281L149.619 37.084Q149.619 31.0488 147.1 28.0459Q144.58 25.043 139.424 25.043Q133.242 25.043 129.902 29.877Q127.617 25.043 121.494 25.043Q115.752 25.043 112.383 29.1738ZM89.5898 54.1055Q86.4551 57.9141 80.918 57.9141Q75.8203 57.9141 73.1396 54.9844Q70.459 52.0547 70.4004 46.4004L70.4004 25.6289L78.8672 25.6289L78.8672 46.1312Q78.8672 51.0879 83.3789 51.0879Q87.6855 51.0879 89.2969 48.0959L89.2969 25.6289L97.793 25.6289L97.793 57.3281L89.8242 57.3281L89.5898 54.1055Z" />
      </g>
    </g>
    <path d="M0 1L1243 1" transform="translate(346.5 314)" id="Line-2" fill="none" fill-rule="evenodd" stroke="#FFFFFE" stroke-width="7" stroke-linecap="square" />
  </g>
</svg>