<?xml version="1.0" encoding="utf-8"?>
<svg width="2560px" height="1440px" viewbox="0 0 2560 1440" version="1.1" xmlns:xlink="http://www.w3.org/1999/xlink" xmlns="http://www.w3.org/2000/svg">
  <defs>
    <filter filterUnits="userSpaceOnUse" color-interpolation-filters="sRGB" id="filter_1">
      <feFlood flood-opacity="0" result="BackgroundImageFix" />
      <feColorMatrix in="SourceAlpha" type="matrix" values="0 0 0 0 0 0 0 0 0 0 0 0 0 0 0 0 0 0 127 0" />
      <feOffset dx="20" dy="20" />
      <feGaussianBlur stdDeviation="25" />
      <feColorMatrix type="matrix" values="0 0 0 0 0.39215687 0 0 0 0 0.39215687 0 0 0 0 0.39215687 0 0 0 0.49803922 0" />
      <feBlend mode="normal" in2="BackgroundImageFix" result="effect0_dropShadow" />
      <feBlend mode="normal" in="SourceGraphic" in2="effect0_dropShadow" result="shape" />
    </filter>
    <rect width="2560" height="1440" id="artboard_1" />
    <clipPath id="clip_1">
      <use xlink:href="#artboard_1" clip-rule="evenodd" />
    </clipPath>
  </defs>
  <g id="Quad-HD" clip-path="url(#clip_1)">
    <use xlink:href="#artboard_1" stroke="none" fill="#023E8A" />
    <g id="Group" transform="translate(467 128)">
      <g filter="url(#filter_1)">
        <g id="New-group">
          <path d="M0 500C0 223.858 363.992 0 813 0C1262.01 0 1626 223.858 1626 500C1626 776.142 1262.01 1000 813 1000C363.992 1000 0 776.142 0 500Z" id="Ellipse" fill="#0077B6" fill-rule="evenodd" stroke="#000000" stroke-width="5" />
          <g id="Random-access" fill="#FFFFFF" transform="translate(554 32)">
            <path d="M163.55 76.2573L157.544 76.2573L157.544 69.8853L157.397 69.8853Q153.223 77.1362 144.507 77.1362Q137.439 77.1362 133.209 72.1008Q128.979 67.0654 128.979 58.3862Q128.979 49.0845 133.667 43.4814Q138.354 37.8784 146.155 37.8784Q153.882 37.8784 157.397 43.9575L157.544 43.9575L157.544 20.7397L163.55 20.7397L163.55 76.2573ZM44.5313 76.2573L37.207 76.2573L28.418 61.5356Q27.2095 59.4849 26.0742 58.0383Q24.939 56.5918 23.7488 55.6763Q22.5586 54.7607 21.1853 54.3396Q19.812 53.9185 18.0908 53.9185L13.0371 53.9185L13.0371 76.2573L6.88477 76.2573L6.88477 23.7427L22.5586 23.7427Q26.001 23.7427 28.9124 24.6033Q31.8237 25.4639 33.9661 27.2217Q36.1084 28.9795 37.3169 31.5979Q38.5254 34.2163 38.5254 37.7319Q38.5254 40.4785 37.7014 42.7673Q36.8774 45.0562 35.3577 46.8506Q33.8379 48.645 31.6956 49.9084Q29.5532 51.1719 26.8799 51.8677L26.8799 52.0142Q28.1982 52.6001 29.1687 53.3508Q30.1392 54.1016 31.0181 55.127Q31.897 56.1523 32.7576 57.4524Q33.6182 58.7524 34.6802 60.4736L44.5313 76.2573ZM13.0371 29.3091L13.0371 48.3521L21.3867 48.3521Q23.6938 48.3521 25.6531 47.6563Q27.6123 46.9604 29.0405 45.6604Q30.4688 44.3604 31.2744 42.4744Q32.0801 40.5884 32.0801 38.2446Q32.0801 34.0332 29.3518 31.6711Q26.6235 29.3091 21.46 29.3091L13.0371 29.3091ZM77.7832 76.2573L71.7773 76.2573L71.7773 70.3979L71.6309 70.3979Q67.7124 77.1362 60.0952 77.1362Q54.4922 77.1362 51.3245 74.1699Q48.1567 71.2036 48.1567 66.2964Q48.1567 55.7861 60.5347 54.0649L71.7773 52.4902Q71.7773 42.9321 64.0503 42.9321Q57.2754 42.9321 51.8188 47.5464L51.8188 41.394Q57.3486 37.8784 64.563 37.8784Q77.7832 37.8784 77.7832 51.8677L77.7832 76.2573ZM114.221 76.2573L120.227 76.2573L120.227 53.3325Q120.227 45.8252 116.968 41.8518Q113.708 37.8784 107.556 37.8784Q99.4995 37.8784 95.2515 44.9829L95.105 44.9829L95.105 38.7573L89.0991 38.7573L89.0991 76.2573L95.105 76.2573L95.105 54.8706Q95.105 49.707 98.053 46.3196Q101.001 42.9321 105.505 42.9321Q114.221 42.9321 114.221 54.8706L114.221 76.2573ZM178.107 71.8811Q183.069 77.1362 191.382 77.1362Q199.915 77.1362 204.987 71.7346Q210.059 66.333 210.059 57.3608Q210.059 48.2056 205.353 43.042Q200.647 37.8784 192.261 37.8784Q183.472 37.8784 178.308 43.1885Q173.145 48.4985 173.145 57.9468Q173.145 66.626 178.107 71.8811ZM272.9 76.2573L266.895 76.2573L266.895 54.7241Q266.895 48.4985 264.972 45.7153Q263.049 42.9321 258.508 42.9321Q254.663 42.9321 251.971 46.4478Q249.28 49.9634 249.28 54.8706L249.28 76.2573L243.274 76.2573L243.274 53.9917Q243.274 42.9321 234.741 42.9321Q230.786 42.9321 228.223 46.2463Q225.659 49.5605 225.659 54.8706L225.659 76.2573L219.653 76.2573L219.653 38.7573L225.659 38.7573L225.659 44.6899L225.806 44.6899Q229.797 37.8784 237.451 37.8784Q241.296 37.8784 244.153 40.0208Q247.009 42.1631 248.071 45.6421Q252.246 37.8784 260.522 37.8784Q272.9 37.8784 272.9 53.1494L272.9 76.2573ZM341.089 76.2573L335.083 76.2573L335.083 70.3979L334.937 70.3979Q331.018 77.1362 323.401 77.1362Q317.798 77.1362 314.63 74.1699Q311.462 71.2036 311.462 66.2964Q311.462 55.7861 323.84 54.0649L335.083 52.4902Q335.083 42.9321 327.356 42.9321Q320.581 42.9321 315.125 47.5464L315.125 41.394Q320.654 37.8784 327.869 37.8784Q341.089 37.8784 341.089 51.8677L341.089 76.2573ZM367.712 77.1362Q373.645 77.1362 377.966 74.5361L377.966 68.8232Q373.645 72.0825 368.738 72.0825Q362.915 72.0825 359.454 68.2739Q355.994 64.4653 355.994 57.8735Q355.994 51.1719 359.674 47.052Q363.354 42.9321 369.104 42.9321Q373.865 42.9321 378.04 45.8618L378.04 39.7095Q374.268 37.8784 369.324 37.8784Q360.461 37.8784 355.151 43.4998Q349.841 49.1211 349.841 58.3862Q349.841 66.6992 354.767 71.9177Q359.692 77.1362 367.712 77.1362ZM412.61 74.5361Q408.289 77.1362 402.356 77.1362Q394.336 77.1362 389.41 71.9177Q384.485 66.6992 384.485 58.3862Q384.485 49.1211 389.795 43.4998Q395.105 37.8784 403.967 37.8784Q408.911 37.8784 412.683 39.7095L412.683 45.8618Q408.508 42.9321 403.748 42.9321Q397.998 42.9321 394.318 47.052Q390.637 51.1719 390.637 57.8735Q390.637 64.4653 394.098 68.2739Q397.559 72.0825 403.381 72.0825Q408.289 72.0825 412.61 68.8232L412.61 74.5361ZM425.354 59.0088L451.831 59.0088L451.831 55.8594Q451.831 47.3999 447.803 42.6392Q443.774 37.8784 436.414 37.8784Q429.053 37.8784 424.091 43.3899Q419.128 48.9014 419.128 57.6538Q419.128 66.9189 423.669 72.0276Q428.21 77.1362 436.157 77.1362Q444.287 77.1362 449.231 73.5474L449.231 67.9077Q443.921 72.0825 437.585 72.0825Q431.946 72.0825 428.723 68.6768Q425.5 65.271 425.354 59.0088ZM458.643 74.9023L458.643 68.457Q463.55 72.0825 469.446 72.0825Q477.356 72.0825 477.356 66.8091Q477.356 65.3076 476.678 64.2639Q476.001 63.2202 474.847 62.4146Q473.694 61.6089 472.137 60.968Q470.581 60.3271 468.787 59.6313Q466.296 58.6426 464.41 57.6355Q462.524 56.6284 461.261 55.365Q459.998 54.1016 459.357 52.4902Q458.716 50.8789 458.716 48.7183Q458.716 46.0815 459.924 44.0491Q461.133 42.0166 463.147 40.6433Q465.161 39.27 467.743 38.5742Q470.325 37.8784 473.071 37.8784Q477.942 37.8784 481.787 39.563L481.787 45.6421Q477.649 42.9321 472.266 42.9321Q470.581 42.9321 469.226 43.3167Q467.871 43.7012 466.901 44.397Q465.93 45.0928 465.399 46.0632Q464.868 47.0337 464.868 48.2056Q464.868 49.6704 465.399 50.6592Q465.93 51.6479 466.956 52.417Q467.981 53.186 469.446 53.8086Q470.911 54.4312 472.778 55.1636Q475.269 56.1157 477.246 57.1228Q479.224 58.1299 480.615 59.3933Q482.007 60.6567 482.758 62.3047Q483.508 63.9526 483.508 66.2231Q483.508 69.0063 482.281 71.0571Q481.055 73.1079 479.004 74.4629Q476.953 75.8179 474.28 76.4771Q471.606 77.1362 468.677 77.1362Q462.891 77.1362 458.643 74.9023ZM490.466 68.457L490.466 74.9023Q494.714 77.1362 500.5 77.1362Q503.43 77.1362 506.104 76.4771Q508.777 75.8179 510.828 74.4629Q512.878 73.1079 514.105 71.0571Q515.332 69.0063 515.332 66.2231Q515.332 63.9526 514.581 62.3047Q513.831 60.6567 512.439 59.3933Q511.047 58.1299 509.07 57.1228Q507.092 56.1157 504.602 55.1636Q502.734 54.4312 501.27 53.8086Q499.805 53.186 498.779 52.417Q497.754 51.6479 497.223 50.6592Q496.692 49.6704 496.692 48.2056Q496.692 47.0337 497.223 46.0632Q497.754 45.0928 498.724 44.397Q499.695 43.7012 501.05 43.3167Q502.405 42.9321 504.089 42.9321Q509.473 42.9321 513.611 45.6421L513.611 39.563Q509.766 37.8784 504.895 37.8784Q502.148 37.8784 499.567 38.5742Q496.985 39.27 494.971 40.6433Q492.957 42.0166 491.748 44.0491Q490.54 46.0815 490.54 48.7183Q490.54 50.8789 491.18 52.4902Q491.821 54.1016 493.085 55.365Q494.348 56.6284 496.234 57.6355Q498.12 58.6426 500.61 59.6313Q502.405 60.3271 503.961 60.968Q505.518 61.6089 506.671 62.4146Q507.825 63.2202 508.502 64.2639Q509.18 65.3076 509.18 66.8091Q509.18 72.0825 501.27 72.0825Q495.374 72.0825 490.466 68.457ZM157.544 59.3018L157.544 53.772Q157.544 49.231 154.541 46.0815Q151.538 42.9321 146.924 42.9321Q141.431 42.9321 138.281 46.9604Q135.132 50.9888 135.132 58.0933Q135.132 64.5752 138.153 68.3289Q141.174 72.0825 146.265 72.0825Q151.282 72.0825 154.413 68.457Q157.544 64.8315 157.544 59.3018ZM182.666 46.8689Q186.035 42.9321 191.821 42.9321Q197.644 42.9321 200.775 46.7407Q203.906 50.5493 203.906 57.5806Q203.906 64.5386 200.775 68.3105Q197.644 72.0825 191.821 72.0825Q186.108 72.0825 182.703 68.2373Q179.297 64.3921 179.297 57.7271Q179.297 50.8057 182.666 46.8689ZM443.17 45.8252Q445.642 48.7183 445.679 53.9185L425.427 53.9185Q426.123 49.0112 429.089 45.9717Q432.056 42.9321 436.304 42.9321Q440.698 42.9321 443.17 45.8252ZM283.447 57.7271L303.442 57.7271L303.442 53.0029L283.447 53.0029L283.447 57.7271ZM71.7773 57.2876L62.7319 58.5327Q58.5571 59.1187 56.4331 60.6018Q54.3091 62.085 54.3091 65.8569Q54.3091 68.6035 56.2683 70.343Q58.2275 72.0825 61.4868 72.0825Q65.9546 72.0825 68.866 68.9514Q71.7773 65.8203 71.7773 61.0229L71.7773 57.2876ZM335.083 57.2876L326.038 58.5327Q321.863 59.1187 319.739 60.6018Q317.615 62.085 317.615 65.8569Q317.615 68.6035 319.574 70.343Q321.533 72.0825 324.792 72.0825Q329.26 72.0825 332.172 68.9514Q335.083 65.8203 335.083 61.0229L335.083 57.2876Z" />
          </g>
        </g>
      </g>
      <g filter="url(#filter_1)">
        <g id="New-group-Copy" transform="translate(231 142)">
          <path d="M0 358C0 160.282 260.619 0 582.108 0C903.597 0 1164.22 160.282 1164.22 358C1164.22 555.718 903.597 716 582.108 716C260.619 716 0 555.718 0 358Z" id="Ellipse" fill="#0096C7" fill-rule="evenodd" stroke="#000000" stroke-width="5" />
          <g id="Bi-directional" fill="#FFFFFF" transform="translate(362.1079 21.184631)">
            <path d="M123.23 76.2573L129.236 76.2573L129.236 20.7397L123.23 20.7397L123.23 43.9575L123.083 43.9575Q119.568 37.8784 111.841 37.8784Q104.041 37.8784 99.353 43.4814Q94.6655 49.0845 94.6655 58.3862Q94.6655 67.0654 98.8953 72.1008Q103.125 77.1362 110.193 77.1362Q118.909 77.1362 123.083 69.8853L123.23 69.8853L123.23 76.2573ZM427.625 76.2573L433.63 76.2573L433.63 20.7397L427.625 20.7397L427.625 76.2573ZM49.4019 28.1372Q50.5371 29.2358 52.1484 29.2358Q53.7964 29.2358 54.95 28.1006Q56.1035 26.9653 56.1035 25.354Q56.1035 23.6694 54.95 22.5525Q53.7964 21.4355 52.1484 21.4355Q50.5371 21.4356 49.4019 22.5525Q48.2666 23.6694 48.2666 25.354Q48.2666 27.0386 49.4019 28.1372ZM144.47 29.2358Q142.859 29.2358 141.724 28.1372Q140.588 27.0386 140.588 25.354Q140.588 23.6694 141.724 22.5525Q142.859 21.4356 144.47 21.4355Q146.118 21.4355 147.272 22.5525Q148.425 23.6694 148.425 25.354Q148.425 26.9653 147.272 28.1006Q146.118 29.2358 144.47 29.2358ZM285.242 28.1372Q286.377 29.2358 287.988 29.2358Q289.636 29.2358 290.79 28.1006Q291.943 26.9653 291.943 25.354Q291.943 23.6694 290.79 22.5525Q289.636 21.4355 287.988 21.4355Q286.377 21.4356 285.242 22.5525Q284.106 23.6694 284.106 25.354Q284.106 27.0386 285.242 28.1372ZM6.88477 23.7427L6.88477 76.2573L22.1924 76.2573Q29.5532 76.2573 34.3872 72.0825Q39.2212 67.9077 39.2212 61.1694Q39.2212 55.7495 36.0352 52.3621Q32.8491 48.9746 27.5391 48.3521L27.5391 48.2056Q31.7871 46.814 34.2041 43.5181Q36.6211 40.2222 36.6211 35.7544Q36.6211 30.4077 32.6294 27.0752Q28.6377 23.7427 21.8262 23.7427L6.88477 23.7427ZM276.892 75.8911Q274.768 77.063 271.289 77.063Q261.438 77.063 261.438 66.0767L261.438 43.8843L254.993 43.8843L254.993 38.7573L261.438 38.7573L261.438 29.6021L267.444 27.6611L267.444 38.7573L276.892 38.7573L276.892 43.8843L267.444 43.8843L267.444 65.0146Q267.444 68.7866 268.726 70.3979Q270.007 72.0093 272.974 72.0093Q275.244 72.0093 276.892 70.7642L276.892 75.8911ZM13.0371 46.2646L13.0371 29.3091L20.105 29.3091Q30.1758 29.3091 30.1758 36.9629Q30.1758 41.394 27.2827 43.8293Q24.3896 46.2647 19.3359 46.2646L13.0371 46.2646ZM215.771 59.0088L189.294 59.0088Q189.441 65.271 192.664 68.6768Q195.886 72.0825 201.526 72.0825Q207.861 72.0825 213.171 67.9077L213.171 73.5474Q208.228 77.1362 200.098 77.1362Q192.151 77.1362 187.61 72.0276Q183.069 66.9189 183.069 57.6538Q183.069 48.9014 188.031 43.3899Q192.993 37.8784 200.354 37.8784Q207.715 37.8784 211.743 42.6392Q215.771 47.3999 215.771 55.8594L215.771 59.0088ZM240.161 77.1362Q246.094 77.1362 250.415 74.5361L250.415 68.8232Q246.094 72.0825 241.187 72.0825Q235.364 72.0825 231.903 68.2739Q228.442 64.4653 228.442 57.8735Q228.442 51.1719 232.123 47.052Q235.803 42.9321 241.553 42.9321Q246.313 42.9321 250.488 45.8618L250.488 39.7095Q246.716 37.8784 241.772 37.8784Q232.91 37.8784 227.6 43.4998Q222.29 49.1211 222.29 58.3862Q222.29 66.6992 227.216 71.9177Q232.141 77.1362 240.161 77.1362ZM318.75 77.1362Q310.437 77.1362 305.475 71.8811Q300.513 66.626 300.513 57.9468Q300.513 48.4985 305.676 43.1885Q310.84 37.8784 319.629 37.8784Q328.015 37.8784 332.721 43.042Q337.427 48.2056 337.427 57.3608Q337.427 66.333 332.355 71.7346Q327.283 77.1362 318.75 77.1362ZM372.144 76.2573L378.149 76.2573L378.149 53.3325Q378.149 45.8252 374.89 41.8518Q371.631 37.8784 365.479 37.8784Q357.422 37.8784 353.174 44.9829L353.027 44.9829L353.027 38.7573L347.021 38.7573L347.021 76.2573L353.027 76.2573L353.027 54.8706Q353.027 49.707 355.975 46.3196Q358.923 42.9321 363.428 42.9321Q372.144 42.9321 372.144 54.8706L372.144 76.2573ZM416.309 76.2573L410.303 76.2573L410.303 70.3979L410.156 70.3979Q406.238 77.1362 398.621 77.1362Q393.018 77.1362 389.85 74.1699Q386.682 71.2036 386.682 66.2964Q386.682 55.7861 399.06 54.0649L410.303 52.4902Q410.303 42.9321 402.576 42.9321Q395.801 42.9321 390.344 47.5464L390.344 41.394Q395.874 37.8784 403.088 37.8784Q416.309 37.8784 416.309 51.8677L416.309 76.2573ZM174.573 43.6279Q177.539 43.6279 179.114 44.8364L179.114 38.6108Q177.869 38.0981 175.525 38.0981Q172.266 38.0981 169.629 40.3137Q166.992 42.5293 165.71 46.4844L165.564 46.4844L165.564 38.7573L159.558 38.7573L159.558 76.2573L165.564 76.2573L165.564 57.1411Q165.564 50.8789 168.146 47.2534Q170.728 43.6279 174.573 43.6279ZM49.0723 76.2573L55.0781 76.2573L55.0781 38.7573L49.0723 38.7573L49.0723 76.2573ZM147.4 76.2573L141.394 76.2573L141.394 38.7573L147.4 38.7573L147.4 76.2573ZM284.912 76.2573L290.918 76.2573L290.918 38.7573L284.912 38.7573L284.912 76.2573ZM123.23 53.772L123.23 59.3018Q123.23 64.8315 120.099 68.457Q116.968 72.0825 111.951 72.0825Q106.86 72.0825 103.839 68.3289Q100.818 64.5752 100.818 58.0933Q100.818 50.9888 103.967 46.9604Q107.117 42.9321 112.61 42.9321Q117.224 42.9321 120.227 46.0815Q123.23 49.231 123.23 53.772ZM209.619 53.9185Q209.583 48.7183 207.111 45.8252Q204.639 42.9321 200.244 42.9321Q195.996 42.9321 193.03 45.9717Q190.063 49.0112 189.368 53.9185L209.619 53.9185ZM319.189 42.9321Q313.403 42.9321 310.034 46.8689Q306.665 50.8057 306.665 57.7271Q306.665 64.3921 310.071 68.2373Q313.477 72.0825 319.189 72.0825Q325.012 72.0825 328.143 68.3105Q331.274 64.5386 331.274 57.5806Q331.274 50.5493 328.143 46.7407Q325.012 42.9321 319.189 42.9321ZM13.0371 70.6909L13.0371 51.7944L20.105 51.7944Q32.7759 51.7944 32.7759 61.0962Q32.7759 65.564 29.7913 68.1274Q26.8066 70.6909 21.3867 70.6909L13.0371 70.6909ZM86.4258 57.7271L66.4307 57.7271L66.4307 53.0029L86.4258 53.0029L86.4258 57.7271ZM410.303 57.2876L401.257 58.5327Q397.083 59.1187 394.958 60.6018Q392.834 62.085 392.834 65.8569Q392.834 68.6035 394.794 70.343Q396.753 72.0825 400.012 72.0825Q404.48 72.0825 407.391 68.9514Q410.303 65.8203 410.303 61.0229L410.303 57.2876Z" />
          </g>
        </g>
      </g>
      <g filter="url(#filter_1)">
        <g id="New-group-Copy-2" transform="translate(366.2002 293)">
          <path d="M0 207.157C0 92.7473 200.177 0 447.108 0C694.039 0 894.216 92.7473 894.216 207.157C894.216 321.566 694.039 414.314 447.108 414.314C200.177 414.314 0 321.566 0 207.157Z" id="Ellipse" fill="#00B4D8" fill-rule="evenodd" stroke="#000000" stroke-width="5" />
          <g id="Forward" fill="#FFFFFF" transform="translate(312.6079 5.5045166)">
            <path d="M257.153 76.2573L263.159 76.2573L263.159 20.7397L257.153 20.7397L257.153 43.9575L257.007 43.9575Q253.491 37.8784 245.764 37.8784Q237.964 37.8784 233.276 43.4814Q228.589 49.0845 228.589 58.3862Q228.589 67.0654 232.819 72.1008Q237.048 77.1362 244.116 77.1362Q252.832 77.1362 257.007 69.8853L257.153 69.8853L257.153 76.2573ZM33.5449 29.3091L13.0371 29.3091L13.0371 47.4731L32.0068 47.4731L32.0068 53.0029L13.0371 53.0029L13.0371 76.2573L6.88477 76.2573L6.88477 23.7427L33.5449 23.7427L33.5449 29.3091ZM58.374 77.1362Q50.061 77.1362 45.0989 71.8811Q40.1367 66.626 40.1367 57.9468Q40.1367 48.4985 45.3003 43.1885Q50.4639 37.8784 59.2529 37.8784Q67.6392 37.8784 72.345 43.042Q77.0508 48.2056 77.0508 57.3608Q77.0508 66.333 71.9788 71.7346Q66.9067 77.1362 58.374 77.1362ZM187.756 76.2573L193.762 76.2573L193.762 51.8677Q193.762 37.8784 180.542 37.8784Q173.328 37.8784 167.798 41.394L167.798 47.5464Q173.254 42.9321 180.029 42.9321Q187.756 42.9321 187.756 52.4902L176.514 54.0649Q164.136 55.7861 164.136 66.2964Q164.136 71.2036 167.303 74.1699Q170.471 77.1362 176.074 77.1362Q183.691 77.1362 187.61 70.3979L187.756 70.3979L187.756 76.2573ZM101.66 43.6279Q104.626 43.6279 106.201 44.8364L106.201 38.6108Q104.956 38.0981 102.612 38.0981Q99.353 38.0981 96.7163 40.3137Q94.0796 42.5293 92.7979 46.4844L92.6514 46.4844L92.6514 38.7573L86.6455 38.7573L86.6455 76.2573L92.6514 76.2573L92.6514 57.1411Q92.6514 50.8789 95.2332 47.2534Q97.8149 43.6279 101.66 43.6279ZM224.634 44.8364Q223.059 43.6279 220.093 43.6279Q216.248 43.6279 213.666 47.2534Q211.084 50.8789 211.084 57.1411L211.084 76.2573L205.078 76.2573L205.078 38.7573L211.084 38.7573L211.084 46.4844L211.23 46.4844Q212.512 42.5293 215.149 40.3137Q217.786 38.0981 221.045 38.0981Q223.389 38.0981 224.634 38.6108L224.634 44.8364ZM159.961 38.7573L148.718 76.2573L142.493 76.2573L134.766 49.4141Q134.326 47.876 134.18 45.9351L134.033 45.9351Q133.923 47.2534 133.264 49.3408L124.878 76.2573L118.872 76.2573L107.52 38.7573L113.818 38.7573L121.582 66.9556Q121.948 68.2373 122.095 70.3247L122.388 70.3247Q122.498 68.7134 123.047 66.8823L131.689 38.7573L137.183 38.7573L144.946 67.0288Q145.313 68.3838 145.496 70.3979L145.789 70.3979Q145.862 68.9697 146.411 67.0288L154.028 38.7573L159.961 38.7573ZM58.8135 42.9321Q53.0273 42.9321 49.6582 46.8689Q46.2891 50.8057 46.2891 57.7271Q46.2891 64.3921 49.6948 68.2373Q53.1006 72.0825 58.8135 72.0825Q64.6362 72.0825 67.7673 68.3105Q70.8984 64.5386 70.8984 57.5806Q70.8984 50.5493 67.7673 46.7407Q64.6362 42.9321 58.8135 42.9321ZM257.153 53.772L257.153 59.3018Q257.153 64.8315 254.022 68.457Q250.891 72.0825 245.874 72.0825Q240.784 72.0825 237.762 68.3289Q234.741 64.5752 234.741 58.0933Q234.741 50.9888 237.891 46.9604Q241.04 42.9321 246.533 42.9321Q251.147 42.9321 254.15 46.0815Q257.153 49.231 257.153 53.772ZM178.711 58.5327L187.756 57.2876L187.756 61.0229Q187.756 65.8203 184.845 68.9514Q181.934 72.0825 177.466 72.0825Q174.207 72.0825 172.247 70.343Q170.288 68.6035 170.288 65.8569Q170.288 62.085 172.412 60.6018Q174.536 59.1187 178.711 58.5327Z" />
          </g>
        </g>
      </g>
      <g filter="url(#filter_1)">
        <g id="New-group-Copy-4" transform="translate(717.00024 408.18634)">
          <path d="M0 92.6568C0 41.4839 113.496 0 253.5 0C393.504 0 507 41.4839 507 92.6568C507 143.83 393.504 185.314 253.5 185.314C113.496 185.314 0 143.83 0 92.6568Z" id="Ellipse" fill="#ADE8F4" fill-opacity="0.8" fill-rule="evenodd" stroke="#000000" stroke-opacity="0.8" stroke-width="5" />
          <g id="Output" transform="translate(221.99976 42.067078)">
            <path d="M10.1624 69.7754Q16.8823 77.1362 28.0518 77.1362Q39.4775 77.1362 46.2891 69.6655Q53.1006 62.1948 53.1006 49.3408Q53.1006 37.5122 46.4539 30.188Q39.8071 22.8638 28.9307 22.8638Q17.1387 22.8638 10.2905 30.4077Q3.44238 37.9517 3.44238 50.6226Q3.44238 62.4146 10.1624 69.7754ZM122.461 75.8911Q120.337 77.063 116.858 77.063Q107.007 77.063 107.007 66.0767L107.007 43.8843L100.562 43.8843L100.562 38.7573L107.007 38.7573L107.007 29.6021L113.013 27.6611L113.013 38.7573L122.461 38.7573L122.461 43.8843L113.013 43.8843L113.013 65.0146Q113.013 68.7866 114.294 70.3979Q115.576 72.0093 118.542 72.0093Q120.813 72.0093 122.461 70.7642L122.461 75.8911ZM228.809 77.063Q232.288 77.063 234.412 75.8911L234.412 70.7642Q232.764 72.0093 230.493 72.0093Q227.527 72.0093 226.245 70.3979Q224.963 68.7866 224.963 65.0146L224.963 43.8843L234.412 43.8843L234.412 38.7573L224.963 38.7573L224.963 27.6611L218.958 29.6021L218.958 38.7573L212.512 38.7573L212.512 43.8843L218.958 43.8843L218.958 66.0767Q218.958 77.063 228.809 77.063ZM15.0513 34.3994Q20.2148 28.4302 28.4912 28.4302Q36.9873 28.4302 41.8213 34.1064Q46.6553 39.7827 46.6553 50.1831Q46.6553 60.3271 41.6748 65.9668Q36.6943 71.6064 28.0518 71.6064Q19.9585 71.6064 14.9231 65.6921Q9.8877 59.7778 9.8877 50.0732Q9.8877 40.3687 15.0513 34.3994ZM136.487 70.8374L136.633 70.8374Q140.588 77.1362 147.876 77.1362Q155.823 77.1362 160.4 71.4783Q164.978 65.8203 164.978 56.4087Q164.978 47.9492 160.913 42.9138Q156.848 37.8784 149.597 37.8784Q141.064 37.8784 136.633 45.3491L136.487 45.3491L136.487 38.7573L130.481 38.7573L130.481 93.5059L136.487 93.5059L136.487 70.8374ZM86.9385 76.2573L92.9443 76.2573L92.9443 38.7573L86.9385 38.7573L86.9385 60.3638Q86.9385 65.6006 84.1003 68.8416Q81.2622 72.0825 76.8677 72.0825Q67.7856 72.0825 67.7856 60.2173L67.7856 38.7573L61.8164 38.7573L61.8164 61.1694Q61.8164 77.1362 75.2197 77.1362Q83.0566 77.1362 86.792 70.3247L86.9385 70.3247L86.9385 76.2573ZM204.895 76.2573L198.889 76.2573L198.889 70.3247L198.743 70.3247Q195.007 77.1362 187.17 77.1362Q173.767 77.1362 173.767 61.1694L173.767 38.7573L179.736 38.7573L179.736 60.2173Q179.736 72.0825 188.818 72.0825Q193.213 72.0825 196.051 68.8416Q198.889 65.6006 198.889 60.3638L198.889 38.7573L204.895 38.7573L204.895 76.2573ZM136.487 60.9497L136.487 55.7129Q136.487 50.2197 139.673 46.5759Q142.859 42.9321 148.096 42.9321Q153.04 42.9321 155.933 46.4844Q158.826 50.0366 158.826 56.2988Q158.826 63.7329 155.731 67.9077Q152.637 72.0825 147.18 72.0825Q142.529 72.0825 139.508 68.8416Q136.487 65.6006 136.487 60.9497Z" />
          </g>
        </g>
      </g>
      <g filter="url(#filter_1)">
        <g id="New-group-Copy-3" transform="translate(415.00024 408.2329)">
          <path d="M0 92.6568C0 41.4839 113.496 0 253.5 0C393.504 0 507 41.4839 507 92.6568C507 143.83 393.504 185.314 253.5 185.314C113.496 185.314 0 143.83 0 92.6568Z" id="Ellipse" fill="#ADE8F4" fill-opacity="0.8" fill-rule="evenodd" stroke="#000000" stroke-opacity="0.8" stroke-width="5" />
          <g id="Input" transform="translate(78.999756 42.067078)">
            <path d="M13.0371 76.2573L6.88477 76.2573L6.88477 23.7427L13.0371 23.7427L13.0371 76.2573ZM166.809 77.063Q170.288 77.063 172.412 75.8911L172.412 70.7642Q170.764 72.0093 168.494 72.0093Q165.527 72.0093 164.246 70.3979Q162.964 68.7866 162.964 65.0146L162.964 43.8843L172.412 43.8843L172.412 38.7573L162.964 38.7573L162.964 27.6611L156.958 29.6021L156.958 38.7573L150.513 38.7573L150.513 43.8843L156.958 43.8843L156.958 66.0767Q156.958 77.063 166.809 77.063ZM57.1655 76.2573L51.1597 76.2573L51.1597 54.8706Q51.1597 42.9321 42.4438 42.9321Q37.9395 42.9321 34.9915 46.3196Q32.0435 49.707 32.0435 54.8706L32.0435 76.2573L26.0376 76.2573L26.0376 38.7573L32.0435 38.7573L32.0435 44.9829L32.1899 44.9829Q36.438 37.8784 44.4946 37.8784Q50.647 37.8784 53.9063 41.8518Q57.1655 45.8252 57.1655 53.3325L57.1655 76.2573ZM74.4873 70.8374L74.6338 70.8374Q78.5889 77.1362 85.8765 77.1362Q93.8232 77.1362 98.4009 71.4783Q102.979 65.8203 102.979 56.4087Q102.979 47.9492 98.9136 42.9138Q94.8486 37.8784 87.5977 37.8784Q79.0649 37.8784 74.6338 45.3491L74.4873 45.3491L74.4873 38.7573L68.4814 38.7573L68.4814 93.5059L74.4873 93.5059L74.4873 70.8374ZM142.896 76.2573L136.89 76.2573L136.89 70.3247L136.743 70.3247Q133.008 77.1362 125.171 77.1362Q111.768 77.1362 111.768 61.1694L111.768 38.7573L117.737 38.7573L117.737 60.2173Q117.737 72.0825 126.819 72.0825Q131.213 72.0825 134.052 68.8416Q136.89 65.6006 136.89 60.3638L136.89 38.7573L142.896 38.7573L142.896 76.2573ZM74.4873 60.9497L74.4873 55.7129Q74.4873 50.2197 77.6733 46.5759Q80.8594 42.9321 86.0962 42.9321Q91.04 42.9321 93.9331 46.4844Q96.8262 50.0366 96.8262 56.2988Q96.8262 63.7329 93.7317 67.9077Q90.6372 72.0825 85.1807 72.0825Q80.5298 72.0825 77.5085 68.8416Q74.4873 65.6006 74.4873 60.9497Z" />
          </g>
        </g>
      </g>
      <path d="M0 68.35C0 30.6013 46.3385 0 103.5 0C160.661 0 207 30.6013 207 68.35C207 106.099 160.661 136.7 103.5 136.7C46.3385 136.7 0 106.099 0 68.35Z" transform="translate(716 430.3)" id="Ellipse" fill="#ADE8F4" fill-rule="evenodd" stroke="#000000" stroke-width="5" />
    </g>
    <g id="Hierarchy-Of-Iterator-Types" fill="#FFFFFF" transform="translate(567 1214)">
      <path d="M626.016 83.1414L610.848 83.1414L610.848 53.4774L626.976 53.4774L626.976 45.3174L610.848 45.3174L610.848 43.5894C610.848 35.0454 612.672 33.5094 630.144 32.9334L629.472 22.5654C607.104 23.7174 600.192 32.9334 600.192 45.2214L600.192 45.3174L588.48 45.3174L587.52 53.4774L600.192 53.4774L600.192 83.1414L588.096 83.1414L588.096 91.1094L625.056 91.1094L626.016 83.1414ZM87.264 22.6614L86.4 36.1014L75.36 36.1014L76.032 22.6614L87.264 22.6614ZM405.12 62.3094C405.12 53.8614 402.048 51.1734 397.056 51.1734C393.504 51.1734 390.432 52.3254 387.648 54.0534L387.648 91.1094L376.992 91.1094L376.992 23.8134L387.648 22.8534L387.648 47.6214C391.296 44.5494 396 42.0534 402.048 42.0534C410.4 42.0534 415.776 46.9494 415.776 58.5654L415.776 91.1094L405.12 91.1094L405.12 62.3094ZM783.648 91.8774L784.8 83.0454C770.208 82.7574 765.696 81.0294 765.696 73.5414L765.696 51.4614L783.744 51.4614L783.744 43.3014L765.696 43.3014L765.696 29.4774L755.136 30.4374L755.136 43.3014L746.304 43.3014L745.344 51.4614L755.136 51.4614L755.136 75.1734C755.136 87.4614 762.144 92.2614 783.648 91.8774ZM994.848 91.8774L996 83.0454C981.408 82.7574 976.896 81.0294 976.896 73.5414L976.896 51.4614L994.944 51.4614L994.944 43.3014L976.896 43.3014L976.896 29.4774L966.336 30.4374L966.336 43.3014L957.504 43.3014L956.544 51.4614L966.336 51.4614L966.336 75.1734C966.336 87.4614 973.344 92.2614 994.848 91.8774ZM576.96 59.6214C576.96 81.0294 567.648 92.6454 553.056 92.6454C539.52 92.6454 531.84 82.0854 531.84 63.0774C531.84 41.6694 541.152 30.0534 555.744 30.0534C569.28 30.0534 576.864 40.6134 576.96 59.6214ZM46.272 91.1094L34.944 91.1094L34.944 65.2854L17.856 65.2854L17.856 91.1094L6.624 91.1094L6.624 31.5894L17.856 31.5894L17.856 56.8374L34.944 56.8374L34.944 31.5894L46.272 31.5894L46.272 91.1094ZM732.096 40.1334L718.368 40.1334L718.368 82.5654L732.576 82.5654L731.808 91.1094L693.6 91.1094L693.6 82.5654L707.328 82.5654L707.328 40.1334L693.6 40.1334L693.6 31.5894L732.096 31.5894L732.096 40.1334ZM1210.66 40.8054L1193.66 40.8054L1193.66 91.1094L1182.53 91.1094L1182.53 40.8054L1165.06 40.8054L1165.82 31.5894L1210.66 31.5894L1210.66 40.8054ZM565.536 62.1174C565.536 46.8534 561.504 39.1734 554.016 39.1734C546.72 39.1734 543.264 46.1814 543.264 60.5814C543.264 75.8454 547.296 83.5254 554.784 83.5254C562.08 83.5254 565.536 76.5174 565.536 62.1174ZM201.408 83.0454L200.544 91.1094L164.736 91.1094L164.736 83.0454L176.352 83.0454C176.16 70.0854 176.064 60.1014 175.872 51.6534L164.544 50.8854L165.408 43.3014L185.184 43.3014C185.28 43.7814 185.856 49.1574 186.048 51.5574C190.368 46.5654 197.184 42.6294 206.208 41.4774L206.688 52.8054C198.432 53.2854 191.808 55.0134 186.432 57.6054C186.624 64.8054 186.72 72.8694 186.912 83.0454L201.408 83.0454ZM307.008 83.0454L306.144 91.1094L270.336 91.1094L270.336 83.0454L281.952 83.0454C281.76 70.0854 281.664 60.1014 281.472 51.6534L270.144 50.8854L271.008 43.3014L290.784 43.3014C290.88 43.7814 291.456 49.1574 291.648 51.5574C295.968 46.5654 302.784 42.6294 311.808 41.4774L312.288 52.8054C304.032 53.2854 297.408 55.0134 292.032 57.6054C292.224 64.8054 292.32 72.8694 292.512 83.0454L307.008 83.0454ZM886.944 91.1094L887.808 83.0454L873.312 83.0454C873.12 72.8694 873.024 64.8054 872.832 57.6054C878.208 55.0134 884.832 53.2854 893.088 52.8054L892.608 41.4774C883.584 42.6294 876.768 46.5654 872.448 51.5574C872.256 49.1574 871.68 43.7814 871.584 43.3014L851.808 43.3014L850.944 50.8854L862.272 51.6534C862.464 60.1014 862.56 70.0854 862.752 83.0454L851.136 83.0454L851.136 91.1094L886.944 91.1094ZM1098.14 91.1094L1099.01 83.0454L1084.51 83.0454C1084.32 72.8694 1084.22 64.8054 1084.03 57.6054C1089.41 55.0134 1096.03 53.2854 1104.29 52.8054L1103.81 41.4774C1094.78 42.6294 1087.97 46.5654 1083.65 51.5574C1083.46 49.1574 1082.88 43.7814 1082.78 43.3014L1063.01 43.3014L1062.14 50.8854L1073.47 51.6534C1073.66 60.1014 1073.76 70.0854 1073.95 83.0454L1062.34 83.0454L1062.34 91.1094L1098.14 91.1094ZM1051.39 66.1494C1051.39 82.0854 1040.83 92.5494 1028.06 92.5494C1016.26 92.5494 1007.81 83.8134 1007.81 68.3574C1007.81 52.8054 1018.46 41.8614 1031.14 41.8614C1043.14 41.8614 1051.39 50.5974 1051.39 66.1494ZM150.144 92.2614L151.2 83.3334C130.08 82.8534 122.88 79.6854 121.728 70.0854L152.544 69.2214C154.272 52.6134 147.84 42.0534 134.4 42.0534C121.824 42.0534 111.072 53.3814 111.072 68.0694C111.072 83.6214 119.232 92.5494 150.144 92.2614ZM837.6 83.3334L836.544 92.2614C805.632 92.5494 797.472 83.6214 797.472 68.0694C797.472 53.3814 808.224 42.0534 820.8 42.0534C834.24 42.0534 840.672 52.6134 838.944 69.2214L808.128 70.0854C809.28 79.6854 816.48 82.8534 837.6 83.3334ZM1285.54 92.2614L1285.54 106.853L1274.88 107.813L1274.88 91.3974C1274.88 66.7254 1274.78 53.1894 1274.3 43.6854L1284.1 43.1094L1284.58 48.0054C1287.94 44.7414 1292.35 42.0534 1297.92 42.0534C1307.9 42.0534 1315.3 50.8854 1315.3 64.8054C1315.3 82.2774 1303.01 92.3574 1288.03 92.3574C1287.17 92.3574 1286.4 92.3574 1285.54 92.2614ZM1364.54 92.2614L1365.6 83.3334C1344.48 82.8534 1337.28 79.6854 1336.13 70.0854L1366.94 69.2214C1368.67 52.6134 1362.24 42.0534 1348.8 42.0534C1336.22 42.0534 1325.47 53.3814 1325.47 68.0694C1325.47 83.6214 1333.63 92.5494 1364.54 92.2614ZM247.776 91.3974L257.568 90.9174C257.088 84.2934 256.704 76.7094 256.704 67.3974C256.704 48.7734 249.504 42.8214 220.704 42.3414L219.648 51.3654C240.192 52.0374 245.472 54.2454 246.048 63.4614C225.888 62.5974 216.864 70.2774 216.864 79.8774C216.864 87.6534 222.72 92.3574 231.264 92.3574C238.176 92.3574 243.264 89.1894 246.912 85.6374C247.2 87.9414 247.68 91.0134 247.776 91.3974ZM943.968 90.9174L934.176 91.3974C934.08 91.0134 933.6 87.9414 933.312 85.6374C929.664 89.1894 924.576 92.3574 917.664 92.3574C909.12 92.3574 903.264 87.6534 903.264 79.8774C903.264 70.2774 912.288 62.5974 932.448 63.4614C931.872 54.2454 926.592 52.0374 906.048 51.3654L907.104 42.3414C935.904 42.8214 943.104 48.7734 943.104 67.3974C943.104 76.7094 943.488 84.2934 943.968 90.9174ZM1381.44 57.2214C1381.44 48.9654 1390.27 41.0934 1415.33 42.8214L1415.71 52.0374C1397.95 50.5014 1392.48 52.6134 1392.48 55.9734C1392.48 62.4054 1418.11 65.1894 1418.11 77.1894C1418.11 85.4454 1409.28 92.8374 1381.73 91.5894L1382.11 82.4694C1401.12 83.7174 1406.98 81.5094 1406.98 77.7654C1406.98 70.9494 1381.44 69.2214 1381.44 57.2214ZM323.712 67.9734C323.712 82.7574 331.584 93.9894 361.44 91.4934L362.496 82.6614C340.992 83.9094 334.272 78.9174 334.272 66.6294C334.272 57.4134 337.92 51.9414 361.824 52.7094L361.152 42.6294C332.544 42.7254 323.712 54.6294 323.712 67.9734ZM429.216 108.101C446.4 106.565 451.488 102.053 458.4 82.7574C463.68 68.5494 468.384 54.1494 471.84 43.3014L461.568 43.3014C460.32 46.4694 453.792 69.2214 450.816 78.4374L449.856 78.4374C445.44 67.8774 440.352 53.4774 436.416 42.9174L425.568 43.6854C429.216 53.1894 439.104 78.6294 443.616 88.7094L445.44 89.3814C442.656 95.8134 439.68 96.8694 428.352 98.5014L429.216 108.101ZM1221.22 108.101C1238.4 106.565 1243.49 102.053 1250.4 82.7574C1255.68 68.5494 1260.38 54.1494 1263.84 43.3014L1253.57 43.3014C1252.32 46.4694 1245.79 69.2214 1242.82 78.4374L1241.86 78.4374C1237.44 67.8774 1232.35 53.4774 1228.42 42.9174L1217.57 43.6854C1221.22 53.1894 1231.1 78.6294 1235.62 88.7094L1237.44 89.3814C1234.66 95.8134 1231.68 96.8694 1220.35 98.5014L1221.22 108.101ZM103.296 83.0454L102.432 91.1094L59.328 91.1094L59.328 83.0454L75.936 83.0454L75.936 51.6534L59.136 50.8854L60 43.3014L86.688 43.3014L86.688 83.0454L103.296 83.0454ZM1018.66 66.3414C1018.66 77.9574 1023.07 83.9094 1029.98 83.9094C1036.42 83.9094 1040.64 78.6294 1040.64 68.0694C1040.64 56.5494 1036.22 50.5974 1029.31 50.5974C1022.88 50.5974 1018.66 55.8774 1018.66 66.3414ZM132.48 50.7894C139.104 50.7894 142.08 55.4934 142.368 63.0774C136.416 63.2694 126.72 63.5574 121.632 63.7494C122.112 54.8214 125.952 50.7894 132.48 50.7894ZM828.768 63.0774C828.48 55.4934 825.504 50.7894 818.88 50.7894C812.352 50.7894 808.512 54.8214 808.032 63.7494C813.12 63.5574 822.816 63.2694 828.768 63.0774ZM1285.54 81.9894C1287.65 82.7574 1289.47 83.1414 1291.78 83.1414C1299.07 83.1414 1304.74 77.9574 1304.74 67.3974C1304.74 56.3574 1300.03 50.7894 1293.6 50.7894C1290.72 50.7894 1287.74 51.9414 1285.15 53.8614C1285.25 60.6774 1285.44 69.5094 1285.54 81.9894ZM1346.88 50.7894C1353.5 50.7894 1356.48 55.4934 1356.77 63.0774C1350.82 63.2694 1341.12 63.5574 1336.03 63.7494C1336.51 54.8214 1340.35 50.7894 1346.88 50.7894ZM235.488 84.1014C230.592 84.1014 227.424 81.6054 227.424 77.3814C227.424 72.1014 231.36 68.9334 246.144 70.4694C246.24 74.4054 246.24 77.5734 246.432 80.3574C243.072 82.6614 239.136 84.1014 235.488 84.1014ZM913.824 77.3814C913.824 81.6054 916.992 84.1014 921.888 84.1014C925.536 84.1014 929.472 82.6614 932.832 80.3574C932.64 77.5734 932.64 74.4054 932.544 70.4694C917.76 68.9334 913.824 72.1014 913.824 77.3814Z" />
    </g>
  </g>
</svg>