<?xml version="1.0" encoding="utf-8"?>
<svg width="1489px" height="1492px" viewbox="0 0 1489 1492" version="1.1" xmlns:xlink="http://www.w3.org/1999/xlink" xmlns="http://www.w3.org/2000/svg">
  <defs>
    <filter filterUnits="userSpaceOnUse" color-interpolation-filters="sRGB" id="filter_1">
      <feFlood flood-opacity="0" result="BackgroundImageFix" />
      <feColorMatrix in="SourceAlpha" type="matrix" values="0 0 0 0 0 0 0 0 0 0 0 0 0 0 0 0 0 0 127 0" />
      <feOffset dx="20" dy="20" />
      <feGaussianBlur stdDeviation="25" />
      <feColorMatrix type="matrix" values="0 0 0 0 0.39215687 0 0 0 0 0.39215687 0 0 0 0 0.39215687 0 0 0 0.49803922 0" />
      <feBlend mode="normal" in2="BackgroundImageFix" result="effect0_dropShadow" />
      <feBlend mode="normal" in="SourceGraphic" in2="effect0_dropShadow" result="shape" />
    </filter>
    <rect width="1489" height="1491.0001" id="artboard_1" />
    <clipPath id="clip_1">
      <use xlink:href="#artboard_1" clip-rule="evenodd" />
    </clipPath>
  </defs>
  <g id="Full-HD" clip-path="url(#clip_1)">
    <use xlink:href="#artboard_1" stroke="none" fill="#797DA0" />
    <g id="Group" transform="translate(144 190)">
      <path d="M0 0L1200 0L1200 1250L0 1250L0 0Z" id="Rectangle" fill="#D3D3D3" fill-rule="evenodd" stroke="#808080" stroke-width="1" filter="url(#filter_1)" />
      <g id="New-group" transform="translate(33.5 25)">
        <path d="M34.999 0L1098 0Q1098.86 0 1099.72 0.0421578Q1100.58 0.0843156 1101.43 0.16853Q1102.29 0.252744 1103.14 0.378811Q1103.99 0.504879 1104.83 0.672496Q1105.67 0.840113 1106.5 1.04888Q1107.34 1.25764 1108.16 1.50705Q1108.98 1.75645 1109.79 2.0459Q1110.6 2.33535 1111.39 2.66414Q1112.19 2.99293 1112.96 3.36028Q1113.74 3.72762 1114.5 4.13264Q1115.26 4.53765 1115.99 4.97936Q1116.73 5.42106 1117.45 5.89839Q1118.16 6.37573 1118.85 6.88754Q1119.54 7.39935 1120.2 7.94441Q1120.87 8.48946 1121.5 9.06645Q1122.14 9.64344 1122.75 10.251Q1123.36 10.8585 1123.93 11.4951Q1124.51 12.1317 1125.06 12.7959Q1125.6 13.46 1126.11 14.1501Q1126.62 14.8402 1127.1 15.5546Q1127.58 16.269 1128.02 17.0059Q1128.46 17.7429 1128.87 18.5006Q1129.27 19.2583 1129.64 20.035Q1130.01 20.8117 1130.34 21.6055Q1130.66 22.3992 1130.95 23.2082Q1131.24 24.0171 1131.49 24.8393Q1131.74 25.6615 1131.95 26.4949Q1132.16 27.3284 1132.33 28.171Q1132.49 29.0137 1132.62 29.8636Q1132.75 30.7135 1132.83 31.5685Q1132.92 32.4235 1132.96 33.2817Q1133 34.1398 1133 34.999L1133 240.001Q1133 240.86 1132.96 241.718Q1132.92 242.576 1132.83 243.432Q1132.75 244.287 1132.62 245.136Q1132.49 245.986 1132.33 246.829Q1132.16 247.672 1131.95 248.505Q1131.74 249.338 1131.49 250.161Q1131.24 250.983 1130.95 251.792Q1130.66 252.601 1130.34 253.395Q1130.01 254.188 1129.64 254.965Q1129.27 255.742 1128.87 256.499Q1128.46 257.257 1128.02 257.994Q1127.58 258.731 1127.1 259.445Q1126.62 260.16 1126.11 260.85Q1125.6 261.54 1125.06 262.204Q1124.51 262.868 1123.93 263.505Q1123.36 264.142 1122.75 264.749Q1122.14 265.357 1121.5 265.934Q1120.87 266.51 1120.2 267.056Q1119.54 267.601 1118.85 268.112Q1118.16 268.624 1117.45 269.102Q1116.73 269.579 1115.99 270.021Q1115.26 270.462 1114.5 270.867Q1113.74 271.272 1112.96 271.64Q1112.19 272.007 1111.39 272.336Q1110.6 272.665 1109.79 272.954Q1108.98 273.244 1108.16 273.493Q1107.34 273.742 1106.51 273.951Q1105.67 274.16 1104.83 274.327Q1103.99 274.495 1103.14 274.621Q1102.29 274.747 1101.43 274.831Q1100.58 274.916 1099.72 274.958Q1098.86 275 1098 275L34.999 275Q34.1398 275 33.2817 274.958Q32.4235 274.916 31.5685 274.831Q30.7135 274.747 29.8636 274.621Q29.0137 274.495 28.171 274.327Q27.3284 274.16 26.4949 273.951Q25.6615 273.742 24.8393 273.493Q24.0171 273.244 23.2082 272.954Q22.3992 272.665 21.6055 272.336Q20.8117 272.007 20.035 271.64Q19.2583 271.272 18.5006 270.867Q17.7429 270.462 17.0059 270.021Q16.269 269.579 15.5546 269.102Q14.8402 268.624 14.1501 268.112Q13.46 267.601 12.7959 267.056Q12.1317 266.51 11.4951 265.934Q10.8585 265.357 10.251 264.749Q9.64344 264.141 9.06645 263.505Q8.48946 262.868 7.94441 262.204Q7.39935 261.54 6.88754 260.85Q6.37573 260.16 5.89839 259.445Q5.42106 258.731 4.97936 257.994Q4.53765 257.257 4.13264 256.499Q3.72762 255.742 3.36028 254.965Q2.99293 254.188 2.66414 253.395Q2.33535 252.601 2.0459 251.792Q1.75645 250.983 1.50705 250.161Q1.25764 249.338 1.04888 248.505Q0.840113 247.672 0.672496 246.829Q0.504879 245.986 0.378811 245.136Q0.252744 244.287 0.16853 243.432Q0.0843156 242.576 0.0421578 241.718Q0 240.86 0 240.001L0 34.999Q0 34.1398 0.0421578 33.2817Q0.0843156 32.4235 0.16853 31.5685Q0.252744 30.7135 0.378811 29.8636Q0.504879 29.0137 0.672496 28.171Q0.840113 27.3284 1.04888 26.4949Q1.25764 25.6615 1.50705 24.8393Q1.75645 24.0171 2.0459 23.2082Q2.33535 22.3992 2.66414 21.6055Q2.99293 20.8117 3.36028 20.035Q3.72762 19.2583 4.13264 18.5006Q4.53765 17.7429 4.97936 17.0059Q5.42106 16.269 5.89839 15.5546Q6.37573 14.8402 6.88754 14.1501Q7.39935 13.46 7.94441 12.7959Q8.48946 12.1317 9.06645 11.4951Q9.64344 10.8585 10.251 10.251Q10.8585 9.64344 11.4951 9.06645Q12.1317 8.48946 12.7959 7.94441Q13.46 7.39935 14.1501 6.88754Q14.8402 6.37573 15.5546 5.89839Q16.269 5.42106 17.0059 4.97936Q17.7429 4.53765 18.5006 4.13264Q19.2583 3.72762 20.035 3.36028Q20.8117 2.99293 21.6055 2.66414Q22.3992 2.33535 23.2082 2.0459Q24.0171 1.75645 24.8393 1.50705Q25.6615 1.25764 26.4949 1.04888Q27.3284 0.840113 28.171 0.672496Q29.0137 0.504879 29.8636 0.378811Q30.7135 0.252744 31.5685 0.16853Q32.4235 0.0843156 33.2817 0.0421578Q34.1398 0 34.999 0Z" id="Rectangle-2" fill="#67568C" fill-rule="evenodd" stroke="none" filter="url(#filter_1)" />
        <g id="Data-Static-and-global-variab" transform="translate(141.625 34.5)">
          <g id="Data-Static-and-global-" fill="#FFFFFF">
            <path d="M380.715 39.028L378.155 47.604L372.971 47.86L374.955 39.348L380.715 39.028ZM664.747 77.62L665.707 80.18C653.803 87.284 645.931 86.388 644.395 76.852C643.115 77.62 641.707 78.516 641.323 78.772L639.979 76.468C640.555 76.084 642.667 74.74 644.075 73.78L644.075 72.948C644.075 55.54 655.147 39.156 664.171 39.156C667.947 39.156 670.187 41.588 670.187 45.812C670.187 53.428 664.043 63.348 649.195 73.972C649.899 82.036 655.019 82.292 664.747 77.62ZM805.547 77.62L806.507 80.18C794.603 87.284 786.731 86.388 785.195 76.852C783.915 77.62 782.507 78.516 782.123 78.772L780.779 76.468C781.355 76.084 783.467 74.74 784.875 73.78L784.875 72.948C784.875 55.54 795.947 39.156 804.971 39.156C808.747 39.156 810.987 41.588 810.987 45.812C810.987 53.428 804.843 63.348 789.995 73.972C790.699 82.036 795.819 82.292 805.547 77.62ZM562.987 79.412L563.563 81.908C554.219 87.348 551.595 84.916 552.235 78.58C548.651 82.164 544.171 84.98 540.651 84.98C536.683 84.98 533.675 81.524 533.675 74.612C533.675 63.092 541.291 52.276 552.427 52.276C553.835 52.276 555.371 52.404 557.099 52.66L559.595 39.732L564.587 39.348L557.419 76.084C556.523 80.692 556.907 81.716 562.987 79.412ZM738.411 62.708C738.411 74.228 730.667 84.98 719.339 84.98C716.523 84.98 713.003 84.34 709.931 83.444L718.443 39.732L723.371 39.348L719.595 58.676C723.307 55.156 727.787 52.212 731.307 52.212C735.403 52.212 738.411 55.668 738.411 62.708ZM102.251 81.012L101.739 78.388C88.363 82.932 86.187 80.5 87.787 73.524L91.499 57.012L103.723 57.012L104.491 53.108L92.395 53.108L94.443 43.956L90.603 44.276L85.675 53.108L81.643 53.108L80.619 57.012L86.571 57.012L82.859 73.78C80.491 84.02 85.931 89.268 102.251 81.012ZM235.435 43.956C242.027 43.956 245.419 47.796 246.443 54.9L241.835 55.796C240.939 50.548 238.507 48.308 234.219 48.308C229.867 48.308 226.795 51.38 226.795 54.964C226.795 62.324 243.179 66.164 243.179 75.06C243.179 81.524 235.435 87.668 215.531 83.444L216.555 78.324C232.555 82.42 237.867 79.412 237.867 75.508C237.867 68.98 221.547 64.884 221.547 55.604C221.547 49.524 227.307 43.956 235.435 43.956ZM278.251 81.012L277.739 78.388C264.363 82.932 262.187 80.5 263.787 73.524L267.499 57.012L279.723 57.012L280.491 53.108L268.395 53.108L270.443 43.956L266.603 44.276L261.675 53.108L257.643 53.108L256.619 57.012L262.571 57.012L258.859 73.78C256.491 84.02 261.931 89.268 278.251 81.012ZM348.651 81.012L348.139 78.388C334.763 82.932 332.587 80.5 334.187 73.524L337.899 57.012L350.123 57.012L350.891 53.108L338.795 53.108L340.843 43.956L337.003 44.276L332.075 53.108L328.043 53.108L327.019 57.012L332.971 57.012L329.259 73.78C326.891 84.02 332.331 89.268 348.651 81.012ZM665.451 47.924C665.451 45.364 664.235 44.084 662.443 44.084C657.067 44.084 649.643 56.5 649.131 70.516C661.035 61.172 665.451 53.172 665.451 47.924ZM806.251 47.924C806.251 45.364 805.035 44.084 803.243 44.084C797.867 44.084 790.443 56.5 789.931 70.516C801.835 61.172 806.251 53.172 806.251 47.924ZM12.907 44.788C27.819 42.292 35.883 47.348 35.883 59.764C35.883 74.356 26.475 87.092 5.22698 84.34L12.907 44.788ZM11.179 80.244C24.363 81.332 30.699 71.604 30.699 60.34C30.699 51.444 26.091 47.732 17.323 48.692L11.179 80.244ZM627.883 89.588C628.864 87.6271 628.642 85.1855 628.324 81.6729C628.123 79.4544 627.883 76.809 627.883 73.588C627.883 72.756 627.947 71.732 628.011 70.644C631.339 64.18 634.219 56.244 634.219 54.004C634.219 53.044 632.171 52.212 630.891 52.212C630.443 52.212 629.867 52.788 629.227 53.812C627.051 52.788 624.875 52.276 622.571 52.276C612.011 52.276 604.459 62.388 604.459 72.948C604.459 79.54 607.723 82.804 612.075 82.804C616.235 82.804 620.267 79.86 623.403 75.956C623.448 78.2718 623.651 80.3586 623.826 82.158C624.149 85.4807 624.377 87.8236 623.339 88.82C622.059 90.164 616.683 91.38 604.267 90.356L603.755 95.22C618.923 96.116 625.899 93.556 627.883 89.588ZM674.731 72.308C674.731 80.564 679.211 85.044 686.187 85.044C695.659 85.044 703.083 76.148 703.083 65.012C703.083 56.756 698.475 52.212 691.563 52.212C682.027 52.212 674.731 61.3 674.731 72.308ZM421.227 62.964C421.547 55.412 418.859 52.276 412.971 52.276C402.859 52.276 394.155 62.132 394.155 73.076C394.155 83.508 402.859 89.204 419.051 81.332L418.411 78.644C405.035 82.868 399.147 80.436 399.147 72.244C399.147 63.924 404.779 56.564 411.691 56.564C415.083 56.564 416.555 58.228 416.619 62.964L421.227 62.964ZM528.171 82.036L527.467 79.412C522.859 81.268 522.027 80.82 522.027 79.092C522.027 75.444 526.315 64.564 526.315 58.228C526.315 54.9 524.843 52.276 520.811 52.276C516.907 52.276 512.363 54.708 507.883 59.38C508.203 56.948 508.651 53.876 508.843 52.788L503.979 53.108C502.571 62.388 501.163 69.428 498.283 84.34L503.147 84.34C504.043 79.924 506.603 67.188 507.307 63.22C511.403 59.06 515.115 56.948 517.803 56.948C519.979 56.948 521.003 58.228 521.003 60.596C521.003 65.78 516.843 76.212 516.843 81.14C516.843 85.364 520.491 86.772 528.171 82.036ZM69.995 79.412L70.507 81.972C61.163 87.476 58.667 84.852 59.435 78.26C55.659 81.972 51.115 84.98 47.531 84.98C43.691 84.98 40.875 81.78 40.875 75.188C40.875 63.476 48.619 52.34 59.947 52.34C62.635 52.34 65.643 52.788 68.907 53.684L64.491 76.212C63.595 80.628 63.979 81.652 69.995 79.412ZM140.395 79.412L140.907 81.972C131.563 87.476 129.067 84.852 129.835 78.26C126.059 81.972 121.515 84.98 117.931 84.98C114.091 84.98 111.275 81.78 111.275 75.188C111.275 63.476 119.019 52.34 130.347 52.34C133.035 52.34 136.043 52.788 139.307 53.684L134.891 76.212C133.995 80.628 134.379 81.652 140.395 79.412ZM316.395 79.412L316.907 81.972C307.563 87.476 305.067 84.852 305.835 78.26C302.059 81.972 297.515 84.98 293.931 84.98C290.091 84.98 287.275 81.78 287.275 75.188C287.275 63.476 295.019 52.34 306.347 52.34C309.035 52.34 312.043 52.788 315.307 53.684L310.891 76.212C309.995 80.628 310.379 81.652 316.395 79.412ZM492.395 79.412L492.907 81.972C483.563 87.476 481.067 84.852 481.835 78.26C478.059 81.972 473.515 84.98 469.931 84.98C466.091 84.98 463.275 81.78 463.275 75.188C463.275 63.476 471.019 52.34 482.347 52.34C485.035 52.34 488.043 52.788 491.307 53.684L486.891 76.212C485.995 80.628 486.379 81.652 492.395 79.412ZM774.507 81.972L773.995 79.412C767.979 81.652 767.595 80.628 768.491 76.212L772.907 53.684C769.643 52.788 766.635 52.34 763.947 52.34C752.619 52.34 744.875 63.476 744.875 75.188C744.875 81.78 747.691 84.98 751.531 84.98C755.115 84.98 759.659 81.972 763.435 78.26C762.667 84.852 765.163 87.476 774.507 81.972ZM384.171 78.772L384.747 81.524C368.939 87.988 363.563 85.044 365.995 75.892L370.859 57.396L359.531 58.932L359.211 56.244L372.395 52.98L376.811 53.044L371.051 75.06C369.579 80.82 371.243 82.036 384.171 78.772ZM165.739 63.22L167.211 55.796L160.171 55.796L158.699 63.22L165.739 63.22ZM697.963 65.716C697.963 73.844 693.483 80.884 687.019 80.884C682.411 80.884 679.787 77.492 679.787 71.604C679.787 63.54 684.203 56.372 690.731 56.372C695.339 56.372 697.963 59.828 697.963 65.716ZM538.667 73.332C538.667 78.068 540.587 80.308 543.083 80.308C545.899 80.308 549.803 77.876 552.747 74.804L556.139 57.524C553.707 56.82 551.403 56.436 549.931 56.436C543.723 56.436 538.667 64.884 538.667 73.332ZM614.379 78.196C611.563 78.196 609.451 76.148 609.451 71.732C609.451 64.372 614.123 56.436 620.523 56.436C622.251 56.436 624.555 57.012 627.051 58.292C625.579 62.004 624.171 66.996 623.595 71.54C620.779 75.828 617.451 78.196 614.379 78.196ZM45.931 74.036C45.931 78.452 47.723 80.308 50.027 80.308C52.715 80.308 56.811 77.684 59.947 74.548C60.587 71.284 62.315 62.516 63.275 57.652C60.971 56.948 58.731 56.628 57.259 56.628C50.987 56.628 45.931 65.268 45.931 74.036ZM116.331 74.036C116.331 78.452 118.123 80.308 120.427 80.308C123.115 80.308 127.211 77.684 130.347 74.548C130.987 71.284 132.715 62.516 133.675 57.652C131.371 56.948 129.131 56.628 127.659 56.628C121.387 56.628 116.331 65.268 116.331 74.036ZM292.331 74.036C292.331 78.452 294.123 80.308 296.427 80.308C299.115 80.308 303.211 77.684 306.347 74.548C306.987 71.284 308.715 62.516 309.675 57.652C307.371 56.948 305.131 56.628 303.659 56.628C297.387 56.628 292.331 65.268 292.331 74.036ZM468.331 74.036C468.331 78.452 470.123 80.308 472.427 80.308C475.115 80.308 479.211 77.684 482.347 74.548C482.987 71.284 484.715 62.516 485.675 57.652C483.371 56.948 481.131 56.628 479.659 56.628C473.387 56.628 468.331 65.268 468.331 74.036ZM754.027 80.308C751.723 80.308 749.931 78.452 749.931 74.036C749.931 65.268 754.987 56.628 761.259 56.628C762.731 56.628 764.971 56.948 767.275 57.652C766.315 62.516 764.587 71.284 763.947 74.548C760.811 77.684 756.715 80.308 754.027 80.308ZM715.563 79.668C718.059 80.372 720.363 80.756 721.963 80.756C728.299 80.756 733.419 72.436 733.419 63.924C733.419 58.996 731.371 56.82 728.939 56.82C726.059 56.82 721.899 59.572 718.827 62.772L715.563 79.668ZM161.323 84.34L162.795 76.916L155.755 76.916L154.283 84.34L161.323 84.34Z" />
          </g>
          <g id="variables" fill="#FFFFFF">
            <path d="M395.755 127.17L398.315 118.594L392.555 118.914L390.571 127.426L395.755 127.17ZM506.347 157.186L507.307 159.746C495.403 166.85 487.531 165.954 485.995 156.418C484.715 157.186 483.307 158.082 482.923 158.338L481.579 156.034C482.155 155.65 484.267 154.306 485.675 153.346L485.675 152.514C485.675 135.106 496.747 118.722 505.771 118.722C509.547 118.722 511.787 121.154 511.787 125.378C511.787 132.994 505.643 142.914 490.795 153.538C491.499 161.602 496.619 161.858 506.347 157.186ZM455.339 164.546C466.667 164.546 474.411 153.794 474.411 142.274C474.411 135.234 471.403 131.778 467.307 131.778C463.787 131.778 459.307 134.722 455.595 138.242L459.371 118.914L454.443 119.298L445.931 163.01C449.003 163.906 452.523 164.546 455.339 164.546ZM507.051 127.49C507.051 124.93 505.835 123.65 504.043 123.65C498.667 123.65 491.243 136.066 490.731 150.082C502.635 140.738 507.051 132.738 507.051 127.49ZM569.003 139.714C570.987 144.706 577.707 150.274 577.707 155.586C577.707 160.578 573.035 165.25 555.691 164.354L555.819 159.746C569.643 160.898 572.779 158.914 572.779 155.906C572.779 152.45 567.851 148.29 565.035 143.49C562.283 145.858 558.635 148.482 554.027 151.234L552.683 148.93C558.059 145.218 561.387 142.594 563.563 140.226C563.307 139.33 563.179 138.434 563.179 137.474C563.179 133.634 566.635 129.922 569.835 129.922C573.419 129.922 574.251 133.762 569.003 139.714ZM368.875 159.362L369.323 162.05C355.499 168.194 350.955 163.522 361.899 138.05C358.379 139.074 354.795 139.714 351.787 139.778C349.611 144.258 345.835 149.442 341.675 153.858L339.691 152.002C343.595 147.33 346.347 143.49 348.203 139.458C346.283 139.01 345.067 138.05 345.067 136.514C345.067 133.89 348.267 130.37 351.339 130.37C352.811 130.37 353.771 131.394 353.771 133.186Q353.771 134.338 353.387 135.682C357.291 135.234 362.027 133.954 366.123 132.098L368.491 133.442C357.355 160.578 359.275 162.498 368.875 159.362ZM542.955 160.322L542.315 157.698C527.787 162.498 521.707 160.386 521.707 152.13L521.707 152.066C536.427 150.978 544.683 146.562 544.683 139.266C544.683 134.658 541.291 131.778 535.787 131.778C524.971 131.778 516.843 142.85 516.843 152.77C516.843 163.266 525.931 169.026 542.955 160.322ZM334.507 161.538L333.995 158.978C327.979 161.218 327.595 160.194 328.491 155.778L332.907 133.25C329.643 132.354 326.635 131.906 323.947 131.906C312.619 131.906 304.875 143.042 304.875 154.754C304.875 161.346 307.691 164.546 311.531 164.546C315.115 164.546 319.659 161.538 323.435 157.826C322.667 164.418 325.163 167.042 334.507 161.538ZM439.595 158.978L440.107 161.538C430.763 167.042 428.267 164.418 429.035 157.826C425.259 161.538 420.715 164.546 417.131 164.546C413.291 164.546 410.475 161.346 410.475 154.754C410.475 143.042 418.219 131.906 429.547 131.906C432.235 131.906 435.243 132.354 438.507 133.25L434.091 155.778C433.195 160.194 433.579 161.218 439.595 158.978ZM282.219 158.978L281.707 158.978C280.043 150.082 278.571 141.186 277.355 132.418L272.363 132.738C273.771 143.106 275.627 153.666 277.739 164.162L284.075 164.162C290.155 153.858 296.299 142.85 301.803 132.546L296.555 132.546C291.947 141.314 287.275 150.146 282.219 158.978ZM402.347 161.09L401.771 158.338C388.843 161.602 387.179 160.386 388.651 154.626L394.411 132.61L389.995 132.546L376.811 135.81L377.131 138.498L388.459 136.962L383.595 155.458C381.163 164.61 386.539 167.554 402.347 161.09ZM534.571 135.938C537.835 135.938 539.883 137.666 539.883 140.226C539.883 145.474 532.843 148.354 521.963 149.122C523.051 142.466 527.787 135.938 534.571 135.938ZM314.027 159.874C311.723 159.874 309.931 158.018 309.931 153.602C309.931 144.834 314.987 136.194 321.259 136.194C322.731 136.194 324.971 136.514 327.275 137.218C326.315 142.082 324.587 150.85 323.947 154.114C320.811 157.25 316.715 159.874 314.027 159.874ZM415.531 153.602C415.531 158.018 417.323 159.874 419.627 159.874C422.315 159.874 426.411 157.25 429.547 154.114C430.187 150.85 431.915 142.082 432.875 137.218C430.571 136.514 428.331 136.194 426.859 136.194C420.587 136.194 415.531 144.834 415.531 153.602ZM457.963 160.322C456.363 160.322 454.059 159.938 451.563 159.234L454.827 142.338C457.899 139.138 462.059 136.386 464.939 136.386C467.371 136.386 469.419 138.562 469.419 143.49C469.419 152.002 464.299 160.322 457.963 160.322Z" />
          </g>
        </g>
      </g>
      <g id="New-group-Copy" transform="translate(33.5 334)">
        <path d="M34.999 0L1098 0Q1098.86 0 1099.72 0.0421578Q1100.58 0.0843156 1101.43 0.16853Q1102.29 0.252744 1103.14 0.378811Q1103.99 0.504879 1104.83 0.672496Q1105.67 0.840113 1106.5 1.04888Q1107.34 1.25764 1108.16 1.50705Q1108.98 1.75645 1109.79 2.0459Q1110.6 2.33535 1111.39 2.66414Q1112.19 2.99293 1112.96 3.36028Q1113.74 3.72762 1114.5 4.13264Q1115.26 4.53765 1115.99 4.97936Q1116.73 5.42106 1117.45 5.89839Q1118.16 6.37573 1118.85 6.88754Q1119.54 7.39935 1120.2 7.94441Q1120.87 8.48946 1121.5 9.06645Q1122.14 9.64344 1122.75 10.251Q1123.36 10.8585 1123.93 11.4951Q1124.51 12.1317 1125.06 12.7959Q1125.6 13.46 1126.11 14.1501Q1126.62 14.8402 1127.1 15.5546Q1127.58 16.269 1128.02 17.0059Q1128.46 17.7429 1128.87 18.5006Q1129.27 19.2583 1129.64 20.035Q1130.01 20.8117 1130.34 21.6055Q1130.66 22.3992 1130.95 23.2082Q1131.24 24.0171 1131.49 24.8393Q1131.74 25.6615 1131.95 26.4949Q1132.16 27.3284 1132.33 28.171Q1132.49 29.0137 1132.62 29.8636Q1132.75 30.7135 1132.83 31.5685Q1132.92 32.4235 1132.96 33.2817Q1133 34.1398 1133 34.999L1133 240.001Q1133 240.86 1132.96 241.718Q1132.92 242.576 1132.83 243.432Q1132.75 244.287 1132.62 245.136Q1132.49 245.986 1132.33 246.829Q1132.16 247.672 1131.95 248.505Q1131.74 249.338 1131.49 250.161Q1131.24 250.983 1130.95 251.792Q1130.66 252.601 1130.34 253.395Q1130.01 254.188 1129.64 254.965Q1129.27 255.742 1128.87 256.499Q1128.46 257.257 1128.02 257.994Q1127.58 258.731 1127.1 259.445Q1126.62 260.16 1126.11 260.85Q1125.6 261.54 1125.06 262.204Q1124.51 262.868 1123.93 263.505Q1123.36 264.142 1122.75 264.749Q1122.14 265.357 1121.5 265.934Q1120.87 266.51 1120.2 267.056Q1119.54 267.601 1118.85 268.112Q1118.16 268.624 1117.45 269.102Q1116.73 269.579 1115.99 270.021Q1115.26 270.462 1114.5 270.867Q1113.74 271.272 1112.96 271.64Q1112.19 272.007 1111.39 272.336Q1110.6 272.665 1109.79 272.954Q1108.98 273.244 1108.16 273.493Q1107.34 273.742 1106.51 273.951Q1105.67 274.16 1104.83 274.327Q1103.99 274.495 1103.14 274.621Q1102.29 274.747 1101.43 274.831Q1100.58 274.916 1099.72 274.958Q1098.86 275 1098 275L34.999 275Q34.1398 275 33.2817 274.958Q32.4235 274.916 31.5685 274.831Q30.7135 274.747 29.8636 274.621Q29.0137 274.495 28.171 274.327Q27.3284 274.16 26.4949 273.951Q25.6615 273.742 24.8393 273.493Q24.0171 273.244 23.2082 272.954Q22.3992 272.665 21.6055 272.336Q20.8117 272.007 20.035 271.64Q19.2583 271.272 18.5006 270.867Q17.7429 270.462 17.0059 270.021Q16.269 269.579 15.5546 269.102Q14.8402 268.624 14.1501 268.112Q13.46 267.601 12.7959 267.056Q12.1317 266.51 11.4951 265.934Q10.8585 265.357 10.251 264.749Q9.64344 264.141 9.06645 263.505Q8.48946 262.868 7.94441 262.204Q7.39935 261.54 6.88754 260.85Q6.37573 260.16 5.89839 259.445Q5.42106 258.731 4.97936 257.994Q4.53765 257.257 4.13264 256.499Q3.72762 255.742 3.36028 254.965Q2.99293 254.188 2.66414 253.395Q2.33535 252.601 2.0459 251.792Q1.75645 250.983 1.50705 250.161Q1.25764 249.338 1.04888 248.505Q0.840113 247.672 0.672496 246.829Q0.504879 245.986 0.378811 245.136Q0.252744 244.287 0.16853 243.432Q0.0843156 242.576 0.0421578 241.718Q0 240.86 0 240.001L0 34.999Q0 34.1398 0.0421578 33.2817Q0.0843156 32.4235 0.16853 31.5685Q0.252744 30.7135 0.378811 29.8636Q0.504879 29.0137 0.672496 28.171Q0.840113 27.3284 1.04888 26.4949Q1.25764 25.6615 1.50705 24.8393Q1.75645 24.0171 2.0459 23.2082Q2.33535 22.3992 2.66414 21.6055Q2.99293 20.8117 3.36028 20.035Q3.72762 19.2583 4.13264 18.5006Q4.53765 17.7429 4.97936 17.0059Q5.42106 16.269 5.89839 15.5546Q6.37573 14.8402 6.88754 14.1501Q7.39935 13.46 7.94441 12.7959Q8.48946 12.1317 9.06645 11.4951Q9.64344 10.8585 10.251 10.251Q10.8585 9.64344 11.4951 9.06645Q12.1317 8.48946 12.7959 7.94441Q13.46 7.39935 14.1501 6.88754Q14.8402 6.37573 15.5546 5.89839Q16.269 5.42106 17.0059 4.97936Q17.7429 4.53765 18.5006 4.13264Q19.2583 3.72762 20.035 3.36028Q20.8117 2.99293 21.6055 2.66414Q22.3992 2.33535 23.2082 2.0459Q24.0171 1.75645 24.8393 1.50705Q25.6615 1.25764 26.4949 1.04888Q27.3284 0.840113 28.171 0.672496Q29.0137 0.504879 29.8636 0.378811Q30.7135 0.252744 31.5685 0.16853Q32.4235 0.0843156 33.2817 0.0421578Q34.1398 0 34.999 0Z" id="Rectangle-2" fill="#FF6E6C" fill-rule="evenodd" stroke="none" filter="url(#filter_1)" />
        <g id="Heap-Dynamic-Memory-or-free-m" transform="translate(141.625 34.5)">
          <g id="Heap-Dynamic-Memory-or-" fill="#FFFFFF">
            <path d="M413.355 47.604L415.915 39.028L410.155 39.348L408.171 47.86L413.355 47.604ZM224.107 44.788C239.019 42.292 247.083 47.348 247.083 59.764C247.083 74.356 237.675 87.092 216.427 84.34L224.107 44.788ZM510.955 44.532L505.003 44.788L497.387 84.34L502.123 84.34L507.947 53.108L508.139 53.108L509.931 77.428L513.323 77.428L524.843 53.108L525.099 53.108L518.827 84.34L523.819 84.34L531.435 44.66L525.291 44.66L513.003 70.964L512.811 70.964L510.955 44.532ZM30.059 84.34L24.811 84.34L28.331 66.292L13.739 66.292L10.219 84.34L5.03498 84.34L12.715 44.66L17.899 44.66L14.507 62.196L29.099 62.196L32.491 44.66L37.739 44.66L30.059 84.34ZM222.379 80.244C235.563 81.332 241.899 71.604 241.899 60.34C241.899 51.444 237.291 47.732 228.523 48.692L222.379 80.244ZM668.075 79.796C658.475 82.932 656.555 81.012 667.691 53.876L665.323 52.532C661.227 54.388 656.491 55.668 652.587 56.116Q652.971 54.772 652.971 53.62C652.971 51.828 652.011 50.804 650.539 50.804C647.467 50.804 644.267 54.324 644.267 56.948C644.267 58.484 645.483 59.444 647.403 59.892C645.547 63.924 642.795 67.764 638.891 72.436L640.875 74.292C645.035 69.876 648.811 64.692 650.987 60.212C653.995 60.148 657.579 59.508 661.099 58.484C650.155 83.956 654.699 88.628 668.523 82.484L668.075 79.796ZM808.491 53.876C797.355 81.012 799.275 82.932 808.875 79.796L809.323 82.484C795.499 88.628 790.955 83.956 801.899 58.484C798.379 59.508 794.795 60.148 791.787 60.212C789.611 64.692 785.835 69.876 781.675 74.292L779.691 72.436C783.595 67.764 786.347 63.924 788.203 59.892C786.283 59.444 785.067 58.484 785.067 56.948C785.067 54.324 788.267 50.804 791.339 50.804C792.811 50.804 793.771 51.828 793.771 53.62Q793.771 54.772 793.387 56.116C797.291 55.668 802.027 54.388 806.123 52.532L808.491 53.876ZM67.115 78.132L67.755 80.756C50.731 89.46 41.643 83.7 41.643 73.204C41.643 63.284 49.771 52.212 60.587 52.212C66.091 52.212 69.483 55.092 69.483 59.7C69.483 66.996 61.227 71.412 46.507 72.5L46.507 72.564C46.507 80.82 52.587 82.932 67.115 78.132ZM116.203 84.596C115.371 88.82 114.667 92.724 114.155 95.22L109.227 95.604C113.259 74.676 115.499 63.476 117.099 53.108L121.899 52.788C121.771 53.748 121.323 56.756 120.939 58.996C124.651 55.284 129.259 52.212 132.907 52.212C136.875 52.212 139.947 55.732 139.947 62.708C139.947 74.228 132.267 85.044 121.003 85.044C119.531 85.044 117.931 84.916 116.203 84.596ZM559.915 78.132L560.555 80.756C543.531 89.46 534.443 83.7 534.443 73.204C534.443 63.284 542.571 52.212 553.387 52.212C558.891 52.212 562.283 55.092 562.283 59.7C562.283 66.996 554.027 71.412 539.307 72.5L539.307 72.564C539.307 80.82 545.387 82.932 559.915 78.132ZM615.787 85.044C608.811 85.044 604.331 80.564 604.331 72.308C604.331 61.3 611.627 52.212 621.163 52.212C628.075 52.212 632.683 56.756 632.683 65.012C632.683 76.148 625.259 85.044 615.787 85.044ZM745.131 72.308C745.131 80.564 749.611 85.044 756.587 85.044C766.059 85.044 773.483 76.148 773.483 65.012C773.483 56.756 768.875 52.212 761.963 52.212C752.427 52.212 745.131 61.3 745.131 72.308ZM316.267 79.412L316.971 82.036C309.291 86.772 305.643 85.364 305.643 81.14C305.643 76.212 309.803 65.78 309.803 60.596C309.803 58.228 308.779 56.948 306.603 56.948C303.915 56.948 300.203 59.06 296.107 63.22C295.403 67.188 292.843 79.924 291.947 84.34L287.083 84.34C289.963 69.428 291.371 62.388 292.779 53.108L297.643 52.788C297.451 53.876 297.003 56.948 296.683 59.38C301.163 54.708 305.707 52.276 309.611 52.276C313.643 52.276 315.115 54.9 315.115 58.228C315.115 64.564 310.827 75.444 310.827 79.092C310.827 80.82 311.659 81.268 316.267 79.412ZM387.499 80.372L388.139 82.996C381.931 86.068 379.243 85.364 379.243 81.972C379.243 77.684 383.595 63.86 383.595 59.252C383.595 57.908 383.147 57.076 381.995 57.076C380.587 57.076 378.539 58.228 376.235 60.66L371.627 84.34L367.723 84.34L372.075 62.196C372.715 58.996 372.587 57.076 370.795 57.076C369.387 57.076 367.403 58.228 365.099 60.596C363.819 67.636 361.579 79.156 360.555 84.34L355.755 84.34C358.699 69.428 360.043 62.388 361.579 53.172L366.123 52.852C366.059 53.684 365.803 55.54 365.547 56.948C368.363 53.812 370.987 52.276 373.099 52.276C375.531 52.276 376.811 54.068 376.619 57.396C379.691 54.004 382.635 52.276 385.003 52.276C387.371 52.276 388.715 53.812 388.715 56.756C388.715 62.708 384.107 76.596 384.107 79.988C384.107 81.204 384.811 81.396 387.499 80.372ZM448.171 52.276C454.059 52.276 456.747 55.412 456.427 62.964L451.819 62.964C451.755 58.228 450.283 56.564 446.891 56.564C439.979 56.564 434.347 63.924 434.347 72.244C434.347 80.436 440.235 82.868 453.611 78.644L454.251 81.332C438.059 89.204 429.355 83.508 429.355 73.076C429.355 62.132 438.059 52.276 448.171 52.276ZM599.339 82.996L598.699 80.372C596.011 81.396 595.307 81.204 595.307 79.988C595.307 76.596 599.915 62.708 599.915 56.756C599.915 53.812 598.571 52.276 596.203 52.276C593.835 52.276 590.891 54.004 587.819 57.396C588.011 54.068 586.731 52.276 584.299 52.276C582.187 52.276 579.563 53.812 576.747 56.948C577.003 55.54 577.259 53.684 577.323 52.852L572.779 53.172C571.243 62.388 569.899 69.428 566.955 84.34L571.755 84.34C572.779 79.156 575.019 67.636 576.299 60.596C578.603 58.228 580.587 57.076 581.995 57.076C583.787 57.076 583.915 58.996 583.275 62.196L578.923 84.34L582.827 84.34L587.435 60.66C589.739 58.228 591.787 57.076 593.195 57.076C594.347 57.076 594.795 57.908 594.795 59.252C594.795 63.86 590.443 77.684 590.443 81.972C590.443 85.364 593.131 86.068 599.339 82.996ZM105.707 81.972L105.195 79.412C99.179 81.652 98.795 80.628 99.691 76.212L104.107 53.684C100.843 52.788 97.835 52.34 95.147 52.34C83.819 52.34 76.075 63.476 76.075 75.188C76.075 81.78 78.891 84.98 82.731 84.98C86.315 84.98 90.859 81.972 94.635 78.26C93.867 84.852 96.363 87.476 105.707 81.972ZM352.107 81.972L351.595 79.412C345.579 81.652 345.195 80.628 346.091 76.212L350.507 53.684C347.243 52.788 344.235 52.34 341.547 52.34C330.219 52.34 322.475 63.476 322.475 75.188C322.475 81.78 325.291 84.98 329.131 84.98C332.715 84.98 337.259 81.972 341.035 78.26C340.267 84.852 342.763 87.476 352.107 81.972ZM275.691 89.588C276.916 87.1842 276.758 83.5591 276.562 79.0543C276.482 77.2023 276.395 75.2016 276.395 73.076C276.395 72.436 276.395 71.86 276.459 71.284C279.659 65.012 282.091 56.436 282.091 54.068C282.091 53.044 279.979 52.404 278.635 52.404C276.715 52.404 272.747 62.9 272.171 71.604C268.651 75.572 264.619 78.068 261.867 78.068C257.963 78.068 255.979 73.908 263.531 52.916L258.667 53.044C249.771 76.788 253.355 82.612 259.307 82.612C263.723 82.612 268.523 79.412 272.107 75.508C272.138 77.2057 272.202 78.7694 272.261 80.1874C272.444 84.6499 272.569 87.6699 271.403 88.884C270.059 90.164 265.067 91.316 253.035 90.292L252.331 95.284C267.179 96.052 273.707 93.556 275.691 89.588ZM698.962 79.0542C699.158 83.5595 699.316 87.1844 698.091 89.588C696.107 93.556 689.579 96.052 674.731 95.284L675.435 90.292C687.467 91.316 692.459 90.164 693.803 88.884C694.969 87.6699 694.844 84.6501 694.661 80.1877C694.602 78.7696 694.538 77.2058 694.507 75.508C690.923 79.412 686.123 82.612 681.707 82.612C675.755 82.612 672.171 76.788 681.067 53.044L685.931 52.916C678.379 73.908 680.363 78.068 684.267 78.068C687.019 78.068 691.051 75.572 694.571 71.604C695.147 62.9 699.115 52.404 701.035 52.404C702.379 52.404 704.491 53.044 704.491 54.068C704.491 56.436 702.059 65.012 698.859 71.284C698.795 71.86 698.795 72.436 698.795 73.076C698.795 75.2016 698.882 77.2022 698.962 79.0542ZM419.947 81.524L419.371 78.772C406.443 82.036 404.779 80.82 406.251 75.06L412.011 53.044L407.595 52.98L394.411 56.244L394.731 58.932L406.059 57.396L401.195 75.892C398.763 85.044 404.139 87.988 419.947 81.524ZM165.739 63.22L167.211 55.796L160.171 55.796L158.699 63.22L165.739 63.22ZM64.683 60.66C64.683 58.1 62.635 56.372 59.371 56.372C52.587 56.372 47.851 62.9 46.763 69.556C57.643 68.788 64.683 65.908 64.683 60.66ZM557.483 60.66C557.483 58.1 555.435 56.372 552.171 56.372C545.387 56.372 540.651 62.9 539.563 69.556C550.443 68.788 557.483 65.908 557.483 60.66ZM616.619 80.884C623.083 80.884 627.563 73.844 627.563 65.716C627.563 59.828 624.939 56.372 620.331 56.372C613.803 56.372 609.387 63.54 609.387 71.604C609.387 77.492 612.011 80.884 616.619 80.884ZM768.363 65.716C768.363 73.844 763.883 80.884 757.419 80.884C752.811 80.884 750.187 77.492 750.187 71.604C750.187 63.54 754.603 56.372 761.131 56.372C765.739 56.372 768.363 59.828 768.363 65.716ZM85.227 80.308C82.923 80.308 81.131 78.452 81.131 74.036C81.131 65.268 86.187 56.628 92.459 56.628C93.931 56.628 96.171 56.948 98.475 57.652C97.515 62.516 95.787 71.284 95.147 74.548C92.011 77.684 87.915 80.308 85.227 80.308ZM331.627 80.308C329.323 80.308 327.531 78.452 327.531 74.036C327.531 65.268 332.587 56.628 338.859 56.628C340.331 56.628 342.571 56.948 344.875 57.652C343.915 62.516 342.187 71.284 341.547 74.548C338.411 77.684 334.315 80.308 331.627 80.308ZM117.163 79.732C119.659 80.436 121.963 80.82 123.499 80.82C129.963 80.82 135.019 72.436 135.019 63.988C135.019 59.188 133.035 56.948 130.539 56.948C127.659 56.948 123.435 59.7 120.363 62.836C119.787 65.908 118.507 72.82 117.163 79.732ZM161.323 84.34L162.795 76.916L155.755 76.916L154.283 84.34L161.323 84.34Z" />
          </g>
          <g id="free-memory" fill="#FFFFFF">
            <path d="M246.123 147.33C253.803 153.154 257.067 158.85 257.067 163.778C257.067 170.626 251.627 175.362 245.803 175.362C240.363 175.362 236.075 170.818 236.075 160.706C236.075 156.418 236.779 151.938 237.995 147.522L235.627 146.498L236.331 143.49L239.275 143.49C243.947 130.178 253.099 118.786 261.611 118.786C268.587 118.786 269.867 126.53 261.483 135.234L259.371 134.146C264.299 128.322 263.659 124.034 259.755 124.034C254.123 124.034 247.723 132.802 244.011 143.49L262.955 143.49L262.187 147.586L246.123 147.33ZM298.475 159.362L298.923 162.05C285.099 168.194 280.555 163.522 291.499 138.05C287.979 139.074 284.395 139.714 281.387 139.778C279.211 144.258 275.435 149.442 271.275 153.858L269.291 152.002C273.195 147.33 275.947 143.49 277.803 139.458C275.883 139.01 274.667 138.05 274.667 136.514C274.667 133.89 277.867 130.37 280.939 130.37C282.411 130.37 283.371 131.394 283.371 133.186Q283.371 134.338 282.987 135.682C286.891 135.234 291.627 133.954 295.723 132.098L298.091 133.442C286.955 160.578 288.875 162.498 298.475 159.362ZM580.523 162.05L580.075 159.362C570.475 162.498 568.555 160.578 579.691 133.442L577.323 132.098C573.227 133.954 568.491 135.234 564.587 135.682Q564.971 134.338 564.971 133.186C564.971 131.394 564.011 130.37 562.539 130.37C559.467 130.37 556.267 133.89 556.267 136.514C556.267 138.05 557.483 139.01 559.403 139.458C557.547 143.49 554.795 147.33 550.891 152.002L552.875 153.858C557.035 149.442 560.811 144.258 562.987 139.778C565.995 139.714 569.579 139.074 573.099 138.05C562.155 163.522 566.699 168.194 580.523 162.05ZM331.755 160.322L331.115 157.698C316.587 162.498 310.507 160.386 310.507 152.13L310.507 152.066C325.227 150.978 333.483 146.562 333.483 139.266C333.483 134.658 330.091 131.778 324.587 131.778C313.771 131.778 305.643 142.85 305.643 152.77C305.643 163.266 314.731 169.026 331.755 160.322ZM366.315 157.698L366.955 160.322C349.931 169.026 340.843 163.266 340.843 152.77C340.843 142.85 348.971 131.778 359.787 131.778C365.291 131.778 368.683 134.658 368.683 139.266C368.683 146.562 360.427 150.978 345.707 152.066L345.707 152.13C345.707 160.386 351.787 162.498 366.315 157.698ZM471.915 157.698L472.555 160.322C455.531 169.026 446.443 163.266 446.443 152.77C446.443 142.85 454.571 131.778 465.387 131.778C470.891 131.778 474.283 134.658 474.283 139.266C474.283 146.562 466.027 150.978 451.307 152.066L451.307 152.13C451.307 160.386 457.387 162.498 471.915 157.698ZM527.787 164.61C520.811 164.61 516.331 160.13 516.331 151.874C516.331 140.866 523.627 131.778 533.163 131.778C540.075 131.778 544.683 136.322 544.683 144.578C544.683 155.714 537.259 164.61 527.787 164.61ZM440.939 162.562L440.299 159.938C437.611 160.962 436.907 160.77 436.907 159.554C436.907 156.162 441.515 142.274 441.515 136.322C441.515 133.378 440.171 131.842 437.803 131.842C435.435 131.842 432.491 133.57 429.419 136.962C429.611 133.634 428.331 131.842 425.899 131.842C423.787 131.842 421.163 133.378 418.347 136.514C418.603 135.106 418.859 133.25 418.923 132.418L414.379 132.738C412.843 141.954 411.499 148.994 408.555 163.906L413.355 163.906C414.379 158.722 416.619 147.202 417.899 140.162C420.203 137.794 422.187 136.642 423.595 136.642C425.387 136.642 425.515 138.562 424.875 141.762L420.523 163.906L424.427 163.906L429.035 140.226C431.339 137.794 433.387 136.642 434.795 136.642C435.947 136.642 436.395 137.474 436.395 138.818C436.395 143.426 432.043 157.25 432.043 161.538C432.043 164.93 434.731 165.634 440.939 162.562ZM511.339 162.562L510.699 159.938C508.011 160.962 507.307 160.77 507.307 159.554C507.307 156.162 511.915 142.274 511.915 136.322C511.915 133.378 510.571 131.842 508.203 131.842C505.835 131.842 502.891 133.57 499.819 136.962C500.011 133.634 498.731 131.842 496.299 131.842C494.187 131.842 491.563 133.378 488.747 136.514C489.003 135.106 489.259 133.25 489.323 132.418L484.779 132.738C483.243 141.954 481.899 148.994 478.955 163.906L483.755 163.906C484.779 158.722 487.019 147.202 488.299 140.162C490.603 137.794 492.587 136.642 493.995 136.642C495.787 136.642 495.915 138.562 495.275 141.762L490.923 163.906L494.827 163.906L499.435 140.226C501.739 137.794 503.787 136.642 505.195 136.642C506.347 136.642 506.795 137.474 506.795 138.818C506.795 143.426 502.443 157.25 502.443 161.538C502.443 164.93 505.131 165.634 511.339 162.562ZM610.962 158.62C611.158 163.125 611.316 166.75 610.091 169.154C608.107 173.122 601.579 175.618 586.731 174.85L587.435 169.858C599.467 170.882 604.459 169.73 605.803 168.45C606.969 167.236 606.844 164.216 606.661 159.754C606.602 158.336 606.538 156.772 606.507 155.074C602.923 158.978 598.123 162.178 593.707 162.178C587.755 162.178 584.171 156.354 593.067 132.61L597.931 132.482C590.379 153.474 592.363 157.634 596.267 157.634C599.019 157.634 603.051 155.138 606.571 151.17C607.147 142.466 611.115 131.97 613.035 131.97C614.379 131.97 616.491 132.61 616.491 133.634C616.491 136.002 614.059 144.578 610.859 150.85C610.795 151.426 610.795 152.002 610.795 152.642C610.795 154.768 610.882 156.768 610.962 158.62ZM323.371 135.938C326.635 135.938 328.683 137.666 328.683 140.226C328.683 145.474 321.643 148.354 310.763 149.122C311.851 142.466 316.587 135.938 323.371 135.938ZM363.883 140.226C363.883 137.666 361.835 135.938 358.571 135.938C351.787 135.938 347.051 142.466 345.963 149.122C356.843 148.354 363.883 145.474 363.883 140.226ZM469.483 140.226C469.483 137.666 467.435 135.938 464.171 135.938C457.387 135.938 452.651 142.466 451.563 149.122C462.443 148.354 469.483 145.474 469.483 140.226ZM528.619 160.45C535.083 160.45 539.563 153.41 539.563 145.282C539.563 139.394 536.939 135.938 532.331 135.938C525.803 135.938 521.387 143.106 521.387 151.17C521.387 157.058 524.011 160.45 528.619 160.45ZM240.939 160.386C240.939 168.514 244.011 171.266 247.595 171.266C250.859 171.266 253.547 168.77 253.547 164.738C253.547 159.938 250.219 154.498 242.411 148.93C241.451 152.77 240.939 156.674 240.939 160.386Z" />
          </g>
        </g>
      </g>
      <g id="New-group-Copy-2" transform="translate(33.5 643)">
        <path d="M34.999 0L1098 0Q1098.86 0 1099.72 0.0421578Q1100.58 0.0843156 1101.43 0.16853Q1102.29 0.252744 1103.14 0.378811Q1103.99 0.504879 1104.83 0.672496Q1105.67 0.840113 1106.5 1.04888Q1107.34 1.25764 1108.16 1.50705Q1108.98 1.75645 1109.79 2.0459Q1110.6 2.33535 1111.39 2.66414Q1112.19 2.99293 1112.96 3.36028Q1113.74 3.72762 1114.5 4.13264Q1115.26 4.53765 1115.99 4.97936Q1116.73 5.42106 1117.45 5.89839Q1118.16 6.37573 1118.85 6.88754Q1119.54 7.39935 1120.2 7.94441Q1120.87 8.48946 1121.5 9.06645Q1122.14 9.64344 1122.75 10.251Q1123.36 10.8585 1123.93 11.4951Q1124.51 12.1317 1125.06 12.7959Q1125.6 13.46 1126.11 14.1501Q1126.62 14.8402 1127.1 15.5546Q1127.58 16.269 1128.02 17.0059Q1128.46 17.7429 1128.87 18.5006Q1129.27 19.2583 1129.64 20.035Q1130.01 20.8117 1130.34 21.6055Q1130.66 22.3992 1130.95 23.2082Q1131.24 24.0171 1131.49 24.8393Q1131.74 25.6615 1131.95 26.4949Q1132.16 27.3284 1132.33 28.171Q1132.49 29.0137 1132.62 29.8636Q1132.75 30.7135 1132.83 31.5685Q1132.92 32.4235 1132.96 33.2817Q1133 34.1398 1133 34.999L1133 240.001Q1133 240.86 1132.96 241.718Q1132.92 242.576 1132.83 243.432Q1132.75 244.287 1132.62 245.136Q1132.49 245.986 1132.33 246.829Q1132.16 247.672 1131.95 248.505Q1131.74 249.338 1131.49 250.161Q1131.24 250.983 1130.95 251.792Q1130.66 252.601 1130.34 253.395Q1130.01 254.188 1129.64 254.965Q1129.27 255.742 1128.87 256.499Q1128.46 257.257 1128.02 257.994Q1127.58 258.731 1127.1 259.445Q1126.62 260.16 1126.11 260.85Q1125.6 261.54 1125.06 262.204Q1124.51 262.868 1123.93 263.505Q1123.36 264.142 1122.75 264.749Q1122.14 265.357 1121.5 265.934Q1120.87 266.51 1120.2 267.056Q1119.54 267.601 1118.85 268.112Q1118.16 268.624 1117.45 269.102Q1116.73 269.579 1115.99 270.021Q1115.26 270.462 1114.5 270.867Q1113.74 271.272 1112.96 271.64Q1112.19 272.007 1111.39 272.336Q1110.6 272.665 1109.79 272.954Q1108.98 273.244 1108.16 273.493Q1107.34 273.742 1106.51 273.951Q1105.67 274.16 1104.83 274.327Q1103.99 274.495 1103.14 274.621Q1102.29 274.747 1101.43 274.831Q1100.58 274.916 1099.72 274.958Q1098.86 275 1098 275L34.999 275Q34.1398 275 33.2817 274.958Q32.4235 274.916 31.5685 274.831Q30.7135 274.747 29.8636 274.621Q29.0137 274.495 28.171 274.327Q27.3284 274.16 26.4949 273.951Q25.6615 273.742 24.8393 273.493Q24.0171 273.244 23.2082 272.954Q22.3992 272.665 21.6055 272.336Q20.8117 272.007 20.035 271.64Q19.2583 271.272 18.5006 270.867Q17.7429 270.462 17.0059 270.021Q16.269 269.579 15.5546 269.102Q14.8402 268.624 14.1501 268.112Q13.46 267.601 12.7959 267.056Q12.1317 266.51 11.4951 265.934Q10.8585 265.357 10.251 264.749Q9.64344 264.141 9.06645 263.505Q8.48946 262.868 7.94441 262.204Q7.39935 261.54 6.88754 260.85Q6.37573 260.16 5.89839 259.445Q5.42106 258.731 4.97936 257.994Q4.53765 257.257 4.13264 256.499Q3.72762 255.742 3.36028 254.965Q2.99293 254.188 2.66414 253.395Q2.33535 252.601 2.0459 251.792Q1.75645 250.983 1.50705 250.161Q1.25764 249.338 1.04888 248.505Q0.840113 247.672 0.672496 246.829Q0.504879 245.986 0.378811 245.136Q0.252744 244.287 0.16853 243.432Q0.0843156 242.576 0.0421578 241.718Q0 240.86 0 240.001L0 34.999Q0 34.1398 0.0421578 33.2817Q0.0843156 32.4235 0.16853 31.5685Q0.252744 30.7135 0.378811 29.8636Q0.504879 29.0137 0.672496 28.171Q0.840113 27.3284 1.04888 26.4949Q1.25764 25.6615 1.50705 24.8393Q1.75645 24.0171 2.0459 23.2082Q2.33535 22.3992 2.66414 21.6055Q2.99293 20.8117 3.36028 20.035Q3.72762 19.2583 4.13264 18.5006Q4.53765 17.7429 4.97936 17.0059Q5.42106 16.269 5.89839 15.5546Q6.37573 14.8402 6.88754 14.1501Q7.39935 13.46 7.94441 12.7959Q8.48946 12.1317 9.06645 11.4951Q9.64344 10.8585 10.251 10.251Q10.8585 9.64344 11.4951 9.06645Q12.1317 8.48946 12.7959 7.94441Q13.46 7.39935 14.1501 6.88754Q14.8402 6.37573 15.5546 5.89839Q16.269 5.42106 17.0059 4.97936Q17.7429 4.53765 18.5006 4.13264Q19.2583 3.72762 20.035 3.36028Q20.8117 2.99293 21.6055 2.66414Q22.3992 2.33535 23.2082 2.0459Q24.0171 1.75645 24.8393 1.50705Q25.6615 1.25764 26.4949 1.04888Q27.3284 0.840113 28.171 0.672496Q29.0137 0.504879 29.8636 0.378811Q30.7135 0.252744 31.5685 0.16853Q32.4235 0.0843156 33.2817 0.0421578Q34.1398 0 34.999 0Z" id="Rectangle-2" fill="#094067" fill-rule="evenodd" stroke="none" filter="url(#filter_1)" />
        <g id="Stack-Stack-frames-" fill="#FFFFFF" transform="translate(141.625 34.5)">
          <path d="M556.267 125.278C556.267 120.35 553.003 114.654 545.323 108.83L561.387 109.086L562.155 104.99L543.211 104.99C546.923 94.3022 553.323 85.5342 558.955 85.5342C562.859 85.5342 563.499 89.8223 558.571 95.6462L560.683 96.7343C569.067 88.0302 567.787 80.2862 560.811 80.2862C552.299 80.2862 543.147 91.6783 538.475 104.99L535.531 104.99L534.827 107.998L537.195 109.022C535.979 113.438 535.275 117.918 535.275 122.206C535.275 132.318 539.563 136.862 545.003 136.862C550.827 136.862 556.267 132.126 556.267 125.278ZM245.163 125.022L239.467 125.79L227.947 112.734C238.315 107.358 241.323 103.326 241.323 100.638C241.323 98.9102 240.171 97.9502 238.251 97.9502C235.115 97.9502 230.699 100.446 225.963 105.246L222.059 125.406L217.131 125.406L225.771 80.7982L230.763 80.4142L226.795 100.894C231.723 95.9023 236.843 93.3422 240.875 93.3422C244.587 93.3422 246.699 95.4542 246.699 98.5902C246.699 102.75 243.115 107.55 233.835 112.542L245.163 125.022ZM491.563 125.022L485.867 125.79L474.347 112.734C484.715 107.358 487.723 103.326 487.723 100.638C487.723 98.9102 486.571 97.9502 484.651 97.9502C481.515 97.9502 477.099 100.446 472.363 105.246L468.459 125.406L463.531 125.406L472.171 80.7982L477.163 80.4142L473.195 100.894C478.123 95.9023 483.243 93.3422 487.275 93.3422C490.987 93.3422 493.099 95.4542 493.099 98.5902C493.099 102.75 489.515 107.55 480.235 112.542L491.563 125.022ZM105.643 95.9662C104.619 88.8622 101.227 85.0222 94.635 85.0222C86.507 85.0222 80.747 90.5902 80.747 96.6702C80.747 105.95 97.067 110.046 97.067 116.574C97.067 120.478 91.755 123.486 75.755 119.39L74.731 124.51C94.635 128.734 102.379 122.59 102.379 116.126C102.379 107.23 85.995 103.39 85.995 96.0303C85.995 92.4462 89.067 89.3743 93.419 89.3743C97.707 89.3743 100.139 91.6143 101.035 96.8623L105.643 95.9662ZM137.451 122.078L136.939 119.454C123.563 123.998 121.387 121.566 122.987 114.59L126.699 98.0782L138.923 98.0782L139.691 94.1742L127.595 94.1742L129.643 85.0222L125.803 85.3422L120.875 94.1742L116.843 94.1742L115.819 98.0782L121.771 98.0782L118.059 114.846C115.691 125.086 121.131 130.334 137.451 122.078ZM341.035 85.0222C347.627 85.0222 351.019 88.8622 352.043 95.9662L347.435 96.8623C346.539 91.6143 344.107 89.3743 339.819 89.3743C335.467 89.3743 332.395 92.4462 332.395 96.0303C332.395 103.39 348.779 107.23 348.779 116.126C348.779 122.59 341.035 128.734 321.131 124.51L322.155 119.39C338.155 123.486 343.467 120.478 343.467 116.574C343.467 110.046 327.147 105.95 327.147 96.6702C327.147 90.5902 332.907 85.0222 341.035 85.0222ZM383.851 122.078L383.339 119.454C369.963 123.998 367.787 121.566 369.387 114.59L373.099 98.0782L385.323 98.0782L386.091 94.1742L373.995 94.1742L376.043 85.0222L372.203 85.3422L367.275 94.1742L363.243 94.1742L362.219 98.0782L368.171 98.0782L364.459 114.846C362.091 125.086 367.531 130.334 383.851 122.078ZM727.403 101.214C729.387 106.206 736.107 111.774 736.107 117.086C736.107 122.078 731.435 126.75 714.091 125.854L714.219 121.246C728.043 122.398 731.179 120.414 731.179 117.406C731.179 113.95 726.251 109.79 723.435 104.99C720.683 107.358 717.035 109.982 712.427 112.734L711.083 110.43C716.459 106.718 719.787 104.094 721.963 101.726C721.707 100.83 721.579 99.9342 721.579 98.9743C721.579 95.1342 725.035 91.4222 728.235 91.4222C731.819 91.4222 732.651 95.2623 727.403 101.214ZM597.291 94.9422C586.155 122.078 588.075 123.998 597.675 120.862L598.123 123.55C584.299 129.694 579.755 125.022 590.699 99.5502C587.179 100.574 583.595 101.214 580.587 101.278C578.411 105.758 574.635 110.942 570.475 115.358L568.491 113.502C572.395 108.83 575.147 104.99 577.003 100.958C575.083 100.51 573.867 99.5502 573.867 98.0143C573.867 95.3903 577.067 91.8702 580.139 91.8702C581.611 91.8702 582.571 92.8942 582.571 94.6862Q582.571 95.8382 582.187 97.1823C586.091 96.7343 590.827 95.4542 594.923 93.5983L597.291 94.9422ZM701.355 121.822L700.715 119.198C686.187 123.998 680.107 121.886 680.107 113.63L680.107 113.566C694.827 112.478 703.083 108.062 703.083 100.766C703.083 96.1582 699.691 93.2782 694.187 93.2782C683.371 93.2782 675.243 104.35 675.243 114.27C675.243 124.766 684.331 130.526 701.355 121.822ZM210.027 104.03C210.347 96.4782 207.659 93.3422 201.771 93.3422C191.659 93.3422 182.955 103.198 182.955 114.142C182.955 124.574 191.659 130.27 207.851 122.398L207.211 119.71C193.835 123.934 187.947 121.502 187.947 113.31C187.947 104.99 193.579 97.6302 200.491 97.6302C203.883 97.6302 205.355 99.2943 205.419 104.03L210.027 104.03ZM456.427 104.03C456.747 96.4782 454.059 93.3422 448.171 93.3422C438.059 93.3422 429.355 103.198 429.355 114.142C429.355 124.574 438.059 130.27 454.251 122.398L453.611 119.71C440.235 123.934 434.347 121.502 434.347 113.31C434.347 104.99 439.979 97.6302 446.891 97.6302C450.283 97.6302 451.755 99.2943 451.819 104.03L456.427 104.03ZM669.099 121.438L669.739 124.062C663.531 127.134 660.843 126.43 660.843 123.038C660.843 118.75 665.195 104.926 665.195 100.318C665.195 98.9743 664.747 98.1423 663.595 98.1423C662.187 98.1423 660.139 99.2943 657.835 101.726L653.227 125.406L649.323 125.406L653.675 103.262C654.315 100.062 654.187 98.1423 652.395 98.1423C650.987 98.1423 649.003 99.2943 646.699 101.662C645.419 108.702 643.179 120.222 642.155 125.406L637.355 125.406C640.299 110.494 641.643 103.454 643.179 94.2383L647.723 93.9183C647.659 94.7502 647.403 96.6062 647.147 98.0143C649.963 94.8783 652.587 93.3422 654.699 93.3422C657.131 93.3422 658.411 95.1342 658.219 98.4622C661.291 95.0703 664.235 93.3422 666.603 93.3422C668.971 93.3422 670.315 94.8783 670.315 97.8223C670.315 103.774 665.707 117.662 665.707 121.054C665.707 122.27 666.411 122.462 669.099 121.438ZM175.595 120.478L176.107 123.038C166.763 128.542 164.267 125.918 165.035 119.326C161.259 123.038 156.715 126.046 153.131 126.046C149.291 126.046 146.475 122.846 146.475 116.254C146.475 104.542 154.219 93.4063 165.547 93.4063C168.235 93.4063 171.243 93.8542 174.507 94.7502L170.091 117.278C169.195 121.694 169.579 122.718 175.595 120.478ZM421.995 120.478L422.507 123.038C413.163 128.542 410.667 125.918 411.435 119.326C407.659 123.038 403.115 126.046 399.531 126.046C395.691 126.046 392.875 122.846 392.875 116.254C392.875 104.542 400.619 93.4063 411.947 93.4063C414.635 93.4063 417.643 93.8542 420.907 94.7502L416.491 117.278C415.595 121.694 415.979 122.718 421.995 120.478ZM633.707 123.038L633.195 120.478C627.179 122.718 626.795 121.694 627.691 117.278L632.107 94.7502C628.843 93.8542 625.835 93.4063 623.147 93.4063C611.819 93.4063 604.075 104.542 604.075 116.254C604.075 122.846 606.891 126.046 610.731 126.046C614.315 126.046 618.859 123.038 622.635 119.326C621.867 125.918 624.363 128.542 633.707 123.038ZM271.339 104.286L272.811 96.8623L265.771 96.8623L264.299 104.286L271.339 104.286ZM692.971 97.4382C696.235 97.4382 698.283 99.1662 698.283 101.726C698.283 106.974 691.243 109.854 680.363 110.622C681.451 103.966 686.187 97.4382 692.971 97.4382ZM151.531 115.102C151.531 119.518 153.323 121.374 155.627 121.374C158.315 121.374 162.411 118.75 165.547 115.614C166.187 112.35 167.915 103.582 168.875 98.7182C166.571 98.0143 164.331 97.6942 162.859 97.6942C156.587 97.6942 151.531 106.334 151.531 115.102ZM397.931 115.102C397.931 119.518 399.723 121.374 402.027 121.374C404.715 121.374 408.811 118.75 411.947 115.614C412.587 112.35 414.315 103.582 415.275 98.7182C412.971 98.0143 410.731 97.6942 409.259 97.6942C402.987 97.6942 397.931 106.334 397.931 115.102ZM613.227 121.374C610.923 121.374 609.131 119.518 609.131 115.102C609.131 106.334 614.187 97.6942 620.459 97.6942C621.931 97.6942 624.171 98.0143 626.475 98.7182C625.515 103.582 623.787 112.35 623.147 115.614C620.011 118.75 615.915 121.374 613.227 121.374ZM546.795 132.766C543.211 132.766 540.139 130.014 540.139 121.886C540.139 118.174 540.651 114.27 541.611 110.43C549.419 115.998 552.747 121.438 552.747 126.238C552.747 130.27 550.059 132.766 546.795 132.766ZM266.923 125.406L268.395 117.982L261.355 117.982L259.883 125.406L266.923 125.406Z" />
        </g>
      </g>
      <g filter="url(#filter_1)">
        <g id="New-group-Copy-3" transform="translate(33.5 950)">
          <path d="M34.999 0L1098 0Q1098.86 0 1099.72 0.0421578Q1100.58 0.0843156 1101.43 0.16853Q1102.29 0.252744 1103.14 0.378811Q1103.99 0.504879 1104.83 0.672496Q1105.67 0.840113 1106.5 1.04888Q1107.34 1.25764 1108.16 1.50705Q1108.98 1.75645 1109.79 2.0459Q1110.6 2.33535 1111.39 2.66414Q1112.19 2.99293 1112.96 3.36028Q1113.74 3.72762 1114.5 4.13264Q1115.26 4.53765 1115.99 4.97936Q1116.73 5.42106 1117.45 5.89839Q1118.16 6.37573 1118.85 6.88754Q1119.54 7.39935 1120.2 7.94441Q1120.87 8.48946 1121.5 9.06645Q1122.14 9.64344 1122.75 10.251Q1123.36 10.8585 1123.93 11.4951Q1124.51 12.1317 1125.06 12.7959Q1125.6 13.46 1126.11 14.1501Q1126.62 14.8402 1127.1 15.5546Q1127.58 16.269 1128.02 17.0059Q1128.46 17.7429 1128.87 18.5006Q1129.27 19.2583 1129.64 20.035Q1130.01 20.8117 1130.34 21.6055Q1130.66 22.3992 1130.95 23.2082Q1131.24 24.0171 1131.49 24.8393Q1131.74 25.6615 1131.95 26.4949Q1132.16 27.3284 1132.33 28.171Q1132.49 29.0137 1132.62 29.8636Q1132.75 30.7135 1132.83 31.5685Q1132.92 32.4235 1132.96 33.2817Q1133 34.1398 1133 34.999L1133 240.001Q1133 240.86 1132.96 241.718Q1132.92 242.576 1132.83 243.432Q1132.75 244.287 1132.62 245.136Q1132.49 245.986 1132.33 246.829Q1132.16 247.672 1131.95 248.505Q1131.74 249.338 1131.49 250.161Q1131.24 250.983 1130.95 251.792Q1130.66 252.601 1130.34 253.395Q1130.01 254.188 1129.64 254.965Q1129.27 255.742 1128.87 256.499Q1128.46 257.257 1128.02 257.994Q1127.58 258.731 1127.1 259.445Q1126.62 260.16 1126.11 260.85Q1125.6 261.54 1125.06 262.204Q1124.51 262.868 1123.93 263.505Q1123.36 264.142 1122.75 264.749Q1122.14 265.357 1121.5 265.934Q1120.87 266.51 1120.2 267.056Q1119.54 267.601 1118.85 268.112Q1118.16 268.624 1117.45 269.102Q1116.73 269.579 1115.99 270.021Q1115.26 270.462 1114.5 270.867Q1113.74 271.272 1112.96 271.64Q1112.19 272.007 1111.39 272.336Q1110.6 272.665 1109.79 272.954Q1108.98 273.244 1108.16 273.493Q1107.34 273.742 1106.51 273.951Q1105.67 274.16 1104.83 274.327Q1103.99 274.495 1103.14 274.621Q1102.29 274.747 1101.43 274.831Q1100.58 274.916 1099.72 274.958Q1098.86 275 1098 275L34.999 275Q34.1398 275 33.2817 274.958Q32.4235 274.916 31.5685 274.831Q30.7135 274.747 29.8636 274.621Q29.0137 274.495 28.171 274.327Q27.3284 274.16 26.4949 273.951Q25.6615 273.742 24.8393 273.493Q24.0171 273.244 23.2082 272.954Q22.3992 272.665 21.6055 272.336Q20.8117 272.007 20.035 271.64Q19.2583 271.272 18.5006 270.867Q17.7429 270.462 17.0059 270.021Q16.269 269.579 15.5546 269.102Q14.8402 268.624 14.1501 268.112Q13.46 267.601 12.7959 267.056Q12.1317 266.51 11.4951 265.934Q10.8585 265.357 10.251 264.749Q9.64344 264.141 9.06645 263.505Q8.48946 262.868 7.94441 262.204Q7.39935 261.54 6.88754 260.85Q6.37573 260.16 5.89839 259.445Q5.42106 258.731 4.97936 257.994Q4.53765 257.257 4.13264 256.499Q3.72762 255.742 3.36028 254.965Q2.99293 254.188 2.66414 253.395Q2.33535 252.601 2.0459 251.792Q1.75645 250.983 1.50705 250.161Q1.25764 249.338 1.04888 248.505Q0.840113 247.672 0.672496 246.829Q0.504879 245.986 0.378811 245.136Q0.252744 244.287 0.16853 243.432Q0.0843156 242.576 0.0421578 241.718Q0 240.86 0 240.001L0 34.999Q0 34.1398 0.0421578 33.2817Q0.0843156 32.4235 0.16853 31.5685Q0.252744 30.7135 0.378811 29.8636Q0.504879 29.0137 0.672496 28.171Q0.840113 27.3284 1.04888 26.4949Q1.25764 25.6615 1.50705 24.8393Q1.75645 24.0171 2.0459 23.2082Q2.33535 22.3992 2.66414 21.6055Q2.99293 20.8117 3.36028 20.035Q3.72762 19.2583 4.13264 18.5006Q4.53765 17.7429 4.97936 17.0059Q5.42106 16.269 5.89839 15.5546Q6.37573 14.8402 6.88754 14.1501Q7.39935 13.46 7.94441 12.7959Q8.48946 12.1317 9.06645 11.4951Q9.64344 10.8585 10.251 10.251Q10.8585 9.64344 11.4951 9.06645Q12.1317 8.48946 12.7959 7.94441Q13.46 7.39935 14.1501 6.88754Q14.8402 6.37573 15.5546 5.89839Q16.269 5.42106 17.0059 4.97936Q17.7429 4.53765 18.5006 4.13264Q19.2583 3.72762 20.035 3.36028Q20.8117 2.99293 21.6055 2.66414Q22.3992 2.33535 23.2082 2.0459Q24.0171 1.75645 24.8393 1.50705Q25.6615 1.25764 26.4949 1.04888Q27.3284 0.840113 28.171 0.672496Q29.0137 0.504879 29.8636 0.378811Q30.7135 0.252744 31.5685 0.16853Q32.4235 0.0843156 33.2817 0.0421578Q34.1398 0 34.999 0Z" id="Rectangle-2" fill="#3DA9FC" fill-rule="evenodd" stroke="none" filter="url(#filter_1)" />
          <g id="Code-MachineBinary-code" transform="translate(141.625 34.5)">
            <g id="Code-MachineBinary-" fill="#FFFFFF">
              <path d="M508.843 94.708L548.075 38.388L552.107 40.244L513.323 95.988L508.843 94.708ZM430.955 47.604L433.515 39.028L427.755 39.348L425.771 47.86L430.955 47.604ZM609.515 39.028L606.955 47.604L601.771 47.86L603.755 39.348L609.515 39.028ZM158.187 79.412L158.763 81.908C149.419 87.348 146.795 84.916 147.435 78.58C143.851 82.164 139.371 84.98 135.851 84.98C131.883 84.98 128.875 81.524 128.875 74.612C128.875 63.092 136.491 52.276 147.627 52.276C149.035 52.276 150.571 52.404 152.299 52.66L154.795 39.732L159.787 39.348L152.619 76.084C151.723 80.692 152.107 81.716 158.187 79.412ZM404.267 79.412L404.971 82.036C397.291 86.772 393.643 85.364 393.643 81.14C393.643 76.212 397.803 65.716 397.803 60.596C397.803 58.228 396.779 56.948 394.603 56.948C391.851 56.948 388.139 59.188 383.979 63.668L379.947 84.34L375.083 84.34L383.723 39.732L388.715 39.348L384.811 59.444C389.291 54.644 393.707 52.276 397.611 52.276C401.643 52.276 403.115 54.9 403.115 58.228C403.115 64.564 398.827 75.444 398.827 79.092C398.827 80.82 399.659 81.268 404.267 79.412ZM79.403 43.828C68.267 43.828 59.435 56.5 59.435 70.068C59.435 83.444 68.587 88.5 84.203 82.932L84.715 78.26C71.531 83.124 64.619 80.052 64.619 69.172C64.619 59.188 70.507 48.436 78.379 48.436C82.923 48.436 83.627 51.892 83.499 58.676L88.363 58.612C88.811 48.884 86.699 43.828 79.403 43.828ZM579.307 72.308C579.307 68.148 576.043 64.884 571.051 63.86C577.451 61.876 581.291 57.78 581.291 52.916C581.291 46.836 574.699 42.484 558.955 44.788L551.275 84.34C571.819 86.772 579.307 79.476 579.307 72.308ZM282.155 44.532L276.203 44.788L268.587 84.34L273.323 84.34L279.147 53.108L279.339 53.108L281.131 77.428L284.523 77.428L296.043 53.108L296.299 53.108L290.027 84.34L295.019 84.34L302.635 44.66L296.491 44.66L284.203 70.964L284.011 70.964L282.155 44.532ZM576.235 54.068C576.235 58.484 571.627 62.452 560.555 62.964L563.371 48.564C572.075 47.604 576.235 50.1 576.235 54.068ZM720.875 79.796C711.275 82.932 709.355 81.012 720.491 53.876L718.123 52.532C714.027 54.388 709.291 55.668 705.387 56.116Q705.771 54.772 705.771 53.62C705.771 51.828 704.811 50.804 703.339 50.804C700.267 50.804 697.067 54.324 697.067 56.948C697.067 58.484 698.283 59.444 700.203 59.892C698.347 63.924 695.595 67.764 691.691 72.436L693.675 74.292C697.835 69.876 701.611 64.692 703.787 60.212C706.795 60.148 710.379 59.508 713.899 58.484C702.955 83.956 707.499 88.628 721.323 82.484L720.875 79.796ZM93.931 72.308C93.931 80.564 98.411 85.044 105.387 85.044C114.859 85.044 122.283 76.148 122.283 65.012C122.283 56.756 117.675 52.212 110.763 52.212C101.227 52.212 93.931 61.3 93.931 72.308ZM190.955 80.756L190.315 78.132C175.787 82.932 169.707 80.82 169.707 72.564L169.707 72.5C184.427 71.412 192.683 66.996 192.683 59.7C192.683 55.092 189.291 52.212 183.787 52.212C172.971 52.212 164.843 63.284 164.843 73.204C164.843 83.7 173.931 89.46 190.955 80.756ZM507.755 80.756L507.115 78.132C492.587 82.932 486.507 80.82 486.507 72.564L486.507 72.5C501.227 71.412 509.483 66.996 509.483 59.7C509.483 55.092 506.091 52.212 500.587 52.212C489.771 52.212 481.643 63.284 481.643 73.204C481.643 83.7 490.731 89.46 507.755 80.756ZM368.427 62.964C368.747 55.412 366.059 52.276 360.171 52.276C350.059 52.276 341.355 62.132 341.355 73.076C341.355 83.508 350.059 89.204 366.251 81.332L365.611 78.644C352.235 82.868 346.347 80.436 346.347 72.244C346.347 63.924 351.979 56.564 358.891 56.564C362.283 56.564 363.755 58.228 363.819 62.964L368.427 62.964ZM474.667 79.412L475.371 82.036C467.691 86.772 464.043 85.364 464.043 81.14C464.043 76.212 468.203 65.78 468.203 60.596C468.203 58.228 467.179 56.948 465.003 56.948C462.315 56.948 458.603 59.06 454.507 63.22C453.803 67.188 451.243 79.924 450.347 84.34L445.483 84.34C448.363 69.428 449.771 62.388 451.179 53.108L456.043 52.788C455.851 53.876 455.403 56.948 455.083 59.38C459.563 54.708 464.107 52.276 468.011 52.276C472.043 52.276 473.515 54.9 473.515 58.228C473.515 64.564 469.227 75.444 469.227 79.092C469.227 80.82 470.059 81.268 474.667 79.412ZM651.371 82.036L650.667 79.412C646.059 81.268 645.227 80.82 645.227 79.092C645.227 75.444 649.515 64.564 649.515 58.228C649.515 54.9 648.043 52.276 644.011 52.276C640.107 52.276 635.563 54.708 631.083 59.38C631.403 56.948 631.851 53.876 632.043 52.788L627.179 53.108C625.771 62.388 624.363 69.428 621.483 84.34L626.347 84.34C627.243 79.924 629.803 67.188 630.507 63.22C634.603 59.06 638.315 56.948 641.003 56.948C643.179 56.948 644.203 58.228 644.203 60.596C644.203 65.78 640.043 76.212 640.043 81.14C640.043 85.364 643.691 86.772 651.371 82.036ZM333.995 79.412L334.507 81.972C325.163 87.476 322.667 84.852 323.435 78.26C319.659 81.972 315.115 84.98 311.531 84.98C307.691 84.98 304.875 81.78 304.875 75.188C304.875 63.476 312.619 52.34 323.947 52.34C326.635 52.34 329.643 52.788 332.907 53.684L328.491 76.212C327.595 80.628 327.979 81.652 333.995 79.412ZM685.995 79.412L686.507 81.972C677.163 87.476 674.667 84.852 675.435 78.26C671.659 81.972 667.115 84.98 663.531 84.98C659.691 84.98 656.875 81.78 656.875 75.188C656.875 63.476 664.619 52.34 675.947 52.34C678.635 52.34 681.643 52.788 684.907 53.684L680.491 76.212C679.595 80.628 679.979 81.652 685.995 79.412ZM751.762 79.0542C751.958 83.5591 752.116 87.1842 750.891 89.588C748.907 93.556 742.379 96.052 727.531 95.284L728.235 90.292C740.267 91.316 745.259 90.164 746.603 88.884C747.769 87.6699 747.644 84.6499 747.461 80.1877C747.402 78.7696 747.338 77.2058 747.307 75.508C743.723 79.412 738.923 82.612 734.507 82.612C728.555 82.612 724.971 76.788 733.867 53.044L738.731 52.916C731.179 73.908 733.163 78.068 737.067 78.068C739.819 78.068 743.851 75.572 747.371 71.604C747.947 62.9 751.915 52.404 753.835 52.404C755.179 52.404 757.291 53.044 757.291 54.068C757.291 56.436 754.859 65.012 751.659 71.284C751.595 71.86 751.595 72.436 751.595 73.076C751.595 75.2016 751.682 77.2022 751.762 79.0542ZM437.547 81.524L436.971 78.772C424.043 82.036 422.379 80.82 423.851 75.06L429.611 53.044L425.195 52.98L412.011 56.244L412.331 58.932L423.659 57.396L418.795 75.892C416.363 85.044 421.739 87.988 437.547 81.524ZM612.971 78.772L613.547 81.524C597.739 87.988 592.363 85.044 594.795 75.892L599.659 57.396L588.331 58.932L588.011 56.244L601.195 52.98L605.611 53.044L599.851 75.06C598.379 80.82 600.043 82.036 612.971 78.772ZM220.011 55.796L218.539 63.22L211.499 63.22L212.971 55.796L220.011 55.796ZM117.163 65.716C117.163 73.844 112.683 80.884 106.219 80.884C101.611 80.884 98.987 77.492 98.987 71.604C98.987 63.54 103.403 56.372 109.931 56.372C114.539 56.372 117.163 59.828 117.163 65.716ZM182.571 56.372C185.835 56.372 187.883 58.1 187.883 60.66C187.883 65.908 180.843 68.788 169.963 69.556C171.051 62.9 175.787 56.372 182.571 56.372ZM499.371 56.372C502.635 56.372 504.683 58.1 504.683 60.66C504.683 65.908 497.643 68.788 486.763 69.556C487.851 62.9 492.587 56.372 499.371 56.372ZM133.867 73.332C133.867 78.068 135.787 80.308 138.283 80.308C141.099 80.308 145.003 77.876 147.947 74.804L151.339 57.524C148.907 56.82 146.603 56.436 145.131 56.436C138.923 56.436 133.867 64.884 133.867 73.332ZM309.931 74.036C309.931 78.452 311.723 80.308 314.027 80.308C316.715 80.308 320.811 77.684 323.947 74.548C324.587 71.284 326.315 62.516 327.275 57.652C324.971 56.948 322.731 56.628 321.259 56.628C314.987 56.628 309.931 65.268 309.931 74.036ZM661.931 74.036C661.931 78.452 663.723 80.308 666.027 80.308C668.715 80.308 672.811 77.684 675.947 74.548C676.587 71.284 678.315 62.516 679.275 57.652C676.971 56.948 674.731 56.628 673.259 56.628C666.987 56.628 661.931 65.268 661.931 74.036ZM574.251 72.692C574.251 77.556 569.003 81.46 557.291 80.116L559.979 66.1C570.091 65.46 574.251 68.34 574.251 72.692ZM215.595 76.916L214.123 84.34L207.083 84.34L208.555 76.916L215.595 76.916Z" />
            </g>
            <g id="code" fill="#FFFFFF">
              <path d="M457.963 161.474L457.387 158.978C451.307 161.282 450.923 160.258 451.819 155.65L458.987 118.914L453.995 119.298L451.499 132.226C449.771 131.97 448.235 131.842 446.827 131.842C435.691 131.842 428.075 142.658 428.075 154.178C428.075 161.09 431.083 164.546 435.051 164.546C438.571 164.546 443.051 161.73 446.635 158.146C445.995 164.482 448.619 166.914 457.963 161.474ZM404.587 164.61C397.611 164.61 393.131 160.13 393.131 151.874C393.131 140.866 400.427 131.778 409.963 131.778C416.875 131.778 421.483 136.322 421.483 144.578C421.483 155.714 414.059 164.61 404.587 164.61ZM489.515 157.698L490.155 160.322C473.131 169.026 464.043 163.266 464.043 152.77C464.043 142.85 472.171 131.778 482.987 131.778C488.491 131.778 491.883 134.658 491.883 139.266C491.883 146.562 483.627 150.978 468.907 152.066L468.907 152.13C468.907 160.386 474.987 162.498 489.515 157.698ZM377.771 131.842C383.659 131.842 386.347 134.978 386.027 142.53L381.419 142.53C381.355 137.794 379.883 136.13 376.491 136.13C369.579 136.13 363.947 143.49 363.947 151.81C363.947 160.002 369.835 162.434 383.211 158.21L383.851 160.898C367.659 168.77 358.955 163.074 358.955 152.642C358.955 141.698 367.659 131.842 377.771 131.842ZM405.419 160.45C411.883 160.45 416.363 153.41 416.363 145.282C416.363 139.394 413.739 135.938 409.131 135.938C402.603 135.938 398.187 143.106 398.187 151.17C398.187 157.058 400.811 160.45 405.419 160.45ZM487.083 140.226C487.083 137.666 485.035 135.938 481.771 135.938C474.987 135.938 470.251 142.466 469.163 149.122C480.043 148.354 487.083 145.474 487.083 140.226ZM437.483 159.874C434.987 159.874 433.067 157.634 433.067 152.898C433.067 144.45 438.123 136.002 444.331 136.002C445.803 136.002 448.107 136.386 450.539 137.09L447.147 154.37C444.203 157.442 440.299 159.874 437.483 159.874Z" />
            </g>
          </g>
        </g>
      </g>
    </g>
    <g id="Memory-Layout-of-CC++-program" fill="#FFFFFF" transform="translate(151 -32)">
      <path d="M715.86 174.007L709.14 170.997L741.13 108.137L747.85 111.357L715.86 174.007ZM615.41 154.197L626.47 154.197L625.77 160.007L598.82 160.007L598.82 154.197L607.64 154.197L607.64 132.567L598.4 132.567L599.1 126.617L607.64 126.617L607.64 126.547C607.64 117.587 612.68 110.867 628.99 110.027L629.48 117.587C616.74 118.007 615.41 119.127 615.41 125.357L615.41 126.617L627.17 126.617L627.17 132.567L615.41 132.567L615.41 154.197ZM511.25 154.127L510.41 160.567C494.73 160.847 489.62 157.347 489.62 148.387L489.62 131.097L482.48 131.097L483.18 125.147L489.62 125.147L489.62 115.767L497.32 115.067L497.32 125.147L510.48 125.147L510.48 131.097L497.32 131.097L497.32 147.197C497.32 152.657 500.61 153.917 511.25 154.127ZM704.38 153.427C687.79 154.267 683.1 149.297 683.1 137.887C683.1 128.437 686.11 123.327 703.96 123.677L703.54 115.977C681.98 116.397 674.77 126.827 674.77 138.937C674.77 152.097 681.28 162.107 703.68 160.287L704.38 153.427ZM781.38 153.427C764.79 154.267 760.1 149.297 760.1 137.887C760.1 128.437 763.11 123.327 780.96 123.677L780.54 115.977C758.98 116.397 751.77 126.827 751.77 138.937C751.77 152.097 758.28 162.107 780.68 160.287L781.38 153.427ZM35.46 142.437C35.95 140.547 42.6 116.607 42.6 116.607L50.3 116.607L50.3 160.007L42.88 160.007L43.3 131.027L43.02 131.027L37.35 151.397L32.94 151.397L27.2 131.027L26.92 131.027L27.34 160.007L20.13 160.007L20.13 116.607L27.97 116.607C27.97 116.607 34.69 140.547 35.18 142.437L35.46 142.437ZM319.73 160.007L320.43 153.287L300.83 153.287L300.83 116.607L292.78 116.607L292.78 160.007L319.73 160.007ZM820.51 135.927L820.51 142.437L808.75 142.437L808.75 154.897L801.82 154.897L801.82 142.437L789.99 142.437L789.99 135.927L801.82 135.927L801.82 123.467L808.75 123.467L808.75 135.927L820.51 135.927ZM859.01 142.437L859.01 135.927L847.25 135.927L847.25 123.467L840.32 123.467L840.32 135.927L828.49 135.927L828.49 142.437L840.32 142.437L840.32 154.897L847.25 154.897L847.25 142.437L859.01 142.437ZM200.73 160.007L201.36 154.127L190.79 154.127C190.65 146.707 190.58 140.827 190.44 135.577C194.36 133.687 199.19 132.427 205.21 132.077L204.86 123.817C198.28 124.657 193.31 127.527 190.16 131.167C190.02 129.417 189.6 125.497 189.53 125.147L175.11 125.147L174.48 130.677L182.74 131.237C182.88 137.397 182.95 144.677 183.09 154.127L174.62 154.127L174.62 160.007L200.73 160.007ZM970.73 160.007L971.36 154.127L960.79 154.127C960.65 146.707 960.58 140.827 960.44 135.577C964.36 133.687 969.19 132.427 975.21 132.077L974.86 123.817C968.28 124.657 963.31 127.527 960.16 131.167C960.02 129.417 959.6 125.497 959.53 125.147L945.11 125.147L944.48 130.677L952.74 131.237C952.88 137.397 952.95 144.677 953.09 154.127L944.62 154.127L944.62 160.007L970.73 160.007ZM1086.86 154.127L1086.23 160.007L1060.12 160.007L1060.12 154.127L1068.59 154.127C1068.45 144.677 1068.38 137.397 1068.24 131.237L1059.98 130.677L1060.61 125.147L1075.03 125.147C1075.1 125.497 1075.52 129.417 1075.66 131.167C1078.81 127.527 1083.78 124.657 1090.36 123.817L1090.71 132.077C1084.69 132.427 1079.86 133.687 1075.94 135.577C1076.08 140.827 1076.15 146.707 1076.29 154.127L1086.86 154.127ZM166.64 141.807C166.64 153.427 158.94 161.057 149.63 161.057C141.02 161.057 134.86 154.687 134.86 143.417C134.86 132.077 142.63 124.097 151.87 124.097C160.62 124.097 166.64 130.467 166.64 141.807ZM436.14 141.807C436.14 153.427 428.44 161.057 419.13 161.057C410.52 161.057 404.36 154.687 404.36 143.417C404.36 132.077 412.13 124.097 421.37 124.097C430.12 124.097 436.14 130.467 436.14 141.807ZM573.13 161.057C582.44 161.057 590.14 153.427 590.14 141.807C590.14 130.467 584.12 124.097 575.37 124.097C566.13 124.097 558.36 132.077 558.36 143.417C558.36 154.687 564.52 161.057 573.13 161.057ZM1013.64 141.807C1013.64 153.427 1005.94 161.057 996.63 161.057C988.02 161.057 981.86 154.687 981.86 143.417C981.86 132.077 989.63 124.097 998.87 124.097C1007.62 124.097 1013.64 130.467 1013.64 141.807ZM87.75 154.337L86.98 160.847C64.44 161.057 58.49 154.547 58.49 143.207C58.49 132.497 66.33 124.237 75.5 124.237C85.3 124.237 89.99 131.937 88.73 144.047L66.26 144.677C67.1 151.677 72.35 153.987 87.75 154.337ZM107.21 130.887C108.96 130.887 109.73 131.937 109.73 134.877L109.73 160.007L115.26 160.007L115.26 132.497C116.31 131.447 117.43 130.887 118.69 130.887C120.51 130.887 121.35 131.937 121.35 134.947L121.35 160.007L128.56 160.007L128.56 132.217C128.56 127.037 126.6 124.237 122.61 124.237C119.53 124.237 117.08 125.917 115.19 128.017C114.49 125.637 112.88 124.237 110.15 124.237C107.28 124.237 104.83 125.917 102.94 128.017L102.66 125.007L96.01 125.427C96.29 133.337 96.29 144.327 96.29 160.007L103.5 160.007C103.5 148.527 103.43 139.217 103.29 132.707C104.55 131.517 105.88 130.887 107.21 130.887ZM914.87 160.847L914.87 171.487L907.1 172.187L907.1 160.217C907.1 142.227 907.03 132.357 906.68 125.427L913.82 125.007L914.17 128.577C916.62 126.197 919.84 124.237 923.9 124.237C931.18 124.237 936.57 130.677 936.57 140.827C936.57 153.567 927.61 160.917 916.69 160.917C916.06 160.917 915.5 160.917 914.87 160.847ZM1149.23 134.877C1149.23 131.937 1148.46 130.887 1146.71 130.887C1145.38 130.887 1144.05 131.517 1142.79 132.707C1142.93 139.217 1143 148.527 1143 160.007L1135.79 160.007C1135.79 144.327 1135.79 133.337 1135.51 125.427L1142.16 125.007L1142.44 128.017C1144.33 125.917 1146.78 124.237 1149.65 124.237C1152.38 124.237 1153.99 125.637 1154.69 128.017C1156.58 125.917 1159.03 124.237 1162.11 124.237C1166.1 124.237 1168.06 127.037 1168.06 132.217L1168.06 160.007L1160.85 160.007L1160.85 134.947C1160.85 131.937 1160.01 130.887 1158.19 130.887C1156.93 130.887 1155.81 131.447 1154.76 132.497L1154.76 160.007L1149.23 160.007L1149.23 134.877ZM1025.54 172.257C1045.42 171.277 1050.18 163.297 1050.18 150.557C1050.18 144.887 1050.11 129.837 1049.97 125.987C1046.47 124.937 1042.97 124.307 1039.47 124.307C1029.18 124.307 1020.57 131.377 1020.57 142.437C1020.57 151.397 1026.1 156.927 1033.38 156.927C1037.09 156.927 1040.03 155.667 1042.34 153.987C1042.13 162.807 1040.31 163.997 1024.84 165.257L1025.54 172.257ZM357.81 159.867L350.67 160.217C350.6 159.937 350.25 157.697 350.04 156.017C347.38 158.607 343.67 160.917 338.63 160.917C332.4 160.917 328.13 157.487 328.13 151.817C328.13 144.817 334.71 139.217 349.41 139.847C348.99 133.127 345.14 131.517 330.16 131.027L330.93 124.447C351.93 124.797 357.18 129.137 357.18 142.717C357.18 149.507 357.46 155.037 357.81 159.867ZM1120.67 160.217L1127.81 159.867C1127.46 155.037 1127.18 149.507 1127.18 142.717C1127.18 129.137 1121.93 124.797 1100.93 124.447L1100.16 131.027C1115.14 131.517 1118.99 133.127 1119.41 139.847C1104.71 139.217 1098.13 144.817 1098.13 151.817C1098.13 157.487 1102.4 160.917 1108.63 160.917C1113.67 160.917 1117.38 158.607 1120.04 156.017C1120.25 157.697 1120.6 159.937 1120.67 160.217ZM234.75 153.917C229.71 167.987 226 171.277 213.47 172.397L212.84 165.397C221.1 164.207 223.27 163.437 225.3 158.747L223.97 158.257C220.68 150.907 213.47 132.357 210.81 125.427L218.72 124.867C221.59 132.567 225.3 143.067 228.52 150.767L229.22 150.767C231.39 144.047 236.15 127.457 237.06 125.147L244.55 125.147C242.03 133.057 238.6 143.557 234.75 153.917ZM367.47 172.397C380 171.277 383.71 167.987 388.75 153.917C392.6 143.557 396.03 133.057 398.55 125.147L391.06 125.147C390.15 127.457 385.39 144.047 383.22 150.767L382.52 150.767C379.3 143.067 375.59 132.567 372.72 124.867L364.81 125.427C367.47 132.357 374.68 150.907 377.97 158.257L379.3 158.747C377.27 163.437 375.1 164.207 366.84 165.397L367.47 172.397ZM465.96 160.147L473.17 159.797C472.75 151.817 472.61 140.827 472.61 125.147L464.84 125.147C464.84 136.417 464.91 145.447 465.05 151.887C462.95 153.357 460.64 154.267 458.05 154.267C454.48 154.267 452.24 152.307 452.24 146.147L452.24 124.937L444.47 125.427L444.47 148.877C444.47 157.417 448.32 160.917 454.41 160.917C459.24 160.917 462.74 158.677 465.54 156.227L465.96 160.147ZM142.77 141.947C142.77 150.417 145.99 154.757 151.03 154.757C155.72 154.757 158.8 150.907 158.8 143.207C158.8 134.807 155.58 130.467 150.54 130.467C145.85 130.467 142.77 134.317 142.77 141.947ZM412.27 141.947C412.27 150.417 415.49 154.757 420.53 154.757C425.22 154.757 428.3 150.907 428.3 143.207C428.3 134.807 425.08 130.467 420.04 130.467C415.35 130.467 412.27 134.317 412.27 141.947ZM574.53 154.757C569.49 154.757 566.27 150.417 566.27 141.947C566.27 134.317 569.35 130.467 574.04 130.467C579.08 130.467 582.3 134.807 582.3 143.207C582.3 150.907 579.22 154.757 574.53 154.757ZM989.77 141.947C989.77 150.417 992.99 154.757 998.03 154.757C1002.72 154.757 1005.8 150.907 1005.8 143.207C1005.8 134.807 1002.58 130.467 997.54 130.467C992.85 130.467 989.77 134.317 989.77 141.947ZM81.31 139.567C81.1 134.037 78.93 130.607 74.1 130.607C69.34 130.607 66.54 133.547 66.19 140.057C69.9 139.917 76.97 139.707 81.31 139.567ZM914.87 153.357C916.41 153.917 917.74 154.197 919.42 154.197C924.74 154.197 928.87 150.417 928.87 142.717C928.87 134.667 925.44 130.607 920.75 130.607C918.65 130.607 916.48 131.447 914.59 132.847C914.66 137.817 914.8 144.257 914.87 153.357ZM1036.39 150.837C1031.84 150.837 1028.27 147.547 1028.27 140.617C1028.27 134.177 1031.7 130.887 1036.67 130.887C1038.49 130.887 1040.38 131.237 1042.34 131.797L1042.34 149.367C1040.45 150.277 1038.42 150.837 1036.39 150.837ZM335.83 149.997C335.83 153.077 338.14 154.897 341.71 154.897C344.37 154.897 347.24 153.847 349.69 152.167C349.55 150.137 349.55 147.827 349.48 144.957C338.7 143.837 335.83 146.147 335.83 149.997ZM1111.71 154.897C1108.14 154.897 1105.83 153.077 1105.83 149.997C1105.83 146.147 1108.7 143.837 1119.48 144.957C1119.55 147.827 1119.55 150.137 1119.69 152.167C1117.24 153.847 1114.37 154.897 1111.71 154.897Z" />
    </g>
  </g>
</svg>