<?xml version="1.0" encoding="utf-8"?>
<svg width="2560px" height="1440px" viewbox="0 0 2560 1440" version="1.1" xmlns:xlink="http://www.w3.org/1999/xlink" xmlns="http://www.w3.org/2000/svg">
  <defs>
    <rect width="2560" height="1440" id="artboard_1" />
    <clipPath id="clip_1">
      <use xlink:href="#artboard_1" clip-rule="evenodd" />
    </clipPath>
  </defs>
  <g id="Quad-HD" clip-path="url(#clip_1)">
    <use xlink:href="#artboard_1" stroke="none" fill="#F3D2C1" />
    <g id="New-group" transform="translate(49 730)">
      <path d="M0 0L850 0L850 412L0 412L0 0Z" id="Rectangle" fill="#301E4E" fill-rule="evenodd" stroke="none" />
      <g id="Containers" fill="#FFFFFF" transform="translate(106.1272 51.5)">
        <path d="M360.158 112.766L359.123 128.866L345.898 128.866L346.703 112.766L360.158 112.766ZM246.998 185.101L245.618 195.681C219.858 196.141 211.463 190.391 211.463 175.671L211.463 147.266L199.733 147.266L200.883 137.491L211.463 137.491L211.463 122.081L224.113 120.931L224.113 137.491L245.733 137.491L245.733 147.266L224.113 147.266L224.113 173.716C224.113 182.686 229.518 184.756 246.998 185.101ZM23.3226 158.421C23.3226 177.166 31.0276 185.331 58.2826 183.951L57.1326 195.221C20.3326 198.211 9.63762 181.766 9.63762 160.146C9.63762 140.251 21.4826 123.116 56.9026 122.426L57.5926 135.076C28.2676 134.501 23.3226 142.896 23.3226 158.421ZM559.108 194.761L560.143 185.101L542.778 185.101C542.548 172.911 542.433 163.251 542.203 154.626C548.643 151.521 556.578 149.451 566.468 148.876L565.893 135.306C555.083 136.686 546.918 141.401 541.743 147.381C541.513 144.506 540.823 138.066 540.708 137.491L517.018 137.491L515.983 146.576L529.553 147.496C529.783 157.616 529.898 169.576 530.128 185.101L516.213 185.101L516.213 194.761L559.108 194.761ZM123.603 164.861C123.603 183.951 110.953 196.486 95.6576 196.486C81.5126 196.486 71.3926 186.021 71.3926 167.506C71.3926 148.876 84.1576 135.766 99.3376 135.766C113.713 135.766 123.603 146.231 123.603 164.861ZM162.013 146.921C167.878 146.921 171.673 150.141 171.673 160.261L171.673 194.761L184.438 194.761L184.438 155.776C184.438 141.861 177.998 135.996 167.993 135.996C160.058 135.996 154.193 139.676 149.593 143.816L148.903 137.261L137.058 137.951C137.748 150.946 137.978 169.001 137.978 194.761L150.858 194.761C150.858 176.361 150.628 161.411 150.398 150.716C153.963 148.416 157.643 146.921 162.013 146.921ZM415.013 146.921C420.878 146.921 424.673 150.141 424.673 160.261L424.673 194.761L437.438 194.761L437.438 155.776C437.438 141.861 430.998 135.996 420.993 135.996C413.058 135.996 407.193 139.676 402.593 143.816L401.903 137.261L390.058 137.951C390.748 150.946 390.978 169.001 390.978 194.761L403.858 194.761C403.858 176.361 403.628 161.411 403.398 150.716C406.963 148.416 410.643 146.921 415.013 146.921ZM499.998 185.446L498.733 196.141C461.703 196.486 451.928 185.791 451.928 167.161C451.928 149.566 464.808 135.996 479.873 135.996C495.973 135.996 503.678 148.646 501.608 168.541L464.693 169.576C466.073 181.076 474.698 184.871 499.998 185.446ZM299.438 195.106L311.168 194.531C310.593 186.596 310.133 177.511 310.133 166.356C310.133 144.046 301.508 136.916 267.008 136.341L265.743 147.151C290.353 147.956 296.678 150.601 297.368 161.641C273.218 160.606 262.408 169.806 262.408 181.306C262.408 190.621 269.423 196.256 279.658 196.256C287.938 196.256 294.033 192.461 298.403 188.206C298.748 190.966 299.323 194.646 299.438 195.106ZM582.223 154.166C582.223 144.276 592.803 134.846 622.818 136.916L623.278 147.956C602.003 146.116 595.448 148.646 595.448 152.671C595.448 160.376 626.153 163.711 626.153 178.086C626.153 187.976 615.573 196.831 582.568 195.336L583.028 184.411C605.798 185.906 612.813 183.261 612.813 178.776C612.813 170.611 582.223 168.541 582.223 154.166ZM379.363 185.101L378.328 194.761L326.693 194.761L326.693 185.101L346.588 185.101L346.588 147.496L326.463 146.576L327.498 137.491L359.468 137.491L359.468 185.101L379.363 185.101ZM84.3876 165.091C84.3876 179.006 89.6776 186.136 97.9576 186.136C105.663 186.136 110.723 179.811 110.723 167.161C110.723 153.361 105.433 146.231 97.1526 146.231C89.4476 146.231 84.3876 152.556 84.3876 165.091ZM489.418 161.181C489.073 152.096 485.508 146.461 477.573 146.461C469.753 146.461 465.153 151.291 464.578 161.986C470.673 161.756 482.288 161.411 489.418 161.181ZM284.718 186.366C278.853 186.366 275.058 183.376 275.058 178.316C275.058 171.991 279.773 168.196 297.483 170.036C297.598 174.751 297.598 178.546 297.828 181.881C293.803 184.641 289.088 186.366 284.718 186.366Z" />
      </g>
    </g>
    <g id="New-group-3" transform="translate(899 836)">
      <path d="M0 0L760 0L760 200L0 200L0 0Z" id="Rectangle" fill="#F9BC60" fill-rule="evenodd" stroke="none" />
      <g id="Iterators" transform="translate(94.88904 25)">
        <path d="M116.98 116.181L118.36 105.601C100.88 105.256 95.4746 103.186 95.4746 94.2162L95.4746 67.7662L117.095 67.7662L117.095 57.9912L95.4746 57.9912L95.4746 41.4312L82.8246 42.5812L82.8246 57.9912L72.2446 57.9912L71.0946 67.7662L82.8246 67.7662L82.8246 96.1712C82.8246 110.891 91.2196 116.641 116.98 116.181ZM369.98 116.181L371.36 105.601C353.88 105.256 348.475 103.186 348.475 94.2162L348.475 67.7662L370.095 67.7662L370.095 57.9912L348.475 57.9912L348.475 41.4312L335.825 42.5812L335.825 57.9912L325.245 57.9912L324.095 67.7662L335.825 67.7662L335.825 96.1712C335.825 110.891 344.22 116.641 369.98 116.181ZM38.7796 54.1962L55.2246 54.1962L55.2246 43.9612L9.10959 43.9612L9.10959 54.1962L25.5546 54.1962L25.5546 105.026L9.10959 105.026L9.10959 115.261L54.8796 115.261L55.7996 105.026L38.7796 105.026L38.7796 54.1962ZM240.72 115.261L241.755 105.601L224.39 105.601C224.16 93.4112 224.045 83.7512 223.815 75.1262C230.255 72.0212 238.19 69.9512 248.08 69.3762L247.505 55.8062C236.695 57.1862 228.53 61.9012 223.355 67.8812C223.125 65.0062 222.435 58.5662 222.32 57.9912L198.63 57.9912L197.595 67.0762L211.165 67.9962C211.395 78.1162 211.51 90.0762 211.74 105.601L197.825 105.601L197.825 115.261L240.72 115.261ZM493.72 115.261L494.755 105.601L477.39 105.601C477.16 93.4112 477.045 83.7512 476.815 75.1262C483.255 72.0212 491.19 69.9512 501.08 69.3762L500.505 55.8062C489.695 57.1862 481.53 61.9012 476.355 67.8812C476.125 65.0062 475.435 58.5662 475.32 57.9912L451.63 57.9912L450.595 67.0762L464.165 67.9962C464.395 78.1162 464.51 90.0762 464.74 105.601L450.825 105.601L450.825 115.261L493.72 115.261ZM437.715 85.3612C437.715 104.451 425.065 116.986 409.77 116.986C395.625 116.986 385.505 106.521 385.505 88.0062C385.505 69.3762 398.27 56.2662 413.45 56.2662C427.825 56.2662 437.715 66.7312 437.715 85.3612ZM181.61 105.946L180.345 116.641C143.315 116.986 133.54 106.291 133.54 87.6612C133.54 70.0662 146.42 56.4962 161.485 56.4962C177.585 56.4962 185.29 69.1462 183.22 89.0412L146.305 90.0762C147.685 101.576 156.31 105.371 181.61 105.946ZM309.03 115.031L297.3 115.606C297.185 115.146 296.61 111.466 296.265 108.706C291.895 112.961 285.8 116.756 277.52 116.756C267.285 116.756 260.27 111.121 260.27 101.806C260.27 90.3062 271.08 81.1062 295.23 82.1412C294.54 71.1012 288.215 68.4562 263.605 67.6512L264.87 56.8412C299.37 57.4162 307.995 64.5462 307.995 86.8562C307.995 98.0112 308.455 107.096 309.03 115.031ZM516.835 74.6662C516.835 64.7762 527.415 55.3462 557.43 57.4162L557.89 68.4562C536.615 66.6162 530.06 69.1462 530.06 73.1712C530.06 80.8762 560.765 84.2112 560.765 98.5862C560.765 108.476 550.185 117.331 517.18 115.836L517.64 104.911C540.41 106.406 547.425 103.761 547.425 99.2762C547.425 91.1112 516.835 89.0412 516.835 74.6662ZM398.5 85.5912C398.5 99.5062 403.79 106.636 412.07 106.636C419.775 106.636 424.835 100.311 424.835 87.6612C424.835 73.8612 419.545 66.7312 411.265 66.7312C403.56 66.7312 398.5 73.0562 398.5 85.5912ZM171.03 81.6812C170.685 72.5962 167.12 66.9612 159.185 66.9612C151.365 66.9612 146.765 71.7912 146.19 82.4862C152.285 82.2562 163.9 81.9112 171.03 81.6812ZM272.92 98.8162C272.92 103.876 276.715 106.866 282.58 106.866C286.95 106.866 291.665 105.141 295.69 102.381C295.46 99.0462 295.46 95.2512 295.345 90.5362C277.635 88.6962 272.92 92.4912 272.92 98.8162Z" />
      </g>
    </g>
    <g id="New-group-4" transform="translate(1703.9999 530)">
      <path d="M0 0L760 0L760 200L0 200L0 0Z" id="Rectangle" fill="#E16162" fill-rule="evenodd" stroke="none" />
      <g id="Functions-or-function-objects" transform="translate(94.88904 25)">
        <g id="Functions-or-">
          <path d="M255.66 21.694L256.218 13.014L248.964 13.014L248.53 21.694L255.66 21.694ZM229.31 52.012L228.566 57.716C214.678 57.964 210.152 54.864 210.152 46.928L210.152 31.614L203.828 31.614L204.448 26.344L210.152 26.344L210.152 18.036L216.972 17.416L216.972 26.344L228.628 26.344L228.628 31.614L216.972 31.614L216.972 45.874C216.972 50.71 219.886 51.826 229.31 52.012ZM91.5456 41.41L91.5456 35.892L76.9136 35.892L76.9136 24.732L94.0876 24.732L94.0876 18.78L69.7836 18.78L69.7836 57.22L76.9136 57.22L76.9136 41.41L91.5456 41.41ZM466.336 52.012L465.778 57.22L442.652 57.22L442.652 52.012L450.154 52.012C450.03 43.642 449.968 37.194 449.844 31.738L442.528 31.242L443.086 26.344L455.858 26.344C455.92 26.654 456.292 30.126 456.416 31.676C459.206 28.452 463.608 25.91 469.436 25.166L469.746 32.482C464.414 32.792 460.136 33.908 456.664 35.582C456.788 40.232 456.85 45.44 456.974 52.012L466.336 52.012ZM299.184 41.1C299.184 51.392 292.364 58.15 284.118 58.15C276.492 58.15 271.036 52.508 271.036 42.526C271.036 32.482 277.918 25.414 286.102 25.414C293.852 25.414 299.184 31.056 299.184 41.1ZM420.518 58.15C428.764 58.15 435.584 51.392 435.584 41.1C435.584 31.056 430.252 25.414 422.502 25.414C414.318 25.414 407.436 32.482 407.436 42.526C407.436 52.508 412.892 58.15 420.518 58.15ZM154.6 38.62C154.6 33.164 152.554 31.428 149.392 31.428C147.036 31.428 145.052 32.234 143.13 33.474C143.254 39.24 143.378 47.3 143.378 57.22L136.434 57.22C136.434 43.332 136.31 33.598 135.938 26.592L142.324 26.22L142.696 29.754C145.176 27.522 148.338 25.538 152.616 25.538C158.01 25.538 161.482 28.7 161.482 36.202L161.482 57.22L154.6 57.22L154.6 38.62ZM319.892 31.428C323.054 31.428 325.1 33.164 325.1 38.62L325.1 57.22L331.982 57.22L331.982 36.202C331.982 28.7 328.51 25.538 323.116 25.538C318.838 25.538 315.676 27.522 313.196 29.754L312.824 26.22L306.438 26.592C306.81 33.598 306.934 43.332 306.934 57.22L313.878 57.22C313.878 47.3 313.754 39.24 313.63 33.474C315.552 32.234 317.536 31.428 319.892 31.428ZM341.84 35.334C341.84 30.002 347.544 24.918 363.726 26.034L363.974 31.986C352.504 30.994 348.97 32.358 348.97 34.528C348.97 38.682 365.524 40.48 365.524 48.23C365.524 53.562 359.82 58.336 342.026 57.53L342.274 51.64C354.55 52.446 358.332 51.02 358.332 48.602C358.332 44.2 341.84 43.084 341.84 35.334ZM170.224 42.278C170.224 51.826 175.308 59.08 194.59 57.468L195.272 51.764C181.384 52.57 177.044 49.346 177.044 41.41C177.044 35.458 179.4 31.924 194.838 32.42L194.404 25.91C175.928 25.972 170.224 33.66 170.224 42.278ZM120.996 57.344L127.382 57.034C127.01 49.966 126.886 40.232 126.886 26.344L120.004 26.344C120.004 36.326 120.066 44.324 120.19 50.028C118.33 51.33 116.284 52.136 113.99 52.136C110.828 52.136 108.844 50.4 108.844 44.944L108.844 26.158L101.962 26.592L101.962 47.362C101.962 54.926 105.372 58.026 110.766 58.026C115.044 58.026 118.144 56.042 120.624 53.872L120.996 57.344ZM266.014 57.22L266.572 52.012L255.846 52.012L255.846 26.344L238.61 26.344L238.052 31.242L248.902 31.738L248.902 52.012L238.176 52.012L238.176 57.22L266.014 57.22ZM278.042 41.224C278.042 48.726 280.894 52.57 285.358 52.57C289.512 52.57 292.24 49.16 292.24 42.34C292.24 34.9 289.388 31.056 284.924 31.056C280.77 31.056 278.042 34.466 278.042 41.224ZM421.758 52.57C417.294 52.57 414.442 48.726 414.442 41.224C414.442 34.466 417.17 31.056 421.324 31.056C425.788 31.056 428.64 34.9 428.64 42.34C428.64 49.16 425.912 52.57 421.758 52.57Z" />
        </g>
        <g id="function-objects">
          <path d="M41.5116 128.56L31.7156 128.56L31.7156 109.402L42.1316 109.402L42.1316 104.132L31.7156 104.132L31.7156 103.016C31.7156 97.4981 32.8936 96.5061 44.1776 96.1341L43.7436 89.4381C29.2976 90.1821 24.8336 96.1341 24.8336 104.07L24.8336 104.132L17.2696 104.132L16.6496 109.402L24.8336 109.402L24.8336 128.56L17.0216 128.56L17.0216 133.706L40.8916 133.706L41.5116 128.56ZM204.51 98.1801L205.068 89.5001L197.814 89.5001L197.38 98.1801L204.51 98.1801ZM411.962 89.5001L411.652 98.1801L404.46 98.1801L404.77 89.5001L411.962 89.5001ZM367.446 134.512C376.374 134.512 384.372 127.816 384.372 116.718C384.372 107.728 379.66 102.024 373.15 102.024C369.802 102.024 367.074 103.512 365.028 105.372L365.028 89.6241L358.146 90.2441L358.146 132.838C360.998 133.954 364.036 134.512 367.446 134.512ZM178.16 128.498L177.416 134.202C163.528 134.45 159.002 131.35 159.002 123.414L159.002 108.1L152.678 108.1L153.298 102.83L159.002 102.83L159.002 94.5221L165.822 93.9021L165.822 102.83L177.478 102.83L177.478 108.1L165.822 108.1L165.822 122.36C165.822 127.196 168.736 128.312 178.16 128.498ZM519.16 128.498C509.736 128.312 506.822 127.196 506.822 122.36L506.822 108.1L518.478 108.1L518.478 102.83L506.822 102.83L506.822 93.9021L500.002 94.5221L500.002 102.83L494.298 102.83L493.678 108.1L500.002 108.1L500.002 123.414C500.002 131.35 504.528 134.45 518.416 134.202L519.16 128.498ZM248.034 117.586C248.034 127.878 241.214 134.636 232.968 134.636C225.342 134.636 219.886 128.994 219.886 119.012C219.886 108.968 226.768 101.9 234.952 101.9C242.702 101.9 248.034 107.542 248.034 117.586ZM350.334 117.586C350.334 127.878 343.514 134.636 335.268 134.636C327.642 134.636 322.186 128.994 322.186 119.012C322.186 108.968 329.068 101.9 337.252 101.9C345.002 101.9 350.334 107.542 350.334 117.586ZM103.45 115.106C103.45 109.65 101.404 107.914 98.2416 107.914C95.8856 107.914 93.9016 108.72 91.9796 109.96C92.1036 115.726 92.2276 123.786 92.2276 133.706L85.2836 133.706C85.2836 119.818 85.1596 110.084 84.7876 103.078L91.1736 102.706L91.5456 106.24C94.0256 104.008 97.1876 102.024 101.466 102.024C106.86 102.024 110.332 105.186 110.332 112.688L110.332 133.706L103.45 133.706L103.45 115.106ZM268.742 107.914C271.904 107.914 273.95 109.65 273.95 115.106L273.95 133.706L280.832 133.706L280.832 112.688C280.832 105.186 277.36 102.024 271.966 102.024C267.688 102.024 264.526 104.008 262.046 106.24L261.674 102.706L255.288 103.078C255.66 110.084 255.784 119.818 255.784 133.706L262.728 133.706C262.728 123.786 262.604 115.726 262.48 109.96C264.402 108.72 266.386 107.914 268.742 107.914ZM450.278 134.45L450.96 128.684C437.32 128.374 432.67 126.328 431.926 120.128L451.828 119.57C452.944 108.844 448.79 102.024 440.11 102.024C431.988 102.024 425.044 109.34 425.044 118.826C425.044 128.87 430.314 134.636 450.278 134.45ZM529.39 111.82C529.39 106.488 535.094 101.404 551.276 102.52L551.524 108.472C540.054 107.48 536.52 108.844 536.52 111.014C536.52 115.168 553.074 116.966 553.074 124.716C553.074 130.048 547.37 134.822 529.576 134.016L529.824 128.126C542.1 128.932 545.882 127.506 545.882 125.088C545.882 120.686 529.39 119.57 529.39 111.82ZM119.074 118.764C119.074 128.312 124.158 135.566 143.44 133.954L144.122 128.25C130.234 129.056 125.894 125.832 125.894 117.896C125.894 111.944 128.25 108.41 143.688 108.906L143.254 102.396C124.778 102.458 119.074 110.146 119.074 118.764ZM484.44 133.954C465.158 135.566 460.074 128.312 460.074 118.764C460.074 110.146 465.778 102.458 484.254 102.396L484.688 108.906C469.25 108.41 466.894 111.944 466.894 117.896C466.894 125.832 471.234 129.056 485.122 128.25L484.44 133.954ZM69.8456 133.83L76.2316 133.52C75.8596 126.452 75.7356 116.718 75.7356 102.83L68.8536 102.83C68.8536 112.812 68.9156 120.81 69.0396 126.514C67.1796 127.816 65.1336 128.622 62.8396 128.622C59.6776 128.622 57.6936 126.886 57.6936 121.43L57.6936 102.644L50.8116 103.078L50.8116 123.848C50.8116 131.412 54.2216 134.512 59.6156 134.512C63.8936 134.512 66.9936 132.528 69.4736 130.358L69.8456 133.83ZM214.864 133.706L215.422 128.498L204.696 128.498L204.696 102.83L187.46 102.83L186.902 107.728L197.752 108.224L197.752 128.498L187.026 128.498L187.026 133.706L214.864 133.706ZM411.962 102.83L411.962 129.862C411.962 139.038 406.692 144.184 390.634 144.556L390.882 138.108C403.592 137.736 405.018 136.744 405.018 131.35L405.018 108.348L392.37 107.728L392.928 102.83L411.962 102.83ZM226.892 117.71C226.892 125.212 229.744 129.056 234.208 129.056C238.362 129.056 241.09 125.646 241.09 118.826C241.09 111.386 238.238 107.542 233.774 107.542C229.62 107.542 226.892 110.952 226.892 117.71ZM329.192 117.71C329.192 125.212 332.044 129.056 336.508 129.056C340.662 129.056 343.39 125.646 343.39 118.826C343.39 111.386 340.538 107.542 336.074 107.542C331.92 107.542 329.192 110.952 329.192 117.71ZM369.926 128.56C368.19 128.56 366.64 128.25 365.028 127.692L365.028 109.526C366.702 108.348 368.562 107.666 370.36 107.666C374.576 107.666 377.552 111.262 377.552 118.392C377.552 125.398 374.638 128.56 369.926 128.56ZM438.87 107.666C443.148 107.666 445.07 110.704 445.256 115.602C441.412 115.726 435.15 115.912 431.864 116.036C432.174 110.27 434.654 107.666 438.87 107.666Z" />
        </g>
      </g>
    </g>
    <g id="New-group-2" transform="translate(1659 720)">
      <path d="M0 0L850 0L850 412L0 412L0 0Z" id="Rectangle" fill="#004643" fill-rule="evenodd" stroke="none" />
      <g id="Algorithms" fill="#FFFFFF" transform="translate(106.1272 51.5)">
        <path d="M360.158 112.766L359.123 128.866L345.898 128.866L346.703 112.766L360.158 112.766ZM487.923 160.261C487.923 150.141 484.243 146.921 478.263 146.921C474.008 146.921 470.328 148.301 466.993 150.371L466.993 194.761L454.228 194.761L454.228 114.146L466.993 112.996L466.993 142.666C471.363 138.986 476.998 135.996 484.243 135.996C494.248 135.996 500.688 141.861 500.688 155.776L500.688 194.761L487.923 194.761L487.923 160.261ZM122.108 185.101L121.073 194.761L73.8078 194.761L73.8078 185.101L91.5178 185.101L91.5178 124.381L74.3828 123.461L75.5328 114.376L104.398 114.376L104.398 185.101L122.108 185.101ZM435.368 195.681L436.748 185.101C419.268 184.756 413.863 182.686 413.863 173.716L413.863 147.266L435.483 147.266L435.483 137.491L413.863 137.491L413.863 120.931L401.213 122.081L401.213 137.491L390.633 137.491L389.483 147.266L401.213 147.266L401.213 175.671C401.213 190.391 409.608 196.141 435.368 195.681ZM62.8828 194.301L49.5428 195.221C47.9328 188.551 46.3228 181.766 44.7128 174.981L23.5528 174.981C21.9428 181.536 20.4478 188.206 18.8378 194.761L5.7278 194.761C11.8228 171.071 18.0328 147.151 25.1628 123.346L43.4478 123.346C50.4628 147.151 56.7878 170.611 62.8828 194.301ZM34.5928 134.156L33.6728 134.156C31.0278 144.506 28.3828 154.856 25.8528 165.321L42.4128 165.321C39.8828 154.856 37.2378 144.391 34.5928 134.156ZM306.108 194.761L307.143 185.101L289.778 185.101C289.548 172.911 289.433 163.251 289.203 154.626C295.643 151.521 303.578 149.451 313.468 148.876L312.893 135.306C302.083 136.686 293.918 141.401 288.743 147.381C288.513 144.506 287.823 138.066 287.708 137.491L264.018 137.491L262.983 146.576L276.553 147.496C276.783 157.616 276.898 169.576 277.128 185.101L263.213 185.101L263.213 194.761L306.108 194.761ZM250.103 164.861C250.103 183.951 237.453 196.486 222.158 196.486C208.013 196.486 197.893 186.021 197.893 167.506C197.893 148.876 210.658 135.766 225.838 135.766C240.213 135.766 250.103 146.231 250.103 164.861ZM531.968 146.921C534.843 146.921 536.108 148.646 536.108 153.476L536.108 194.761L545.193 194.761L545.193 149.566C546.918 147.841 548.758 146.921 550.828 146.921C553.818 146.921 555.198 148.646 555.198 153.591L555.198 194.761L567.043 194.761L567.043 149.106C567.043 140.596 563.823 135.996 557.268 135.996C552.208 135.996 548.183 138.756 545.078 142.206C543.928 138.296 541.283 135.996 536.798 135.996C532.083 135.996 528.058 138.756 524.953 142.206L524.493 137.261L513.568 137.951C514.028 150.946 514.028 169.001 514.028 194.761L525.873 194.761C525.873 175.901 525.758 160.606 525.528 149.911C527.598 147.956 529.783 146.921 531.968 146.921ZM143.153 214.886C175.813 213.276 183.633 200.166 183.633 179.236C183.633 169.921 183.518 145.196 183.288 138.871C177.538 137.146 171.788 136.111 166.038 136.111C149.133 136.111 134.988 147.726 134.988 165.896C134.988 180.616 144.073 189.701 156.033 189.701C162.128 189.701 166.958 187.631 170.753 184.871C170.408 199.361 167.418 201.316 142.003 203.386L143.153 214.886ZM582.223 154.166C582.223 144.276 592.803 134.846 622.818 136.916L623.278 147.956C602.003 146.116 595.448 148.646 595.448 152.671C595.448 160.376 626.153 163.711 626.153 178.086C626.153 187.976 615.573 196.831 582.568 195.336L583.028 184.411C605.798 185.906 612.813 183.261 612.813 178.776C612.813 170.611 582.223 168.541 582.223 154.166ZM379.363 185.101L378.328 194.761L326.693 194.761L326.693 185.101L346.588 185.101L346.588 147.496L326.463 146.576L327.498 137.491L359.468 137.491L359.468 185.101L379.363 185.101ZM210.888 165.091C210.888 179.006 216.178 186.136 224.458 186.136C232.163 186.136 237.223 179.811 237.223 167.161C237.223 153.361 231.933 146.231 223.653 146.231C215.948 146.231 210.888 152.556 210.888 165.091ZM160.978 179.696C153.503 179.696 147.638 174.291 147.638 162.906C147.638 152.326 153.273 146.921 161.438 146.921C164.428 146.921 167.533 147.496 170.753 148.416L170.753 177.281C167.648 178.776 164.313 179.696 160.978 179.696Z" />
      </g>
    </g>
    <g id="Four-Components-of-STL" fill="#001858" transform="translate(143 95)">
      <path d="M1758.77 162.071L1732.7 162.071L1732.7 111.086L1760.42 111.086L1760.42 97.0611L1732.7 97.0611L1732.7 94.0911C1732.7 79.4061 1735.83 76.7661 1765.86 75.7761L1764.71 57.9561C1726.26 59.9361 1714.38 75.7761 1714.38 96.8961L1714.38 97.0611L1694.25 97.0611L1692.6 111.086L1714.38 111.086L1714.38 162.071L1693.59 162.071L1693.59 175.766L1757.11 175.766L1758.77 162.071ZM1396.43 161.906L1394.45 177.086C1357.49 177.746 1345.44 169.496 1345.44 148.376L1345.44 107.621L1328.61 107.621L1330.26 93.5961L1345.44 93.5961L1345.44 71.4861L1363.59 69.8361L1363.59 93.5961L1394.61 93.5961L1394.61 107.621L1363.59 107.621L1363.59 145.571C1363.59 158.441 1371.35 161.411 1396.43 161.906ZM621.75 123.626C621.75 150.521 632.805 162.236 671.91 160.256L670.26 176.426C617.46 180.716 602.115 157.121 602.115 126.101C602.115 97.5561 619.11 72.9711 669.93 71.9811L670.92 90.1311C628.845 89.3061 621.75 101.351 621.75 123.626ZM1875.75 176.921L1875.75 159.926C1910.57 162.566 1923.11 156.626 1923.11 148.046C1923.11 131.381 1875.42 125.441 1875.42 101.846C1875.42 86.5011 1892.91 70.3311 1935.48 72.6411L1936.47 89.6361C1903.31 87.3261 1895.06 91.7811 1895.06 99.2061C1895.06 114.551 1942.74 121.316 1942.74 145.736C1942.74 161.906 1925.09 178.901 1875.75 176.921ZM213.045 133.691L213.045 119.006L174.105 119.006L174.105 89.3061L219.81 89.3061L219.81 73.4661L155.13 73.4661L155.13 175.766L174.105 175.766L174.105 133.691L213.045 133.691ZM2008.41 89.3061L2037.61 89.3061L2037.61 73.4661L1960.56 73.4661L1959.24 89.3061L1989.27 89.3061L1989.27 175.766L2008.41 175.766L2008.41 89.3061ZM2126.39 159.926L2124.74 175.766L2061.21 175.766L2061.21 73.4661L2080.19 73.4661L2080.19 159.926L2126.39 159.926ZM482.985 175.766L484.47 161.906L459.555 161.906C459.225 144.416 459.06 130.556 458.73 118.181C467.97 113.726 479.355 110.756 493.545 109.931L492.72 90.4611C477.21 92.4411 465.495 99.2061 458.07 107.786C457.74 103.661 456.75 94.4211 456.585 93.5961L422.595 93.5961L421.11 106.631L440.58 107.951C440.91 122.471 441.075 139.631 441.405 161.906L421.44 161.906L421.44 175.766L482.985 175.766ZM271.785 178.241C293.73 178.241 311.88 160.256 311.88 132.866C311.88 106.136 297.69 91.1211 277.065 91.1211C255.285 91.1211 236.97 109.931 236.97 136.661C236.97 163.226 251.49 178.241 271.785 178.241ZM725.535 178.241C747.48 178.241 765.63 160.256 765.63 132.866C765.63 106.136 751.44 91.1211 730.815 91.1211C709.035 91.1211 690.72 109.931 690.72 136.661C690.72 163.226 705.24 178.241 725.535 178.241ZM1037.88 132.866C1037.88 160.256 1019.73 178.241 997.785 178.241C977.49 178.241 962.97 163.226 962.97 136.661C962.97 109.931 981.285 91.1211 1003.07 91.1211C1023.69 91.1211 1037.88 106.136 1037.88 132.866ZM1673.13 132.866C1673.13 160.256 1654.98 178.241 1633.04 178.241C1612.74 178.241 1598.22 163.226 1598.22 136.661C1598.22 109.931 1616.54 91.1211 1638.32 91.1211C1658.94 91.1211 1673.13 106.136 1673.13 132.866ZM812.985 116.531C812.985 109.601 811.17 107.126 807.045 107.126C803.91 107.126 800.775 108.611 797.805 111.416C798.135 126.761 798.3 148.706 798.3 175.766L781.305 175.766C781.305 138.806 781.305 112.901 780.645 94.2561L796.32 93.2661L796.98 100.361C801.435 95.4111 807.21 91.4511 813.975 91.4511C820.41 91.4511 824.205 94.7511 825.855 100.361C830.31 95.4111 836.085 91.4511 843.345 91.4511C852.75 91.4511 857.37 98.0511 857.37 110.261L857.37 175.766L840.375 175.766L840.375 116.696C840.375 109.601 838.395 107.126 834.105 107.126C831.135 107.126 828.495 108.446 826.02 110.921L826.02 175.766L812.985 175.766L812.985 116.531ZM895.815 202.826L895.815 177.746C897.3 177.911 898.62 177.911 900.105 177.911C925.845 177.911 946.965 160.586 946.965 130.556C946.965 106.631 934.26 91.4511 917.1 91.4511C907.53 91.4511 899.94 96.0711 894.165 101.681L893.34 93.2661L876.51 94.2561C877.335 110.591 877.5 133.856 877.5 176.261L877.5 204.476L895.815 202.826ZM1092.99 107.126C1101.41 107.126 1106.85 111.746 1106.85 126.266L1106.85 175.766L1125.17 175.766L1125.17 119.831C1125.17 99.8661 1115.93 91.4511 1101.57 91.4511C1090.19 91.4511 1081.77 96.7311 1075.17 102.671L1074.18 93.2661L1057.19 94.2561C1058.18 112.901 1058.51 138.806 1058.51 175.766L1076.99 175.766C1076.99 149.366 1076.66 127.916 1076.33 112.571C1081.44 109.271 1086.72 107.126 1092.99 107.126ZM1214.93 162.401L1213.11 177.746C1159.98 178.241 1145.96 162.896 1145.96 136.166C1145.96 110.921 1164.44 91.4511 1186.05 91.4511C1209.15 91.4511 1220.21 109.601 1217.24 138.146L1164.27 139.631C1166.25 156.131 1178.63 161.576 1214.93 162.401ZM1274.49 107.126C1282.91 107.126 1288.35 111.746 1288.35 126.266L1288.35 175.766L1306.67 175.766L1306.67 119.831C1306.67 99.8661 1297.43 91.4511 1283.07 91.4511C1271.69 91.4511 1263.27 96.7311 1256.67 102.671L1255.68 93.2661L1238.69 94.2561C1239.68 112.901 1240.01 138.806 1240.01 175.766L1258.49 175.766C1258.49 149.366 1258.16 127.916 1257.83 112.571C1262.94 109.271 1268.22 107.126 1274.49 107.126ZM1481.9 92.7711C1438.83 89.8011 1423.65 103.331 1423.65 117.521C1423.65 138.146 1467.54 141.116 1467.54 152.831C1467.54 159.266 1457.48 163.061 1424.81 160.916L1424.15 176.591C1471.5 178.736 1486.68 166.031 1486.68 151.841C1486.68 131.216 1442.63 126.431 1442.63 115.376C1442.63 109.601 1452.03 105.971 1482.56 108.611L1481.9 92.7711ZM399.165 175.271L382.17 176.096L381.18 166.856C374.58 172.631 366.33 177.911 354.945 177.911C340.59 177.911 331.515 169.661 331.515 149.531L331.515 94.2561L349.83 93.1011L349.83 143.096C349.83 157.616 355.11 162.236 363.525 162.236C369.63 162.236 375.075 160.091 380.025 156.626C379.695 141.446 379.53 120.161 379.53 93.5961L397.845 93.5961C397.845 130.556 398.175 156.461 399.165 175.271ZM275.085 163.391C263.205 163.391 255.615 153.161 255.615 133.196C255.615 115.211 262.875 106.136 273.93 106.136C285.81 106.136 293.4 116.366 293.4 136.166C293.4 154.316 286.14 163.391 275.085 163.391ZM728.835 163.391C716.955 163.391 709.365 153.161 709.365 133.196C709.365 115.211 716.625 106.136 727.68 106.136C739.56 106.136 747.15 116.366 747.15 136.166C747.15 154.316 739.89 163.391 728.835 163.391ZM981.615 133.196C981.615 153.161 989.205 163.391 1001.09 163.391C1012.14 163.391 1019.4 154.316 1019.4 136.166C1019.4 116.366 1011.81 106.136 999.93 106.136C988.875 106.136 981.615 115.211 981.615 133.196ZM1616.86 133.196C1616.86 153.161 1624.46 163.391 1636.34 163.391C1647.39 163.391 1654.65 154.316 1654.65 136.166C1654.65 116.366 1647.06 106.136 1635.18 106.136C1624.13 106.136 1616.86 115.211 1616.86 133.196ZM906.54 162.071C902.58 162.071 899.445 161.411 895.815 160.091C895.65 138.641 895.32 123.461 895.155 111.746C899.61 108.446 904.725 106.466 909.675 106.466C920.73 106.466 928.815 116.036 928.815 135.011C928.815 153.161 919.08 162.071 906.54 162.071ZM1199.74 127.586C1199.25 114.551 1194.14 106.466 1182.75 106.466C1171.53 106.466 1164.93 113.396 1164.11 128.741C1172.85 128.411 1189.52 127.916 1199.74 127.586Z" />
    </g>
  </g>
</svg>